<?xml version="1.0" encoding="utf-8"?>
<svg xmlns="http://www.w3.org/2000/svg" xmlns:xlink="http://www.w3.org/1999/xlink" width="600" height="400" viewBox="0 0 2400 1600">
<defs>
  <clipPath id="clip920">
    <rect x="0" y="0" width="2400" height="1600"/>
  </clipPath>
</defs>
<path clip-path="url(#clip920)" d="M0 1600 L2400 1600 L2400 0 L0 0  Z" fill="#ffffff" fill-rule="evenodd" fill-opacity="1"/>
<defs>
  <clipPath id="clip921">
    <rect x="480" y="0" width="1681" height="1600"/>
  </clipPath>
</defs>
<path clip-path="url(#clip920)" d="M174.149 1423.18 L2352.76 1423.18 L2352.76 47.2441 L174.149 47.2441  Z" fill="#eee9e9" fill-rule="evenodd" fill-opacity="1"/>
<defs>
  <clipPath id="clip922">
    <rect x="174" y="47" width="2180" height="1377"/>
  </clipPath>
</defs>
<polyline clip-path="url(#clip922)" style="stroke:#000000; stroke-linecap:round; stroke-linejoin:round; stroke-width:2; stroke-opacity:0.1; fill:none" points="235.808,1423.18 235.808,47.2441 "/>
<polyline clip-path="url(#clip922)" style="stroke:#000000; stroke-linecap:round; stroke-linejoin:round; stroke-width:2; stroke-opacity:0.1; fill:none" points="749.63,1423.18 749.63,47.2441 "/>
<polyline clip-path="url(#clip922)" style="stroke:#000000; stroke-linecap:round; stroke-linejoin:round; stroke-width:2; stroke-opacity:0.1; fill:none" points="1263.45,1423.18 1263.45,47.2441 "/>
<polyline clip-path="url(#clip922)" style="stroke:#000000; stroke-linecap:round; stroke-linejoin:round; stroke-width:2; stroke-opacity:0.1; fill:none" points="1777.27,1423.18 1777.27,47.2441 "/>
<polyline clip-path="url(#clip922)" style="stroke:#000000; stroke-linecap:round; stroke-linejoin:round; stroke-width:2; stroke-opacity:0.1; fill:none" points="2291.1,1423.18 2291.1,47.2441 "/>
<polyline clip-path="url(#clip920)" style="stroke:#000000; stroke-linecap:round; stroke-linejoin:round; stroke-width:4; stroke-opacity:1; fill:none" points="174.149,1423.18 2352.76,1423.18 "/>
<polyline clip-path="url(#clip920)" style="stroke:#000000; stroke-linecap:round; stroke-linejoin:round; stroke-width:4; stroke-opacity:1; fill:none" points="174.149,47.2441 2352.76,47.2441 "/>
<polyline clip-path="url(#clip920)" style="stroke:#000000; stroke-linecap:round; stroke-linejoin:round; stroke-width:4; stroke-opacity:1; fill:none" points="235.808,1423.18 235.808,1404.28 "/>
<polyline clip-path="url(#clip920)" style="stroke:#000000; stroke-linecap:round; stroke-linejoin:round; stroke-width:4; stroke-opacity:1; fill:none" points="749.63,1423.18 749.63,1404.28 "/>
<polyline clip-path="url(#clip920)" style="stroke:#000000; stroke-linecap:round; stroke-linejoin:round; stroke-width:4; stroke-opacity:1; fill:none" points="1263.45,1423.18 1263.45,1404.28 "/>
<polyline clip-path="url(#clip920)" style="stroke:#000000; stroke-linecap:round; stroke-linejoin:round; stroke-width:4; stroke-opacity:1; fill:none" points="1777.27,1423.18 1777.27,1404.28 "/>
<polyline clip-path="url(#clip920)" style="stroke:#000000; stroke-linecap:round; stroke-linejoin:round; stroke-width:4; stroke-opacity:1; fill:none" points="2291.1,1423.18 2291.1,1404.28 "/>
<path clip-path="url(#clip920)" d="M235.808 1454.1 Q232.197 1454.1 230.368 1457.66 Q228.562 1461.2 228.562 1468.33 Q228.562 1475.44 230.368 1479.01 Q232.197 1482.55 235.808 1482.55 Q239.442 1482.55 241.247 1479.01 Q243.076 1475.44 243.076 1468.33 Q243.076 1461.2 241.247 1457.66 Q239.442 1454.1 235.808 1454.1 M235.808 1450.39 Q241.618 1450.39 244.673 1455 Q247.752 1459.58 247.752 1468.33 Q247.752 1477.06 244.673 1481.67 Q241.618 1486.25 235.808 1486.25 Q229.997 1486.25 226.919 1481.67 Q223.863 1477.06 223.863 1468.33 Q223.863 1459.58 226.919 1455 Q229.997 1450.39 235.808 1450.39 Z" fill="#000000" fill-rule="nonzero" fill-opacity="1" /><path clip-path="url(#clip920)" d="M728.901 1481.64 L745.22 1481.64 L745.22 1485.58 L723.276 1485.58 L723.276 1481.64 Q725.938 1478.89 730.521 1474.26 Q735.128 1469.61 736.308 1468.27 Q738.554 1465.74 739.433 1464.01 Q740.336 1462.25 740.336 1460.56 Q740.336 1457.8 738.392 1456.07 Q736.47 1454.33 733.369 1454.33 Q731.169 1454.33 728.716 1455.09 Q726.285 1455.86 723.507 1457.41 L723.507 1452.69 Q726.332 1451.55 728.785 1450.97 Q731.239 1450.39 733.276 1450.39 Q738.646 1450.39 741.841 1453.08 Q745.035 1455.77 745.035 1460.26 Q745.035 1462.39 744.225 1464.31 Q743.438 1466.2 741.331 1468.8 Q740.753 1469.47 737.651 1472.69 Q734.549 1475.88 728.901 1481.64 Z" fill="#000000" fill-rule="nonzero" fill-opacity="1" /><path clip-path="url(#clip920)" d="M755.081 1451.02 L773.438 1451.02 L773.438 1454.96 L759.364 1454.96 L759.364 1463.43 Q760.382 1463.08 761.401 1462.92 Q762.419 1462.73 763.438 1462.73 Q769.225 1462.73 772.604 1465.9 Q775.984 1469.08 775.984 1474.49 Q775.984 1480.07 772.512 1483.17 Q769.04 1486.25 762.72 1486.25 Q760.544 1486.25 758.276 1485.88 Q756.03 1485.51 753.623 1484.77 L753.623 1480.07 Q755.706 1481.2 757.929 1481.76 Q760.151 1482.32 762.628 1482.32 Q766.632 1482.32 768.97 1480.21 Q771.308 1478.1 771.308 1474.49 Q771.308 1470.88 768.97 1468.77 Q766.632 1466.67 762.628 1466.67 Q760.753 1466.67 758.878 1467.08 Q757.026 1467.5 755.081 1468.38 L755.081 1451.02 Z" fill="#000000" fill-rule="nonzero" fill-opacity="1" /><path clip-path="url(#clip920)" d="M1238.15 1451.02 L1256.51 1451.02 L1256.51 1454.96 L1242.43 1454.96 L1242.43 1463.43 Q1243.45 1463.08 1244.47 1462.92 Q1245.49 1462.73 1246.51 1462.73 Q1252.3 1462.73 1255.67 1465.9 Q1259.05 1469.08 1259.05 1474.49 Q1259.05 1480.07 1255.58 1483.17 Q1252.11 1486.25 1245.79 1486.25 Q1243.61 1486.25 1241.35 1485.88 Q1239.1 1485.51 1236.69 1484.77 L1236.69 1480.07 Q1238.78 1481.2 1241 1481.76 Q1243.22 1482.32 1245.7 1482.32 Q1249.7 1482.32 1252.04 1480.21 Q1254.38 1478.1 1254.38 1474.49 Q1254.38 1470.88 1252.04 1468.77 Q1249.7 1466.67 1245.7 1466.67 Q1243.82 1466.67 1241.95 1467.08 Q1240.1 1467.5 1238.15 1468.38 L1238.15 1451.02 Z" fill="#000000" fill-rule="nonzero" fill-opacity="1" /><path clip-path="url(#clip920)" d="M1278.27 1454.1 Q1274.66 1454.1 1272.83 1457.66 Q1271.02 1461.2 1271.02 1468.33 Q1271.02 1475.44 1272.83 1479.01 Q1274.66 1482.55 1278.27 1482.55 Q1281.9 1482.55 1283.71 1479.01 Q1285.54 1475.44 1285.54 1468.33 Q1285.54 1461.2 1283.71 1457.66 Q1281.9 1454.1 1278.27 1454.1 M1278.27 1450.39 Q1284.08 1450.39 1287.13 1455 Q1290.21 1459.58 1290.21 1468.33 Q1290.21 1477.06 1287.13 1481.67 Q1284.08 1486.25 1278.27 1486.25 Q1272.46 1486.25 1269.38 1481.67 Q1266.32 1477.06 1266.32 1468.33 Q1266.32 1459.58 1269.38 1455 Q1272.46 1450.39 1278.27 1450.39 Z" fill="#000000" fill-rule="nonzero" fill-opacity="1" /><path clip-path="url(#clip920)" d="M1751.13 1451.02 L1773.35 1451.02 L1773.35 1453.01 L1760.8 1485.58 L1755.92 1485.58 L1767.73 1454.96 L1751.13 1454.96 L1751.13 1451.02 Z" fill="#000000" fill-rule="nonzero" fill-opacity="1" /><path clip-path="url(#clip920)" d="M1782.52 1451.02 L1800.87 1451.02 L1800.87 1454.96 L1786.8 1454.96 L1786.8 1463.43 Q1787.82 1463.08 1788.84 1462.92 Q1789.86 1462.73 1790.87 1462.73 Q1796.66 1462.73 1800.04 1465.9 Q1803.42 1469.08 1803.42 1474.49 Q1803.42 1480.07 1799.95 1483.17 Q1796.48 1486.25 1790.16 1486.25 Q1787.98 1486.25 1785.71 1485.88 Q1783.47 1485.51 1781.06 1484.77 L1781.06 1480.07 Q1783.14 1481.2 1785.37 1481.76 Q1787.59 1482.32 1790.06 1482.32 Q1794.07 1482.32 1796.41 1480.21 Q1798.74 1478.1 1798.74 1474.49 Q1798.74 1470.88 1796.41 1468.77 Q1794.07 1466.67 1790.06 1466.67 Q1788.19 1466.67 1786.31 1467.08 Q1784.46 1467.5 1782.52 1468.38 L1782.52 1451.02 Z" fill="#000000" fill-rule="nonzero" fill-opacity="1" /><path clip-path="url(#clip920)" d="M2250.7 1481.64 L2258.34 1481.64 L2258.34 1455.28 L2250.03 1456.95 L2250.03 1452.69 L2258.3 1451.02 L2262.97 1451.02 L2262.97 1481.64 L2270.61 1481.64 L2270.61 1485.58 L2250.7 1485.58 L2250.7 1481.64 Z" fill="#000000" fill-rule="nonzero" fill-opacity="1" /><path clip-path="url(#clip920)" d="M2290.06 1454.1 Q2286.44 1454.1 2284.62 1457.66 Q2282.81 1461.2 2282.81 1468.33 Q2282.81 1475.44 2284.62 1479.01 Q2286.44 1482.55 2290.06 1482.55 Q2293.69 1482.55 2295.5 1479.01 Q2297.32 1475.44 2297.32 1468.33 Q2297.32 1461.2 2295.5 1457.66 Q2293.69 1454.1 2290.06 1454.1 M2290.06 1450.39 Q2295.87 1450.39 2298.92 1455 Q2302 1459.58 2302 1468.33 Q2302 1477.06 2298.92 1481.67 Q2295.87 1486.25 2290.06 1486.25 Q2284.25 1486.25 2281.17 1481.67 Q2278.11 1477.06 2278.11 1468.33 Q2278.11 1459.58 2281.17 1455 Q2284.25 1450.39 2290.06 1450.39 Z" fill="#000000" fill-rule="nonzero" fill-opacity="1" /><path clip-path="url(#clip920)" d="M2320.22 1454.1 Q2316.61 1454.1 2314.78 1457.66 Q2312.97 1461.2 2312.97 1468.33 Q2312.97 1475.44 2314.78 1479.01 Q2316.61 1482.55 2320.22 1482.55 Q2323.85 1482.55 2325.66 1479.01 Q2327.49 1475.44 2327.49 1468.33 Q2327.49 1461.2 2325.66 1457.66 Q2323.85 1454.1 2320.22 1454.1 M2320.22 1450.39 Q2326.03 1450.39 2329.08 1455 Q2332.16 1459.58 2332.16 1468.33 Q2332.16 1477.06 2329.08 1481.67 Q2326.03 1486.25 2320.22 1486.25 Q2314.41 1486.25 2311.33 1481.67 Q2308.27 1477.06 2308.27 1468.33 Q2308.27 1459.58 2311.33 1455 Q2314.41 1450.39 2320.22 1450.39 Z" fill="#000000" fill-rule="nonzero" fill-opacity="1" /><path clip-path="url(#clip920)" d="M895.865 1561.26 L895.865 1548.5 L885.361 1548.5 L885.361 1543.22 L902.23 1543.22 L902.23 1563.62 Q898.506 1566.26 894.019 1567.63 Q889.531 1568.97 884.438 1568.97 Q873.298 1568.97 866.996 1562.47 Q860.726 1555.95 860.726 1544.33 Q860.726 1532.68 866.996 1526.19 Q873.298 1519.66 884.438 1519.66 Q889.085 1519.66 893.255 1520.81 Q897.456 1521.96 900.989 1524.18 L900.989 1531.03 Q897.424 1528 893.414 1526.48 Q889.403 1524.95 884.979 1524.95 Q876.258 1524.95 871.866 1529.82 Q867.505 1534.69 867.505 1544.33 Q867.505 1553.94 871.866 1558.81 Q876.258 1563.68 884.979 1563.68 Q888.385 1563.68 891.059 1563.11 Q893.732 1562.51 895.865 1561.26 Z" fill="#000000" fill-rule="nonzero" fill-opacity="1" /><path clip-path="url(#clip920)" d="M927.534 1536.5 Q922.823 1536.5 920.086 1540.19 Q917.349 1543.85 917.349 1550.25 Q917.349 1556.65 920.054 1560.34 Q922.792 1564 927.534 1564 Q932.213 1564 934.95 1560.31 Q937.687 1556.62 937.687 1550.25 Q937.687 1543.92 934.95 1540.23 Q932.213 1536.5 927.534 1536.5 M927.534 1531.54 Q935.173 1531.54 939.533 1536.5 Q943.894 1541.47 943.894 1550.25 Q943.894 1559 939.533 1564 Q935.173 1568.97 927.534 1568.97 Q919.863 1568.97 915.503 1564 Q911.174 1559 911.174 1550.25 Q911.174 1541.47 915.503 1536.5 Q919.863 1531.54 927.534 1531.54 Z" fill="#000000" fill-rule="nonzero" fill-opacity="1" /><path clip-path="url(#clip920)" d="M967.415 1536.5 Q962.705 1536.5 959.967 1540.19 Q957.23 1543.85 957.23 1550.25 Q957.23 1556.65 959.936 1560.34 Q962.673 1564 967.415 1564 Q972.094 1564 974.831 1560.31 Q977.569 1556.62 977.569 1550.25 Q977.569 1543.92 974.831 1540.23 Q972.094 1536.5 967.415 1536.5 M967.415 1531.54 Q975.054 1531.54 979.415 1536.5 Q983.775 1541.47 983.775 1550.25 Q983.775 1559 979.415 1564 Q975.054 1568.97 967.415 1568.97 Q959.745 1568.97 955.384 1564 Q951.055 1559 951.055 1550.25 Q951.055 1541.47 955.384 1536.5 Q959.745 1531.54 967.415 1531.54 Z" fill="#000000" fill-rule="nonzero" fill-opacity="1" /><path clip-path="url(#clip920)" d="M1016.94 1537.81 L1016.94 1518.52 L1022.8 1518.52 L1022.8 1568.04 L1016.94 1568.04 L1016.94 1562.7 Q1015.09 1565.88 1012.26 1567.44 Q1009.46 1568.97 1005.51 1568.97 Q999.053 1568.97 994.979 1563.81 Q990.937 1558.65 990.937 1550.25 Q990.937 1541.85 994.979 1536.69 Q999.053 1531.54 1005.51 1531.54 Q1009.46 1531.54 1012.26 1533.1 Q1015.09 1534.62 1016.94 1537.81 M996.984 1550.25 Q996.984 1556.71 999.626 1560.4 Q1002.3 1564.07 1006.95 1564.07 Q1011.59 1564.07 1014.27 1560.4 Q1016.94 1556.71 1016.94 1550.25 Q1016.94 1543.79 1014.27 1540.13 Q1011.59 1536.44 1006.95 1536.44 Q1002.3 1536.44 999.626 1540.13 Q996.984 1543.79 996.984 1550.25 Z" fill="#000000" fill-rule="nonzero" fill-opacity="1" /><path clip-path="url(#clip920)" d="M1069.39 1536.5 Q1064.68 1536.5 1061.95 1540.19 Q1059.21 1543.85 1059.21 1550.25 Q1059.21 1556.65 1061.91 1560.34 Q1064.65 1564 1069.39 1564 Q1074.07 1564 1076.81 1560.31 Q1079.55 1556.62 1079.55 1550.25 Q1079.55 1543.92 1076.81 1540.23 Q1074.07 1536.5 1069.39 1536.5 M1069.39 1531.54 Q1077.03 1531.54 1081.39 1536.5 Q1085.75 1541.47 1085.75 1550.25 Q1085.75 1559 1081.39 1564 Q1077.03 1568.97 1069.39 1568.97 Q1061.72 1568.97 1057.36 1564 Q1053.03 1559 1053.03 1550.25 Q1053.03 1541.47 1057.36 1536.5 Q1061.72 1531.54 1069.39 1531.54 Z" fill="#000000" fill-rule="nonzero" fill-opacity="1" /><path clip-path="url(#clip920)" d="M1116.12 1537.87 Q1115.13 1537.3 1113.95 1537.04 Q1112.81 1536.76 1111.41 1536.76 Q1106.44 1536.76 1103.77 1540 Q1101.13 1543.22 1101.13 1549.27 L1101.13 1568.04 L1095.24 1568.04 L1095.24 1532.4 L1101.13 1532.4 L1101.13 1537.93 Q1102.97 1534.69 1105.93 1533.13 Q1108.89 1531.54 1113.13 1531.54 Q1113.73 1531.54 1114.46 1531.63 Q1115.2 1531.7 1116.09 1531.85 L1116.12 1537.87 Z" fill="#000000" fill-rule="nonzero" fill-opacity="1" /><path clip-path="url(#clip920)" d="M1171.72 1522.08 L1171.72 1528.35 Q1168.06 1526.6 1164.82 1525.74 Q1161.57 1524.88 1158.55 1524.88 Q1153.29 1524.88 1150.43 1526.92 Q1147.6 1528.96 1147.6 1532.71 Q1147.6 1535.87 1149.47 1537.49 Q1151.38 1539.08 1156.67 1540.07 L1160.55 1540.86 Q1167.74 1542.23 1171.15 1545.7 Q1174.59 1549.14 1174.59 1554.93 Q1174.59 1561.84 1169.94 1565.4 Q1165.33 1568.97 1156.38 1568.97 Q1153.01 1568.97 1149.19 1568.2 Q1145.4 1567.44 1141.33 1565.94 L1141.33 1559.32 Q1145.24 1561.52 1149 1562.63 Q1152.75 1563.75 1156.38 1563.75 Q1161.89 1563.75 1164.88 1561.58 Q1167.87 1559.42 1167.87 1555.41 Q1167.87 1551.91 1165.71 1549.93 Q1163.57 1547.96 1158.67 1546.97 L1154.76 1546.21 Q1147.56 1544.78 1144.35 1541.72 Q1141.14 1538.67 1141.14 1533.22 Q1141.14 1526.92 1145.56 1523.29 Q1150.02 1519.66 1157.81 1519.66 Q1161.16 1519.66 1164.62 1520.27 Q1168.09 1520.87 1171.72 1522.08 Z" fill="#000000" fill-rule="nonzero" fill-opacity="1" /><path clip-path="url(#clip920)" d="M1214.85 1548.76 L1214.85 1551.62 L1187.92 1551.62 Q1188.31 1557.67 1191.55 1560.85 Q1194.83 1564 1200.65 1564 Q1204.03 1564 1207.18 1563.17 Q1210.36 1562.35 1213.48 1560.69 L1213.48 1566.23 Q1210.33 1567.57 1207.02 1568.27 Q1203.71 1568.97 1200.3 1568.97 Q1191.77 1568.97 1186.78 1564 Q1181.81 1559.04 1181.81 1550.57 Q1181.81 1541.82 1186.52 1536.69 Q1191.27 1531.54 1199.29 1531.54 Q1206.48 1531.54 1210.65 1536.18 Q1214.85 1540.8 1214.85 1548.76 M1208.99 1547.04 Q1208.93 1542.23 1206.29 1539.37 Q1203.68 1536.5 1199.35 1536.5 Q1194.45 1536.5 1191.49 1539.27 Q1188.56 1542.04 1188.11 1547.07 L1208.99 1547.04 Z" fill="#000000" fill-rule="nonzero" fill-opacity="1" /><path clip-path="url(#clip920)" d="M1245.12 1537.87 Q1244.13 1537.3 1242.95 1537.04 Q1241.81 1536.76 1240.41 1536.76 Q1235.44 1536.76 1232.77 1540 Q1230.13 1543.22 1230.13 1549.27 L1230.13 1568.04 L1224.24 1568.04 L1224.24 1532.4 L1230.13 1532.4 L1230.13 1537.93 Q1231.97 1534.69 1234.93 1533.13 Q1237.89 1531.54 1242.13 1531.54 Q1242.73 1531.54 1243.46 1531.63 Q1244.2 1531.7 1245.09 1531.85 L1245.12 1537.87 Z" fill="#000000" fill-rule="nonzero" fill-opacity="1" /><path clip-path="url(#clip920)" d="M1247.06 1532.4 L1253.27 1532.4 L1264.41 1562.31 L1275.55 1532.4 L1281.75 1532.4 L1268.39 1568.04 L1260.43 1568.04 L1247.06 1532.4 Z" fill="#000000" fill-rule="nonzero" fill-opacity="1" /><path clip-path="url(#clip920)" d="M1289.84 1532.4 L1295.69 1532.4 L1295.69 1568.04 L1289.84 1568.04 L1289.84 1532.4 M1289.84 1518.52 L1295.69 1518.52 L1295.69 1525.93 L1289.84 1525.93 L1289.84 1518.52 Z" fill="#000000" fill-rule="nonzero" fill-opacity="1" /><path clip-path="url(#clip920)" d="M1333.6 1533.76 L1333.6 1539.24 Q1331.12 1537.87 1328.61 1537.2 Q1326.12 1536.5 1323.58 1536.5 Q1317.88 1536.5 1314.73 1540.13 Q1311.58 1543.73 1311.58 1550.25 Q1311.58 1556.78 1314.73 1560.4 Q1317.88 1564 1323.58 1564 Q1326.12 1564 1328.61 1563.33 Q1331.12 1562.63 1333.6 1561.26 L1333.6 1566.68 Q1331.15 1567.82 1328.51 1568.39 Q1325.9 1568.97 1322.94 1568.97 Q1314.89 1568.97 1310.14 1563.91 Q1305.4 1558.85 1305.4 1550.25 Q1305.4 1541.53 1310.18 1536.53 Q1314.98 1531.54 1323.32 1531.54 Q1326.03 1531.54 1328.61 1532.11 Q1331.18 1532.65 1333.6 1533.76 Z" fill="#000000" fill-rule="nonzero" fill-opacity="1" /><path clip-path="url(#clip920)" d="M1374.28 1548.76 L1374.28 1551.62 L1347.35 1551.62 Q1347.73 1557.67 1350.98 1560.85 Q1354.26 1564 1360.08 1564 Q1363.46 1564 1366.61 1563.17 Q1369.79 1562.35 1372.91 1560.69 L1372.91 1566.23 Q1369.76 1567.57 1366.45 1568.27 Q1363.14 1568.97 1359.73 1568.97 Q1351.2 1568.97 1346.21 1564 Q1341.24 1559.04 1341.24 1550.57 Q1341.24 1541.82 1345.95 1536.69 Q1350.69 1531.54 1358.72 1531.54 Q1365.91 1531.54 1370.08 1536.18 Q1374.28 1540.8 1374.28 1548.76 M1368.42 1547.04 Q1368.36 1542.23 1365.72 1539.37 Q1363.11 1536.5 1358.78 1536.5 Q1353.88 1536.5 1350.92 1539.27 Q1347.99 1542.04 1347.54 1547.07 L1368.42 1547.04 Z" fill="#000000" fill-rule="nonzero" fill-opacity="1" /><path clip-path="url(#clip920)" d="M1406.55 1562.63 L1417.06 1562.63 L1417.06 1526.38 L1405.63 1528.67 L1405.63 1522.82 L1416.99 1520.52 L1423.42 1520.52 L1423.42 1562.63 L1433.93 1562.63 L1433.93 1568.04 L1406.55 1568.04 L1406.55 1562.63 Z" fill="#000000" fill-rule="nonzero" fill-opacity="1" /><path clip-path="url(#clip920)" d="M1480.87 1518.58 Q1476.61 1525.9 1474.54 1533.06 Q1472.47 1540.23 1472.47 1547.58 Q1472.47 1554.93 1474.54 1562.16 Q1476.64 1569.35 1480.87 1576.64 L1475.78 1576.64 Q1471.01 1569.16 1468.62 1561.93 Q1466.26 1554.71 1466.26 1547.58 Q1466.26 1540.48 1468.62 1533.29 Q1470.97 1526.09 1475.78 1518.58 L1480.87 1518.58 Z" fill="#000000" fill-rule="nonzero" fill-opacity="1" /><path clip-path="url(#clip920)" d="M1491.63 1553.98 L1491.63 1532.4 L1497.49 1532.4 L1497.49 1553.75 Q1497.49 1558.81 1499.46 1561.36 Q1501.43 1563.87 1505.38 1563.87 Q1510.12 1563.87 1512.86 1560.85 Q1515.63 1557.83 1515.63 1552.61 L1515.63 1532.4 L1521.49 1532.4 L1521.49 1568.04 L1515.63 1568.04 L1515.63 1562.57 Q1513.5 1565.82 1510.66 1567.41 Q1507.86 1568.97 1504.14 1568.97 Q1498 1568.97 1494.81 1565.15 Q1491.63 1561.33 1491.63 1553.98 M1506.37 1531.54 L1506.37 1531.54 Z" fill="#000000" fill-rule="nonzero" fill-opacity="1" /><path clip-path="url(#clip920)" d="M1563.18 1546.53 L1563.18 1568.04 L1557.33 1568.04 L1557.33 1546.72 Q1557.33 1541.66 1555.35 1539.14 Q1553.38 1536.63 1549.43 1536.63 Q1544.69 1536.63 1541.95 1539.65 Q1539.21 1542.68 1539.21 1547.9 L1539.21 1568.04 L1533.33 1568.04 L1533.33 1532.4 L1539.21 1532.4 L1539.21 1537.93 Q1541.32 1534.72 1544.15 1533.13 Q1547.01 1531.54 1550.74 1531.54 Q1556.88 1531.54 1560.03 1535.36 Q1563.18 1539.14 1563.18 1546.53 Z" fill="#000000" fill-rule="nonzero" fill-opacity="1" /><path clip-path="url(#clip920)" d="M1574.86 1532.4 L1580.72 1532.4 L1580.72 1568.04 L1574.86 1568.04 L1574.86 1532.4 M1574.86 1518.52 L1580.72 1518.52 L1580.72 1525.93 L1574.86 1525.93 L1574.86 1518.52 Z" fill="#000000" fill-rule="nonzero" fill-opacity="1" /><path clip-path="url(#clip920)" d="M1598.77 1522.27 L1598.77 1532.4 L1610.83 1532.4 L1610.83 1536.95 L1598.77 1536.95 L1598.77 1556.3 Q1598.77 1560.66 1599.94 1561.9 Q1601.15 1563.14 1604.81 1563.14 L1610.83 1563.14 L1610.83 1568.04 L1604.81 1568.04 Q1598.03 1568.04 1595.46 1565.53 Q1592.88 1562.98 1592.88 1556.3 L1592.88 1536.95 L1588.58 1536.95 L1588.58 1532.4 L1592.88 1532.4 L1592.88 1522.27 L1598.77 1522.27 Z" fill="#000000" fill-rule="nonzero" fill-opacity="1" /><path clip-path="url(#clip920)" d="M1641.26 1533.45 L1641.26 1538.98 Q1638.77 1537.71 1636.1 1537.07 Q1633.43 1536.44 1630.56 1536.44 Q1626.2 1536.44 1624.01 1537.77 Q1621.84 1539.11 1621.84 1541.79 Q1621.84 1543.82 1623.4 1545 Q1624.96 1546.15 1629.67 1547.2 L1631.68 1547.64 Q1637.92 1548.98 1640.53 1551.43 Q1643.17 1553.85 1643.17 1558.21 Q1643.17 1563.17 1639.22 1566.07 Q1635.31 1568.97 1628.43 1568.97 Q1625.57 1568.97 1622.45 1568.39 Q1619.36 1567.85 1615.92 1566.74 L1615.92 1560.69 Q1619.17 1562.38 1622.32 1563.24 Q1625.47 1564.07 1628.56 1564.07 Q1632.7 1564.07 1634.92 1562.66 Q1637.15 1561.23 1637.15 1558.65 Q1637.15 1556.27 1635.53 1554.99 Q1633.94 1553.72 1628.49 1552.54 L1626.46 1552.07 Q1621.01 1550.92 1618.6 1548.56 Q1616.18 1546.18 1616.18 1542.04 Q1616.18 1537.01 1619.74 1534.27 Q1623.31 1531.54 1629.86 1531.54 Q1633.11 1531.54 1635.97 1532.01 Q1638.84 1532.49 1641.26 1533.45 Z" fill="#000000" fill-rule="nonzero" fill-opacity="1" /><path clip-path="url(#clip920)" d="M1651.57 1518.58 L1656.66 1518.58 Q1661.44 1526.09 1663.79 1533.29 Q1666.18 1540.48 1666.18 1547.58 Q1666.18 1554.71 1663.79 1561.93 Q1661.44 1569.16 1656.66 1576.64 L1651.57 1576.64 Q1655.8 1569.35 1657.87 1562.16 Q1659.97 1554.93 1659.97 1547.58 Q1659.97 1540.23 1657.87 1533.06 Q1655.8 1525.9 1651.57 1518.58 Z" fill="#000000" fill-rule="nonzero" fill-opacity="1" /><polyline clip-path="url(#clip922)" style="stroke:#000000; stroke-linecap:round; stroke-linejoin:round; stroke-width:2; stroke-opacity:0.1; fill:none" points="174.149,1384.24 2352.76,1384.24 "/>
<polyline clip-path="url(#clip922)" style="stroke:#000000; stroke-linecap:round; stroke-linejoin:round; stroke-width:2; stroke-opacity:0.1; fill:none" points="174.149,1034.7 2352.76,1034.7 "/>
<polyline clip-path="url(#clip922)" style="stroke:#000000; stroke-linecap:round; stroke-linejoin:round; stroke-width:2; stroke-opacity:0.1; fill:none" points="174.149,685.153 2352.76,685.153 "/>
<polyline clip-path="url(#clip922)" style="stroke:#000000; stroke-linecap:round; stroke-linejoin:round; stroke-width:2; stroke-opacity:0.1; fill:none" points="174.149,335.61 2352.76,335.61 "/>
<polyline clip-path="url(#clip920)" style="stroke:#000000; stroke-linecap:round; stroke-linejoin:round; stroke-width:4; stroke-opacity:1; fill:none" points="174.149,1423.18 174.149,47.2441 "/>
<polyline clip-path="url(#clip920)" style="stroke:#000000; stroke-linecap:round; stroke-linejoin:round; stroke-width:4; stroke-opacity:1; fill:none" points="2352.76,1423.18 2352.76,47.2441 "/>
<polyline clip-path="url(#clip920)" style="stroke:#000000; stroke-linecap:round; stroke-linejoin:round; stroke-width:4; stroke-opacity:1; fill:none" points="174.149,1384.24 193.047,1384.24 "/>
<polyline clip-path="url(#clip920)" style="stroke:#000000; stroke-linecap:round; stroke-linejoin:round; stroke-width:4; stroke-opacity:1; fill:none" points="174.149,1034.7 193.047,1034.7 "/>
<polyline clip-path="url(#clip920)" style="stroke:#000000; stroke-linecap:round; stroke-linejoin:round; stroke-width:4; stroke-opacity:1; fill:none" points="174.149,685.153 193.047,685.153 "/>
<polyline clip-path="url(#clip920)" style="stroke:#000000; stroke-linecap:round; stroke-linejoin:round; stroke-width:4; stroke-opacity:1; fill:none" points="174.149,335.61 193.047,335.61 "/>
<path clip-path="url(#clip920)" d="M126.205 1370.04 Q122.593 1370.04 120.765 1373.6 Q118.959 1377.14 118.959 1384.27 Q118.959 1391.38 120.765 1394.94 Q122.593 1398.49 126.205 1398.49 Q129.839 1398.49 131.644 1394.94 Q133.473 1391.38 133.473 1384.27 Q133.473 1377.14 131.644 1373.6 Q129.839 1370.04 126.205 1370.04 M126.205 1366.33 Q132.015 1366.33 135.07 1370.94 Q138.149 1375.52 138.149 1384.27 Q138.149 1393 135.07 1397.61 Q132.015 1402.19 126.205 1402.19 Q120.394 1402.19 117.316 1397.61 Q114.26 1393 114.26 1384.27 Q114.26 1375.52 117.316 1370.94 Q120.394 1366.33 126.205 1366.33 Z" fill="#000000" fill-rule="nonzero" fill-opacity="1" /><path clip-path="url(#clip920)" d="M118.242 1048.04 L125.88 1048.04 L125.88 1021.67 L117.57 1023.34 L117.57 1019.08 L125.834 1017.42 L130.51 1017.42 L130.51 1048.04 L138.149 1048.04 L138.149 1051.98 L118.242 1051.98 L118.242 1048.04 Z" fill="#000000" fill-rule="nonzero" fill-opacity="1" /><path clip-path="url(#clip920)" d="M121.83 698.497 L138.149 698.497 L138.149 702.433 L116.205 702.433 L116.205 698.497 Q118.867 695.743 123.45 691.113 Q128.056 686.46 129.237 685.118 Q131.482 682.595 132.362 680.859 Q133.265 679.099 133.265 677.41 Q133.265 674.655 131.32 672.919 Q129.399 671.183 126.297 671.183 Q124.098 671.183 121.644 671.947 Q119.214 672.71 116.436 674.261 L116.436 669.539 Q119.26 668.405 121.714 667.826 Q124.168 667.248 126.205 667.248 Q131.575 667.248 134.769 669.933 Q137.964 672.618 137.964 677.109 Q137.964 679.238 137.154 681.16 Q136.367 683.058 134.26 685.65 Q133.681 686.322 130.58 689.539 Q127.478 692.734 121.83 698.497 Z" fill="#000000" fill-rule="nonzero" fill-opacity="1" /><path clip-path="url(#clip920)" d="M131.019 334.256 Q134.376 334.973 136.251 337.242 Q138.149 339.51 138.149 342.843 Q138.149 347.959 134.63 350.76 Q131.112 353.561 124.63 353.561 Q122.455 353.561 120.14 353.121 Q117.848 352.705 115.394 351.848 L115.394 347.334 Q117.339 348.468 119.654 349.047 Q121.968 349.626 124.492 349.626 Q128.89 349.626 131.181 347.89 Q133.496 346.154 133.496 342.843 Q133.496 339.788 131.343 338.075 Q129.214 336.339 125.394 336.339 L121.367 336.339 L121.367 332.496 L125.58 332.496 Q129.029 332.496 130.857 331.131 Q132.686 329.742 132.686 327.149 Q132.686 324.487 130.788 323.075 Q128.913 321.64 125.394 321.64 Q123.473 321.64 121.274 322.057 Q119.075 322.473 116.436 323.353 L116.436 319.186 Q119.098 318.445 121.413 318.075 Q123.751 317.705 125.811 317.705 Q131.135 317.705 134.237 320.135 Q137.339 322.543 137.339 326.663 Q137.339 329.533 135.695 331.524 Q134.052 333.492 131.019 334.256 Z" fill="#000000" fill-rule="nonzero" fill-opacity="1" /><path clip-path="url(#clip920)" d="M16.4842 929.764 L16.4842 923.303 L45.3526 923.303 Q52.9915 923.303 56.3653 920.534 Q59.7073 917.765 59.7073 911.558 Q59.7073 905.383 56.3653 902.614 Q52.9915 899.845 45.3526 899.845 L16.4842 899.845 L16.4842 893.384 L46.1484 893.384 Q55.4423 893.384 60.1847 897.999 Q64.9272 902.582 64.9272 911.558 Q64.9272 920.565 60.1847 925.181 Q55.4423 929.764 46.1484 929.764 L16.4842 929.764 Z" fill="#000000" fill-rule="nonzero" fill-opacity="1" /><path clip-path="url(#clip920)" d="M18.2347 875.783 L28.3562 875.783 L28.3562 863.72 L32.9077 863.72 L32.9077 875.783 L52.2594 875.783 Q56.6199 875.783 57.8613 874.605 Q59.1026 873.396 59.1026 869.735 L59.1026 863.72 L64.0042 863.72 L64.0042 869.735 Q64.0042 876.515 61.4897 879.093 Q58.9434 881.671 52.2594 881.671 L32.9077 881.671 L32.9077 885.968 L28.3562 885.968 L28.3562 881.671 L18.2347 881.671 L18.2347 875.783 Z" fill="#000000" fill-rule="nonzero" fill-opacity="1" /><path clip-path="url(#clip920)" d="M28.3562 856.017 L28.3562 850.161 L64.0042 850.161 L64.0042 856.017 L28.3562 856.017 M14.479 856.017 L14.479 850.161 L21.895 850.161 L21.895 856.017 L14.479 856.017 Z" fill="#000000" fill-rule="nonzero" fill-opacity="1" /><path clip-path="url(#clip920)" d="M14.479 837.907 L14.479 832.05 L64.0042 832.05 L64.0042 837.907 L14.479 837.907 Z" fill="#000000" fill-rule="nonzero" fill-opacity="1" /><path clip-path="url(#clip920)" d="M28.3562 819.796 L28.3562 813.94 L64.0042 813.94 L64.0042 819.796 L28.3562 819.796 M14.479 819.796 L14.479 813.94 L21.895 813.94 L21.895 819.796 L14.479 819.796 Z" fill="#000000" fill-rule="nonzero" fill-opacity="1" /><path clip-path="url(#clip920)" d="M18.2347 795.893 L28.3562 795.893 L28.3562 783.83 L32.9077 783.83 L32.9077 795.893 L52.2594 795.893 Q56.6199 795.893 57.8613 794.715 Q59.1026 793.506 59.1026 789.846 L59.1026 783.83 L64.0042 783.83 L64.0042 789.846 Q64.0042 796.625 61.4897 799.203 Q58.9434 801.781 52.2594 801.781 L32.9077 801.781 L32.9077 806.078 L28.3562 806.078 L28.3562 801.781 L18.2347 801.781 L18.2347 795.893 Z" fill="#000000" fill-rule="nonzero" fill-opacity="1" /><path clip-path="url(#clip920)" d="M67.3143 761.295 Q73.68 763.778 75.6216 766.133 Q77.5631 768.489 77.5631 772.435 L77.5631 777.114 L72.6615 777.114 L72.6615 773.677 Q72.6615 771.258 71.5157 769.921 Q70.3699 768.584 66.1048 766.961 L63.4312 765.911 L28.3562 780.329 L28.3562 774.122 L56.238 762.982 L28.3562 751.842 L28.3562 745.636 L67.3143 761.295 Z" fill="#000000" fill-rule="nonzero" fill-opacity="1" /><path clip-path="url(#clip920)" d="M14.5426 702.763 Q21.8632 707.028 29.0246 709.097 Q36.186 711.166 43.5384 711.166 Q50.8908 711.166 58.1159 709.097 Q65.3091 706.996 72.5979 702.763 L72.5979 707.855 Q65.1182 712.63 57.8931 715.017 Q50.668 717.372 43.5384 717.372 Q36.4406 717.372 29.2474 715.017 Q22.0542 712.661 14.5426 707.855 L14.5426 702.763 Z" fill="#000000" fill-rule="nonzero" fill-opacity="1" /><path clip-path="url(#clip920)" d="M49.9359 692.005 L28.3562 692.005 L28.3562 686.148 L49.7131 686.148 Q54.7739 686.148 57.3202 684.175 Q59.8346 682.202 59.8346 678.255 Q59.8346 673.512 56.8109 670.775 Q53.7872 668.006 48.5673 668.006 L28.3562 668.006 L28.3562 662.15 L64.0042 662.15 L64.0042 668.006 L58.5296 668.006 Q61.7762 670.139 63.3676 672.971 Q64.9272 675.772 64.9272 679.496 Q64.9272 685.639 61.1078 688.822 Q57.2883 692.005 49.9359 692.005 M27.4968 677.268 L27.4968 677.268 Z" fill="#000000" fill-rule="nonzero" fill-opacity="1" /><path clip-path="url(#clip920)" d="M18.2347 644.294 L28.3562 644.294 L28.3562 632.231 L32.9077 632.231 L32.9077 644.294 L52.2594 644.294 Q56.6199 644.294 57.8613 643.116 Q59.1026 641.907 59.1026 638.246 L59.1026 632.231 L64.0042 632.231 L64.0042 638.246 Q64.0042 645.026 61.4897 647.604 Q58.9434 650.182 52.2594 650.182 L32.9077 650.182 L32.9077 654.479 L28.3562 654.479 L28.3562 650.182 L18.2347 650.182 L18.2347 644.294 Z" fill="#000000" fill-rule="nonzero" fill-opacity="1" /><path clip-path="url(#clip920)" d="M28.3562 624.528 L28.3562 618.672 L64.0042 618.672 L64.0042 624.528 L28.3562 624.528 M14.479 624.528 L14.479 618.672 L21.895 618.672 L21.895 624.528 L14.479 624.528 Z" fill="#000000" fill-rule="nonzero" fill-opacity="1" /><path clip-path="url(#clip920)" d="M14.479 606.418 L14.479 600.561 L64.0042 600.561 L64.0042 606.418 L14.479 606.418 Z" fill="#000000" fill-rule="nonzero" fill-opacity="1" /><path clip-path="url(#clip920)" d="M29.4065 565.582 L34.9447 565.582 Q33.6716 568.064 33.035 570.738 Q32.3984 573.412 32.3984 576.276 Q32.3984 580.637 33.7352 582.833 Q35.072 584.997 37.7456 584.997 Q39.7826 584.997 40.9603 583.438 Q42.1061 581.878 43.1565 577.167 L43.6021 575.162 Q44.9389 568.924 47.3897 566.314 Q49.8086 563.672 54.1691 563.672 Q59.1344 563.672 62.0308 567.619 Q64.9272 571.534 64.9272 578.409 Q64.9272 581.273 64.3543 584.392 Q63.8132 587.48 62.6992 590.917 L56.6518 590.917 Q58.3387 587.671 59.198 584.52 Q60.0256 581.369 60.0256 578.281 Q60.0256 574.144 58.6251 571.916 Q57.1929 569.688 54.6147 569.688 Q52.2276 569.688 50.9545 571.311 Q49.6813 572.902 48.5037 578.345 L48.0262 580.382 Q46.8804 585.825 44.5251 588.244 Q42.138 590.663 38.0002 590.663 Q32.9713 590.663 30.2341 587.098 Q27.4968 583.533 27.4968 576.976 Q27.4968 573.73 27.9743 570.865 Q28.4517 568.001 29.4065 565.582 Z" fill="#000000" fill-rule="nonzero" fill-opacity="1" /><path clip-path="url(#clip920)" d="M14.5426 555.269 L14.5426 550.177 Q22.0542 545.403 29.2474 543.047 Q36.4406 540.66 43.5384 540.66 Q50.668 540.66 57.8931 543.047 Q65.1182 545.403 72.5979 550.177 L72.5979 555.269 Q65.3091 551.036 58.1159 548.967 Q50.8908 546.867 43.5384 546.867 Q36.186 546.867 29.0246 548.967 Q21.8632 551.036 14.5426 555.269 Z" fill="#000000" fill-rule="nonzero" fill-opacity="1" /><polyline clip-path="url(#clip922)" style="stroke:#d81b60; stroke-linecap:round; stroke-linejoin:round; stroke-width:16; stroke-opacity:1; fill:none" points="235.808,1384.24 256.361,1350.92 276.913,1320.51 297.466,1292.53 318.019,1266.63 338.572,1242.51 359.125,1219.95 379.678,1198.76 400.231,1178.78 420.784,1159.88 441.337,1141.95 461.889,1124.9 482.442,1108.64 502.995,1093.1 523.548,1078.22 544.101,1063.96 564.654,1050.25 585.207,1037.05 605.76,1024.34 626.313,1012.08 646.866,1000.23 667.418,988.765 687.971,977.667 708.524,966.911 729.077,956.476 749.63,946.344 770.183,936.497 790.736,926.92 811.289,917.598 831.842,908.519 852.394,899.669 872.947,891.038 893.5,882.615 914.053,874.39 934.606,866.354 955.159,858.499 975.712,850.816 996.265,843.299 1016.82,835.94 1037.37,828.732 1057.92,821.671 1078.48,814.749 1099.03,807.961 1119.58,801.303 1140.14,794.77 1160.69,788.356 1181.24,782.058 1201.79,775.871 1222.35,769.792 1242.9,763.816 1263.45,757.942 1284.01,752.164 1304.56,746.48 1325.11,740.887 1345.66,735.383 1366.22,729.963 1386.77,724.627 1407.32,719.37 1427.88,714.192 1448.43,709.089 1468.98,704.059 1489.53,699.101 1510.09,694.212 1530.64,689.391 1551.19,684.635 1571.75,679.943 1592.3,675.314 1612.85,670.744 1633.4,666.234 1653.96,661.781 1674.51,657.384 1695.06,653.042 1715.62,648.753 1736.17,644.516 1756.72,640.33 1777.27,636.193 1797.83,632.105 1818.38,628.064 1838.93,624.069 1859.49,620.12 1880.04,616.214 1900.59,612.352 1921.15,608.532 1941.7,604.753 1962.25,601.014 1982.8,597.315 2003.36,593.655 2023.91,590.033 2044.46,586.448 2065.02,582.899 2085.57,579.386 2106.12,575.908 2126.67,572.464 2147.23,569.054 2167.78,565.677 2188.33,562.332 2208.89,559.019 2229.44,555.736 2249.99,552.485 2270.54,549.263 2291.1,546.071 "/>
<polyline clip-path="url(#clip922)" style="stroke:#1e88e5; stroke-linecap:round; stroke-linejoin:round; stroke-width:16; stroke-opacity:1; fill:none" points="235.808,1384.24 256.361,1320.51 276.913,1266.63 297.466,1219.95 318.019,1178.78 338.572,1141.95 359.125,1108.64 379.678,1078.22 400.231,1050.25 420.784,1024.34 441.337,1000.23 461.889,977.667 482.442,956.476 502.995,936.497 523.548,917.598 544.101,899.669 564.654,882.615 585.207,866.354 605.76,850.816 626.313,835.94 646.866,821.671 667.418,807.961 687.971,794.77 708.524,782.058 729.077,769.792 749.63,757.942 770.183,746.48 790.736,735.383 811.289,724.627 831.842,714.192 852.394,704.059 872.947,694.212 893.5,684.635 914.053,675.314 934.606,666.234 955.159,657.384 975.712,648.753 996.265,640.33 1016.82,632.105 1037.37,624.069 1057.92,616.214 1078.48,608.532 1099.03,601.014 1119.58,593.655 1140.14,586.448 1160.69,579.386 1181.24,572.464 1201.79,565.677 1222.35,559.019 1242.9,552.485 1263.45,546.071 1284.01,539.773 1304.56,533.586 1325.11,527.507 1345.66,521.532 1366.22,515.657 1386.77,509.879 1407.32,504.195 1427.88,498.603 1448.43,493.098 1468.98,487.679 1489.53,482.342 1510.09,477.086 1530.64,471.907 1551.19,466.804 1571.75,461.775 1592.3,456.816 1612.85,451.928 1633.4,447.106 1653.96,442.351 1674.51,437.659 1695.06,433.029 1715.62,428.46 1736.17,423.949 1756.72,419.497 1777.27,415.1 1797.83,410.757 1818.38,406.469 1838.93,402.232 1859.49,398.045 1880.04,393.909 1900.59,389.821 1921.15,385.78 1941.7,381.785 1962.25,377.835 1982.8,373.929 2003.36,370.067 2023.91,366.247 2044.46,362.468 2065.02,358.73 2085.57,355.031 2106.12,351.37 2126.67,347.748 2147.23,344.163 2167.78,340.614 2188.33,337.101 2208.89,333.623 2229.44,330.18 2249.99,326.769 2270.54,323.392 2291.1,320.047 "/>
<polyline clip-path="url(#clip922)" style="stroke:#ffc107; stroke-linecap:round; stroke-linejoin:round; stroke-width:16; stroke-opacity:1; fill:none" points="235.808,1384.24 256.361,1292.53 276.913,1219.95 297.466,1159.88 318.019,1108.64 338.572,1063.96 359.125,1024.34 379.678,988.765 400.231,956.476 420.784,926.92 441.337,899.669 461.889,874.39 482.442,850.816 502.995,828.732 523.548,807.961 544.101,788.356 564.654,769.792 585.207,752.164 605.76,735.383 626.313,719.37 646.866,704.059 667.418,689.391 687.971,675.314 708.524,661.781 729.077,648.753 749.63,636.193 770.183,624.069 790.736,612.352 811.289,601.014 831.842,590.033 852.394,579.386 872.947,569.054 893.5,559.019 914.053,549.263 934.606,539.773 955.159,530.533 975.712,521.532 996.265,512.756 1016.82,504.195 1037.37,495.839 1057.92,487.679 1078.48,479.704 1099.03,471.907 1119.58,464.28 1140.14,456.816 1160.69,449.509 1181.24,442.351 1201.79,435.336 1222.35,428.46 1242.9,421.716 1263.45,415.1 1284.01,408.606 1304.56,402.232 1325.11,395.971 1345.66,389.821 1366.22,383.776 1386.77,377.835 1407.32,371.993 1427.88,366.247 1448.43,360.594 1468.98,355.031 1489.53,349.555 1510.09,344.163 1530.64,338.854 1551.19,333.623 1571.75,328.47 1592.3,323.392 1612.85,318.387 1633.4,313.452 1653.96,308.586 1674.51,303.786 1695.06,299.052 1715.62,294.381 1736.17,289.772 1756.72,285.222 1777.27,280.731 1797.83,276.297 1818.38,271.919 1838.93,267.595 1859.49,263.323 1880.04,259.103 1900.59,254.934 1921.15,250.813 1941.7,246.741 1962.25,242.715 1982.8,238.736 2003.36,234.801 2023.91,230.91 2044.46,227.062 2065.02,223.255 2085.57,219.49 2106.12,215.765 2126.67,212.079 2147.23,208.431 2167.78,204.822 2188.33,201.249 2208.89,197.712 2229.44,194.211 2249.99,190.744 2270.54,187.312 2291.1,183.913 "/>
<polyline clip-path="url(#clip922)" style="stroke:#004d40; stroke-linecap:round; stroke-linejoin:round; stroke-width:16; stroke-opacity:1; fill:none" points="235.808,1384.24 256.361,1266.63 276.913,1178.78 297.466,1108.64 318.019,1050.25 338.572,1000.23 359.125,956.476 379.678,917.598 400.231,882.615 420.784,850.816 441.337,821.671 461.889,794.77 482.442,769.792 502.995,746.48 523.548,724.627 544.101,704.059 564.654,684.635 585.207,666.234 605.76,648.753 626.313,632.105 646.866,616.214 667.418,601.014 687.971,586.448 708.524,572.464 729.077,559.019 749.63,546.071 770.183,533.586 790.736,521.532 811.289,509.879 831.842,498.603 852.394,487.679 872.947,477.086 893.5,466.804 914.053,456.816 934.606,447.106 955.159,437.659 975.712,428.46 996.265,419.497 1016.82,410.757 1037.37,402.232 1057.92,393.909 1078.48,385.78 1099.03,377.835 1119.58,370.067 1140.14,362.468 1160.69,355.031 1181.24,347.748 1201.79,340.614 1222.35,333.623 1242.9,326.769 1263.45,320.047 1284.01,313.452 1304.56,306.979 1325.11,300.623 1345.66,294.381 1366.22,288.249 1386.77,282.222 1407.32,276.297 1427.88,270.471 1448.43,264.741 1468.98,259.103 1489.53,253.555 1510.09,248.093 1530.64,242.715 1551.19,237.419 1571.75,232.202 1592.3,227.062 1612.85,221.996 1633.4,217.002 1653.96,212.079 1674.51,207.224 1695.06,202.436 1715.62,197.712 1736.17,193.051 1756.72,188.452 1777.27,183.913 1797.83,179.431 1818.38,175.007 1838.93,170.637 1859.49,166.322 1880.04,162.059 1900.59,157.848 1921.15,153.686 1941.7,149.574 1962.25,145.51 1982.8,141.492 2003.36,137.52 2023.91,133.592 2044.46,129.708 2065.02,125.867 2085.57,122.068 2106.12,118.309 2126.67,114.591 2147.23,110.911 2167.78,107.27 2188.33,103.666 2208.89,100.1 2229.44,96.5689 2249.99,93.0734 2270.54,89.6126 2291.1,86.1857 "/>
<path clip-path="url(#clip920)" d="M246.769 352.309 L635.856 352.309 L635.856 93.1086 L246.769 93.1086  Z" fill="#eee9e9" fill-rule="evenodd" fill-opacity="1"/>
<polyline clip-path="url(#clip920)" style="stroke:#000000; stroke-linecap:round; stroke-linejoin:round; stroke-width:4; stroke-opacity:0; fill:none" points="246.769,352.309 635.856,352.309 635.856,93.1086 246.769,93.1086 246.769,352.309 "/>
<polyline clip-path="url(#clip920)" style="stroke:#d81b60; stroke-linecap:round; stroke-linejoin:round; stroke-width:16; stroke-opacity:1; fill:none" points="270.976,144.949 416.216,144.949 "/>
<path clip-path="url(#clip920)" d="M457.391 150.168 L456.372 144.821 Q455.33 139.335 451.21 139.335 Q448.108 139.335 446.696 141.882 Q444.914 145.076 444.914 149.289 Q444.914 154.381 446.65 156.812 Q448.409 159.289 451.21 159.289 Q454.312 159.289 455.979 154.358 L457.391 150.168 M459.775 143.085 L462.067 136.303 L465.863 136.303 L461.117 150.354 L462.043 155.423 Q462.252 156.557 463.062 157.506 Q464.011 158.618 464.752 158.618 L466.789 158.618 L466.789 162.229 L464.242 162.229 Q462.067 162.229 460.122 160.284 Q459.173 159.312 458.779 157.275 Q457.715 159.844 455.539 161.858 Q454.52 162.807 451.21 162.807 Q445.77 162.807 443.131 159.289 Q440.423 155.655 440.423 149.289 Q440.423 142.483 443.363 139.289 Q446.627 135.724 451.21 135.724 Q458.409 135.724 459.775 143.085 Z" fill="#000000" fill-rule="nonzero" fill-opacity="1" /><path clip-path="url(#clip920)" d="M489.15 140.701 L518.825 140.701 L518.825 144.59 L489.15 144.59 L489.15 140.701 M489.15 150.145 L518.825 150.145 L518.825 154.081 L489.15 154.081 L489.15 150.145 Z" fill="#000000" fill-rule="nonzero" fill-opacity="1" /><path clip-path="url(#clip920)" d="M553.987 130.747 Q550.376 130.747 548.548 134.312 Q546.742 137.854 546.742 144.983 Q546.742 152.09 548.548 155.655 Q550.376 159.196 553.987 159.196 Q557.622 159.196 559.427 155.655 Q561.256 152.09 561.256 144.983 Q561.256 137.854 559.427 134.312 Q557.622 130.747 553.987 130.747 M553.987 127.044 Q559.797 127.044 562.853 131.65 Q565.932 136.233 565.932 144.983 Q565.932 153.71 562.853 158.317 Q559.797 162.9 553.987 162.9 Q548.177 162.9 545.098 158.317 Q542.043 153.71 542.043 144.983 Q542.043 136.233 545.098 131.65 Q548.177 127.044 553.987 127.044 Z" fill="#000000" fill-rule="nonzero" fill-opacity="1" /><path clip-path="url(#clip920)" d="M574.149 156.349 L579.033 156.349 L579.033 162.229 L574.149 162.229 L574.149 156.349 Z" fill="#000000" fill-rule="nonzero" fill-opacity="1" /><path clip-path="url(#clip920)" d="M590.029 158.293 L597.668 158.293 L597.668 131.928 L589.357 133.595 L589.357 129.335 L597.621 127.669 L602.297 127.669 L602.297 158.293 L609.936 158.293 L609.936 162.229 L590.029 162.229 L590.029 158.293 Z" fill="#000000" fill-rule="nonzero" fill-opacity="1" /><polyline clip-path="url(#clip920)" style="stroke:#1e88e5; stroke-linecap:round; stroke-linejoin:round; stroke-width:16; stroke-opacity:1; fill:none" points="270.976,196.789 416.216,196.789 "/>
<path clip-path="url(#clip920)" d="M457.391 202.008 L456.372 196.661 Q455.33 191.175 451.21 191.175 Q448.108 191.175 446.696 193.722 Q444.914 196.916 444.914 201.129 Q444.914 206.221 446.65 208.652 Q448.409 211.129 451.21 211.129 Q454.312 211.129 455.979 206.198 L457.391 202.008 M459.775 194.925 L462.067 188.143 L465.863 188.143 L461.117 202.194 L462.043 207.263 Q462.252 208.397 463.062 209.346 Q464.011 210.458 464.752 210.458 L466.789 210.458 L466.789 214.069 L464.242 214.069 Q462.067 214.069 460.122 212.124 Q459.173 211.152 458.779 209.115 Q457.715 211.684 455.539 213.698 Q454.52 214.647 451.21 214.647 Q445.77 214.647 443.131 211.129 Q440.423 207.495 440.423 201.129 Q440.423 194.323 443.363 191.129 Q446.627 187.564 451.21 187.564 Q458.409 187.564 459.775 194.925 Z" fill="#000000" fill-rule="nonzero" fill-opacity="1" /><path clip-path="url(#clip920)" d="M489.15 192.541 L518.825 192.541 L518.825 196.43 L489.15 196.43 L489.15 192.541 M489.15 201.985 L518.825 201.985 L518.825 205.921 L489.15 205.921 L489.15 201.985 Z" fill="#000000" fill-rule="nonzero" fill-opacity="1" /><path clip-path="url(#clip920)" d="M553.987 182.587 Q550.376 182.587 548.548 186.152 Q546.742 189.694 546.742 196.823 Q546.742 203.93 548.548 207.495 Q550.376 211.036 553.987 211.036 Q557.622 211.036 559.427 207.495 Q561.256 203.93 561.256 196.823 Q561.256 189.694 559.427 186.152 Q557.622 182.587 553.987 182.587 M553.987 178.884 Q559.797 178.884 562.853 183.49 Q565.932 188.073 565.932 196.823 Q565.932 205.55 562.853 210.157 Q559.797 214.74 553.987 214.74 Q548.177 214.74 545.098 210.157 Q542.043 205.55 542.043 196.823 Q542.043 188.073 545.098 183.49 Q548.177 178.884 553.987 178.884 Z" fill="#000000" fill-rule="nonzero" fill-opacity="1" /><path clip-path="url(#clip920)" d="M574.149 208.189 L579.033 208.189 L579.033 214.069 L574.149 214.069 L574.149 208.189 Z" fill="#000000" fill-rule="nonzero" fill-opacity="1" /><path clip-path="url(#clip920)" d="M593.246 210.133 L609.566 210.133 L609.566 214.069 L587.621 214.069 L587.621 210.133 Q590.283 207.379 594.867 202.749 Q599.473 198.096 600.654 196.754 Q602.899 194.231 603.779 192.495 Q604.681 190.735 604.681 189.046 Q604.681 186.291 602.737 184.555 Q600.816 182.819 597.714 182.819 Q595.515 182.819 593.061 183.583 Q590.631 184.347 587.853 185.897 L587.853 181.175 Q590.677 180.041 593.131 179.462 Q595.584 178.884 597.621 178.884 Q602.992 178.884 606.186 181.569 Q609.381 184.254 609.381 188.745 Q609.381 190.874 608.57 192.796 Q607.783 194.694 605.677 197.286 Q605.098 197.958 601.996 201.175 Q598.894 204.37 593.246 210.133 Z" fill="#000000" fill-rule="nonzero" fill-opacity="1" /><polyline clip-path="url(#clip920)" style="stroke:#ffc107; stroke-linecap:round; stroke-linejoin:round; stroke-width:16; stroke-opacity:1; fill:none" points="270.976,248.629 416.216,248.629 "/>
<path clip-path="url(#clip920)" d="M457.391 253.848 L456.372 248.501 Q455.33 243.015 451.21 243.015 Q448.108 243.015 446.696 245.562 Q444.914 248.756 444.914 252.969 Q444.914 258.061 446.65 260.492 Q448.409 262.969 451.21 262.969 Q454.312 262.969 455.979 258.038 L457.391 253.848 M459.775 246.765 L462.067 239.983 L465.863 239.983 L461.117 254.034 L462.043 259.103 Q462.252 260.237 463.062 261.186 Q464.011 262.298 464.752 262.298 L466.789 262.298 L466.789 265.909 L464.242 265.909 Q462.067 265.909 460.122 263.964 Q459.173 262.992 458.779 260.955 Q457.715 263.524 455.539 265.538 Q454.52 266.487 451.21 266.487 Q445.77 266.487 443.131 262.969 Q440.423 259.335 440.423 252.969 Q440.423 246.163 443.363 242.969 Q446.627 239.404 451.21 239.404 Q458.409 239.404 459.775 246.765 Z" fill="#000000" fill-rule="nonzero" fill-opacity="1" /><path clip-path="url(#clip920)" d="M489.15 244.381 L518.825 244.381 L518.825 248.27 L489.15 248.27 L489.15 244.381 M489.15 253.825 L518.825 253.825 L518.825 257.761 L489.15 257.761 L489.15 253.825 Z" fill="#000000" fill-rule="nonzero" fill-opacity="1" /><path clip-path="url(#clip920)" d="M553.987 234.427 Q550.376 234.427 548.548 237.992 Q546.742 241.534 546.742 248.663 Q546.742 255.77 548.548 259.335 Q550.376 262.876 553.987 262.876 Q557.622 262.876 559.427 259.335 Q561.256 255.77 561.256 248.663 Q561.256 241.534 559.427 237.992 Q557.622 234.427 553.987 234.427 M553.987 230.724 Q559.797 230.724 562.853 235.33 Q565.932 239.913 565.932 248.663 Q565.932 257.39 562.853 261.997 Q559.797 266.58 553.987 266.58 Q548.177 266.58 545.098 261.997 Q542.043 257.39 542.043 248.663 Q542.043 239.913 545.098 235.33 Q548.177 230.724 553.987 230.724 Z" fill="#000000" fill-rule="nonzero" fill-opacity="1" /><path clip-path="url(#clip920)" d="M574.149 260.029 L579.033 260.029 L579.033 265.909 L574.149 265.909 L574.149 260.029 Z" fill="#000000" fill-rule="nonzero" fill-opacity="1" /><path clip-path="url(#clip920)" d="M603.385 247.274 Q606.742 247.992 608.617 250.261 Q610.515 252.529 610.515 255.862 Q610.515 260.978 606.996 263.779 Q603.478 266.58 596.996 266.58 Q594.82 266.58 592.506 266.14 Q590.214 265.723 587.76 264.867 L587.76 260.353 Q589.705 261.487 592.02 262.066 Q594.334 262.645 596.857 262.645 Q601.256 262.645 603.547 260.909 Q605.862 259.173 605.862 255.862 Q605.862 252.807 603.709 251.094 Q601.58 249.358 597.76 249.358 L593.732 249.358 L593.732 245.515 L597.945 245.515 Q601.394 245.515 603.223 244.149 Q605.052 242.761 605.052 240.168 Q605.052 237.506 603.154 236.094 Q601.279 234.659 597.76 234.659 Q595.839 234.659 593.64 235.075 Q591.441 235.492 588.802 236.372 L588.802 232.205 Q591.464 231.464 593.779 231.094 Q596.117 230.724 598.177 230.724 Q603.501 230.724 606.603 233.154 Q609.705 235.562 609.705 239.682 Q609.705 242.552 608.061 244.543 Q606.418 246.511 603.385 247.274 Z" fill="#000000" fill-rule="nonzero" fill-opacity="1" /><polyline clip-path="url(#clip920)" style="stroke:#004d40; stroke-linecap:round; stroke-linejoin:round; stroke-width:16; stroke-opacity:1; fill:none" points="270.976,300.469 416.216,300.469 "/>
<path clip-path="url(#clip920)" d="M457.391 305.688 L456.372 300.341 Q455.33 294.855 451.21 294.855 Q448.108 294.855 446.696 297.402 Q444.914 300.596 444.914 304.809 Q444.914 309.901 446.65 312.332 Q448.409 314.809 451.21 314.809 Q454.312 314.809 455.979 309.878 L457.391 305.688 M459.775 298.605 L462.067 291.823 L465.863 291.823 L461.117 305.874 L462.043 310.943 Q462.252 312.077 463.062 313.026 Q464.011 314.138 464.752 314.138 L466.789 314.138 L466.789 317.749 L464.242 317.749 Q462.067 317.749 460.122 315.804 Q459.173 314.832 458.779 312.795 Q457.715 315.364 455.539 317.378 Q454.52 318.327 451.21 318.327 Q445.77 318.327 443.131 314.809 Q440.423 311.175 440.423 304.809 Q440.423 298.003 443.363 294.809 Q446.627 291.244 451.21 291.244 Q458.409 291.244 459.775 298.605 Z" fill="#000000" fill-rule="nonzero" fill-opacity="1" /><path clip-path="url(#clip920)" d="M489.15 296.221 L518.825 296.221 L518.825 300.11 L489.15 300.11 L489.15 296.221 M489.15 305.665 L518.825 305.665 L518.825 309.601 L489.15 309.601 L489.15 305.665 Z" fill="#000000" fill-rule="nonzero" fill-opacity="1" /><path clip-path="url(#clip920)" d="M553.987 286.267 Q550.376 286.267 548.548 289.832 Q546.742 293.374 546.742 300.503 Q546.742 307.61 548.548 311.175 Q550.376 314.716 553.987 314.716 Q557.622 314.716 559.427 311.175 Q561.256 307.61 561.256 300.503 Q561.256 293.374 559.427 289.832 Q557.622 286.267 553.987 286.267 M553.987 282.564 Q559.797 282.564 562.853 287.17 Q565.932 291.753 565.932 300.503 Q565.932 309.23 562.853 313.837 Q559.797 318.42 553.987 318.42 Q548.177 318.42 545.098 313.837 Q542.043 309.23 542.043 300.503 Q542.043 291.753 545.098 287.17 Q548.177 282.564 553.987 282.564 Z" fill="#000000" fill-rule="nonzero" fill-opacity="1" /><path clip-path="url(#clip920)" d="M574.149 311.869 L579.033 311.869 L579.033 317.749 L574.149 317.749 L574.149 311.869 Z" fill="#000000" fill-rule="nonzero" fill-opacity="1" /><path clip-path="url(#clip920)" d="M602.066 287.263 L590.26 305.712 L602.066 305.712 L602.066 287.263 M600.839 283.189 L606.719 283.189 L606.719 305.712 L611.649 305.712 L611.649 309.601 L606.719 309.601 L606.719 317.749 L602.066 317.749 L602.066 309.601 L586.464 309.601 L586.464 305.087 L600.839 283.189 Z" fill="#000000" fill-rule="nonzero" fill-opacity="1" /></svg>
