<?xml version="1.0" encoding="utf-8"?>
<svg xmlns="http://www.w3.org/2000/svg" xmlns:xlink="http://www.w3.org/1999/xlink" width="600" height="400" viewBox="0 0 2400 1600">
<defs>
  <clipPath id="clip010">
    <rect x="0" y="0" width="2400" height="1600"/>
  </clipPath>
</defs>
<path clip-path="url(#clip010)" d="M0 1600 L2400 1600 L2400 0 L0 0  Z" fill="#ffffff" fill-rule="evenodd" fill-opacity="1"/>
<defs>
  <clipPath id="clip011">
    <rect x="480" y="0" width="1681" height="1600"/>
  </clipPath>
</defs>
<path clip-path="url(#clip010)" d="M175.445 1423.18 L2352.76 1423.18 L2352.76 47.2441 L175.445 47.2441  Z" fill="#eee9e9" fill-rule="evenodd" fill-opacity="1"/>
<defs>
  <clipPath id="clip012">
    <rect x="175" y="47" width="2178" height="1377"/>
  </clipPath>
</defs>
<polyline clip-path="url(#clip012)" style="stroke:#000000; stroke-linecap:round; stroke-linejoin:round; stroke-width:2; stroke-opacity:0.1; fill:none" points="216.319,1423.18 216.319,47.2441 "/>
<polyline clip-path="url(#clip012)" style="stroke:#000000; stroke-linecap:round; stroke-linejoin:round; stroke-width:2; stroke-opacity:0.1; fill:none" points="735.023,1423.18 735.023,47.2441 "/>
<polyline clip-path="url(#clip012)" style="stroke:#000000; stroke-linecap:round; stroke-linejoin:round; stroke-width:2; stroke-opacity:0.1; fill:none" points="1253.73,1423.18 1253.73,47.2441 "/>
<polyline clip-path="url(#clip012)" style="stroke:#000000; stroke-linecap:round; stroke-linejoin:round; stroke-width:2; stroke-opacity:0.1; fill:none" points="1772.43,1423.18 1772.43,47.2441 "/>
<polyline clip-path="url(#clip012)" style="stroke:#000000; stroke-linecap:round; stroke-linejoin:round; stroke-width:2; stroke-opacity:0.1; fill:none" points="2291.13,1423.18 2291.13,47.2441 "/>
<polyline clip-path="url(#clip010)" style="stroke:#000000; stroke-linecap:round; stroke-linejoin:round; stroke-width:4; stroke-opacity:1; fill:none" points="175.445,1423.18 2352.76,1423.18 "/>
<polyline clip-path="url(#clip010)" style="stroke:#000000; stroke-linecap:round; stroke-linejoin:round; stroke-width:4; stroke-opacity:1; fill:none" points="175.445,47.2441 2352.76,47.2441 "/>
<polyline clip-path="url(#clip010)" style="stroke:#000000; stroke-linecap:round; stroke-linejoin:round; stroke-width:4; stroke-opacity:1; fill:none" points="216.319,1423.18 216.319,1404.28 "/>
<polyline clip-path="url(#clip010)" style="stroke:#000000; stroke-linecap:round; stroke-linejoin:round; stroke-width:4; stroke-opacity:1; fill:none" points="735.023,1423.18 735.023,1404.28 "/>
<polyline clip-path="url(#clip010)" style="stroke:#000000; stroke-linecap:round; stroke-linejoin:round; stroke-width:4; stroke-opacity:1; fill:none" points="1253.73,1423.18 1253.73,1404.28 "/>
<polyline clip-path="url(#clip010)" style="stroke:#000000; stroke-linecap:round; stroke-linejoin:round; stroke-width:4; stroke-opacity:1; fill:none" points="1772.43,1423.18 1772.43,1404.28 "/>
<polyline clip-path="url(#clip010)" style="stroke:#000000; stroke-linecap:round; stroke-linejoin:round; stroke-width:4; stroke-opacity:1; fill:none" points="2291.13,1423.18 2291.13,1404.28 "/>
<path clip-path="url(#clip010)" d="M216.319 1454.1 Q212.708 1454.1 210.879 1457.66 Q209.074 1461.2 209.074 1468.33 Q209.074 1475.44 210.879 1479.01 Q212.708 1482.55 216.319 1482.55 Q219.953 1482.55 221.759 1479.01 Q223.588 1475.44 223.588 1468.33 Q223.588 1461.2 221.759 1457.66 Q219.953 1454.1 216.319 1454.1 M216.319 1450.39 Q222.129 1450.39 225.185 1455 Q228.263 1459.58 228.263 1468.33 Q228.263 1477.06 225.185 1481.67 Q222.129 1486.25 216.319 1486.25 Q210.509 1486.25 207.43 1481.67 Q204.375 1477.06 204.375 1468.33 Q204.375 1459.58 207.43 1455 Q210.509 1450.39 216.319 1450.39 Z" fill="#000000" fill-rule="nonzero" fill-opacity="1" /><path clip-path="url(#clip010)" d="M714.294 1481.64 L730.613 1481.64 L730.613 1485.58 L708.669 1485.58 L708.669 1481.64 Q711.331 1478.89 715.914 1474.26 Q720.521 1469.61 721.701 1468.27 Q723.946 1465.74 724.826 1464.01 Q725.729 1462.25 725.729 1460.56 Q725.729 1457.8 723.784 1456.07 Q721.863 1454.33 718.761 1454.33 Q716.562 1454.33 714.109 1455.09 Q711.678 1455.86 708.9 1457.41 L708.9 1452.69 Q711.724 1451.55 714.178 1450.97 Q716.632 1450.39 718.669 1450.39 Q724.039 1450.39 727.233 1453.08 Q730.428 1455.77 730.428 1460.26 Q730.428 1462.39 729.618 1464.31 Q728.831 1466.2 726.724 1468.8 Q726.146 1469.47 723.044 1472.69 Q719.942 1475.88 714.294 1481.64 Z" fill="#000000" fill-rule="nonzero" fill-opacity="1" /><path clip-path="url(#clip010)" d="M740.474 1451.02 L758.831 1451.02 L758.831 1454.96 L744.757 1454.96 L744.757 1463.43 Q745.775 1463.08 746.794 1462.92 Q747.812 1462.73 748.831 1462.73 Q754.618 1462.73 757.997 1465.9 Q761.377 1469.08 761.377 1474.49 Q761.377 1480.07 757.905 1483.17 Q754.432 1486.25 748.113 1486.25 Q745.937 1486.25 743.669 1485.88 Q741.423 1485.51 739.016 1484.77 L739.016 1480.07 Q741.099 1481.2 743.321 1481.76 Q745.544 1482.32 748.02 1482.32 Q752.025 1482.32 754.363 1480.21 Q756.701 1478.1 756.701 1474.49 Q756.701 1470.88 754.363 1468.77 Q752.025 1466.67 748.02 1466.67 Q746.145 1466.67 744.27 1467.08 Q742.419 1467.5 740.474 1468.38 L740.474 1451.02 Z" fill="#000000" fill-rule="nonzero" fill-opacity="1" /><path clip-path="url(#clip010)" d="M1228.43 1451.02 L1246.78 1451.02 L1246.78 1454.96 L1232.71 1454.96 L1232.71 1463.43 Q1233.73 1463.08 1234.75 1462.92 Q1235.76 1462.73 1236.78 1462.73 Q1242.57 1462.73 1245.95 1465.9 Q1249.33 1469.08 1249.33 1474.49 Q1249.33 1480.07 1245.86 1483.17 Q1242.38 1486.25 1236.06 1486.25 Q1233.89 1486.25 1231.62 1485.88 Q1229.37 1485.51 1226.97 1484.77 L1226.97 1480.07 Q1229.05 1481.2 1231.27 1481.76 Q1233.5 1482.32 1235.97 1482.32 Q1239.98 1482.32 1242.31 1480.21 Q1244.65 1478.1 1244.65 1474.49 Q1244.65 1470.88 1242.31 1468.77 Q1239.98 1466.67 1235.97 1466.67 Q1234.1 1466.67 1232.22 1467.08 Q1230.37 1467.5 1228.43 1468.38 L1228.43 1451.02 Z" fill="#000000" fill-rule="nonzero" fill-opacity="1" /><path clip-path="url(#clip010)" d="M1268.54 1454.1 Q1264.93 1454.1 1263.1 1457.66 Q1261.3 1461.2 1261.3 1468.33 Q1261.3 1475.44 1263.1 1479.01 Q1264.93 1482.55 1268.54 1482.55 Q1272.18 1482.55 1273.98 1479.01 Q1275.81 1475.44 1275.81 1468.33 Q1275.81 1461.2 1273.98 1457.66 Q1272.18 1454.1 1268.54 1454.1 M1268.54 1450.39 Q1274.35 1450.39 1277.41 1455 Q1280.49 1459.58 1280.49 1468.33 Q1280.49 1477.06 1277.41 1481.67 Q1274.35 1486.25 1268.54 1486.25 Q1262.73 1486.25 1259.65 1481.67 Q1256.6 1477.06 1256.6 1468.33 Q1256.6 1459.58 1259.65 1455 Q1262.73 1450.39 1268.54 1450.39 Z" fill="#000000" fill-rule="nonzero" fill-opacity="1" /><path clip-path="url(#clip010)" d="M1746.28 1451.02 L1768.51 1451.02 L1768.51 1453.01 L1755.96 1485.58 L1751.08 1485.58 L1762.88 1454.96 L1746.28 1454.96 L1746.28 1451.02 Z" fill="#000000" fill-rule="nonzero" fill-opacity="1" /><path clip-path="url(#clip010)" d="M1777.67 1451.02 L1796.03 1451.02 L1796.03 1454.96 L1781.96 1454.96 L1781.96 1463.43 Q1782.97 1463.08 1783.99 1462.92 Q1785.01 1462.73 1786.03 1462.73 Q1791.82 1462.73 1795.2 1465.9 Q1798.58 1469.08 1798.58 1474.49 Q1798.58 1480.07 1795.1 1483.17 Q1791.63 1486.25 1785.31 1486.25 Q1783.14 1486.25 1780.87 1485.88 Q1778.62 1485.51 1776.21 1484.77 L1776.21 1480.07 Q1778.3 1481.2 1780.52 1481.76 Q1782.74 1482.32 1785.22 1482.32 Q1789.22 1482.32 1791.56 1480.21 Q1793.9 1478.1 1793.9 1474.49 Q1793.9 1470.88 1791.56 1468.77 Q1789.22 1466.67 1785.22 1466.67 Q1783.34 1466.67 1781.47 1467.08 Q1779.62 1467.5 1777.67 1468.38 L1777.67 1451.02 Z" fill="#000000" fill-rule="nonzero" fill-opacity="1" /><path clip-path="url(#clip010)" d="M2250.74 1481.64 L2258.38 1481.64 L2258.38 1455.28 L2250.07 1456.95 L2250.07 1452.69 L2258.33 1451.02 L2263.01 1451.02 L2263.01 1481.64 L2270.65 1481.64 L2270.65 1485.58 L2250.74 1485.58 L2250.74 1481.64 Z" fill="#000000" fill-rule="nonzero" fill-opacity="1" /><path clip-path="url(#clip010)" d="M2290.09 1454.1 Q2286.48 1454.1 2284.65 1457.66 Q2282.85 1461.2 2282.85 1468.33 Q2282.85 1475.44 2284.65 1479.01 Q2286.48 1482.55 2290.09 1482.55 Q2293.73 1482.55 2295.53 1479.01 Q2297.36 1475.44 2297.36 1468.33 Q2297.36 1461.2 2295.53 1457.66 Q2293.73 1454.1 2290.09 1454.1 M2290.09 1450.39 Q2295.9 1450.39 2298.96 1455 Q2302.04 1459.58 2302.04 1468.33 Q2302.04 1477.06 2298.96 1481.67 Q2295.9 1486.25 2290.09 1486.25 Q2284.28 1486.25 2281.2 1481.67 Q2278.15 1477.06 2278.15 1468.33 Q2278.15 1459.58 2281.2 1455 Q2284.28 1450.39 2290.09 1450.39 Z" fill="#000000" fill-rule="nonzero" fill-opacity="1" /><path clip-path="url(#clip010)" d="M2320.25 1454.1 Q2316.64 1454.1 2314.81 1457.66 Q2313.01 1461.2 2313.01 1468.33 Q2313.01 1475.44 2314.81 1479.01 Q2316.64 1482.55 2320.25 1482.55 Q2323.89 1482.55 2325.69 1479.01 Q2327.52 1475.44 2327.52 1468.33 Q2327.52 1461.2 2325.69 1457.66 Q2323.89 1454.1 2320.25 1454.1 M2320.25 1450.39 Q2326.06 1450.39 2329.12 1455 Q2332.2 1459.58 2332.2 1468.33 Q2332.2 1477.06 2329.12 1481.67 Q2326.06 1486.25 2320.25 1486.25 Q2314.44 1486.25 2311.37 1481.67 Q2308.31 1477.06 2308.31 1468.33 Q2308.31 1459.58 2311.37 1455 Q2314.44 1450.39 2320.25 1450.39 Z" fill="#000000" fill-rule="nonzero" fill-opacity="1" /><path clip-path="url(#clip010)" d="M896.513 1561.26 L896.513 1548.5 L886.009 1548.5 L886.009 1543.22 L902.879 1543.22 L902.879 1563.62 Q899.155 1566.26 894.667 1567.63 Q890.179 1568.97 885.086 1568.97 Q873.946 1568.97 867.644 1562.47 Q861.374 1555.95 861.374 1544.33 Q861.374 1532.68 867.644 1526.19 Q873.946 1519.66 885.086 1519.66 Q889.733 1519.66 893.903 1520.81 Q898.104 1521.96 901.637 1524.18 L901.637 1531.03 Q898.072 1528 894.062 1526.48 Q890.052 1524.95 885.627 1524.95 Q876.906 1524.95 872.514 1529.82 Q868.154 1534.69 868.154 1544.33 Q868.154 1553.94 872.514 1558.81 Q876.906 1563.68 885.627 1563.68 Q889.033 1563.68 891.707 1563.11 Q894.38 1562.51 896.513 1561.26 Z" fill="#000000" fill-rule="nonzero" fill-opacity="1" /><path clip-path="url(#clip010)" d="M928.182 1536.5 Q923.472 1536.5 920.734 1540.19 Q917.997 1543.85 917.997 1550.25 Q917.997 1556.65 920.703 1560.34 Q923.44 1564 928.182 1564 Q932.861 1564 935.598 1560.31 Q938.336 1556.62 938.336 1550.25 Q938.336 1543.92 935.598 1540.23 Q932.861 1536.5 928.182 1536.5 M928.182 1531.54 Q935.821 1531.54 940.182 1536.5 Q944.542 1541.47 944.542 1550.25 Q944.542 1559 940.182 1564 Q935.821 1568.97 928.182 1568.97 Q920.512 1568.97 916.151 1564 Q911.822 1559 911.822 1550.25 Q911.822 1541.47 916.151 1536.5 Q920.512 1531.54 928.182 1531.54 Z" fill="#000000" fill-rule="nonzero" fill-opacity="1" /><path clip-path="url(#clip010)" d="M968.063 1536.5 Q963.353 1536.5 960.615 1540.19 Q957.878 1543.85 957.878 1550.25 Q957.878 1556.65 960.584 1560.34 Q963.321 1564 968.063 1564 Q972.742 1564 975.479 1560.31 Q978.217 1556.62 978.217 1550.25 Q978.217 1543.92 975.479 1540.23 Q972.742 1536.5 968.063 1536.5 M968.063 1531.54 Q975.702 1531.54 980.063 1536.5 Q984.423 1541.47 984.423 1550.25 Q984.423 1559 980.063 1564 Q975.702 1568.97 968.063 1568.97 Q960.393 1568.97 956.032 1564 Q951.704 1559 951.704 1550.25 Q951.704 1541.47 956.032 1536.5 Q960.393 1531.54 968.063 1531.54 Z" fill="#000000" fill-rule="nonzero" fill-opacity="1" /><path clip-path="url(#clip010)" d="M1017.59 1537.81 L1017.59 1518.52 L1023.45 1518.52 L1023.45 1568.04 L1017.59 1568.04 L1017.59 1562.7 Q1015.74 1565.88 1012.91 1567.44 Q1010.11 1568.97 1006.16 1568.97 Q999.701 1568.97 995.627 1563.81 Q991.585 1558.65 991.585 1550.25 Q991.585 1541.85 995.627 1536.69 Q999.701 1531.54 1006.16 1531.54 Q1010.11 1531.54 1012.91 1533.1 Q1015.74 1534.62 1017.59 1537.81 M997.632 1550.25 Q997.632 1556.71 1000.27 1560.4 Q1002.95 1564.07 1007.59 1564.07 Q1012.24 1564.07 1014.91 1560.4 Q1017.59 1556.71 1017.59 1550.25 Q1017.59 1543.79 1014.91 1540.13 Q1012.24 1536.44 1007.59 1536.44 Q1002.95 1536.44 1000.27 1540.13 Q997.632 1543.79 997.632 1550.25 Z" fill="#000000" fill-rule="nonzero" fill-opacity="1" /><path clip-path="url(#clip010)" d="M1070.04 1536.5 Q1065.33 1536.5 1062.59 1540.19 Q1059.86 1543.85 1059.86 1550.25 Q1059.86 1556.65 1062.56 1560.34 Q1065.3 1564 1070.04 1564 Q1074.72 1564 1077.46 1560.31 Q1080.2 1556.62 1080.2 1550.25 Q1080.2 1543.92 1077.46 1540.23 Q1074.72 1536.5 1070.04 1536.5 M1070.04 1531.54 Q1077.68 1531.54 1082.04 1536.5 Q1086.4 1541.47 1086.4 1550.25 Q1086.4 1559 1082.04 1564 Q1077.68 1568.97 1070.04 1568.97 Q1062.37 1568.97 1058.01 1564 Q1053.68 1559 1053.68 1550.25 Q1053.68 1541.47 1058.01 1536.5 Q1062.37 1531.54 1070.04 1531.54 Z" fill="#000000" fill-rule="nonzero" fill-opacity="1" /><path clip-path="url(#clip010)" d="M1116.77 1537.87 Q1115.78 1537.3 1114.6 1537.04 Q1113.46 1536.76 1112.06 1536.76 Q1107.09 1536.76 1104.42 1540 Q1101.78 1543.22 1101.78 1549.27 L1101.78 1568.04 L1095.89 1568.04 L1095.89 1532.4 L1101.78 1532.4 L1101.78 1537.93 Q1103.62 1534.69 1106.58 1533.13 Q1109.54 1531.54 1113.77 1531.54 Q1114.38 1531.54 1115.11 1531.63 Q1115.84 1531.7 1116.73 1531.85 L1116.77 1537.87 Z" fill="#000000" fill-rule="nonzero" fill-opacity="1" /><path clip-path="url(#clip010)" d="M1172.37 1522.08 L1172.37 1528.35 Q1168.71 1526.6 1165.46 1525.74 Q1162.22 1524.88 1159.19 1524.88 Q1153.94 1524.88 1151.08 1526.92 Q1148.24 1528.96 1148.24 1532.71 Q1148.24 1535.87 1150.12 1537.49 Q1152.03 1539.08 1157.32 1540.07 L1161.2 1540.86 Q1168.39 1542.23 1171.8 1545.7 Q1175.24 1549.14 1175.24 1554.93 Q1175.24 1561.84 1170.59 1565.4 Q1165.97 1568.97 1157.03 1568.97 Q1153.66 1568.97 1149.84 1568.2 Q1146.05 1567.44 1141.97 1565.94 L1141.97 1559.32 Q1145.89 1561.52 1149.65 1562.63 Q1153.4 1563.75 1157.03 1563.75 Q1162.54 1563.75 1165.53 1561.58 Q1168.52 1559.42 1168.52 1555.41 Q1168.52 1551.91 1166.36 1549.93 Q1164.22 1547.96 1159.32 1546.97 L1155.41 1546.21 Q1148.21 1544.78 1145 1541.72 Q1141.78 1538.67 1141.78 1533.22 Q1141.78 1526.92 1146.21 1523.29 Q1150.66 1519.66 1158.46 1519.66 Q1161.8 1519.66 1165.27 1520.27 Q1168.74 1520.87 1172.37 1522.08 Z" fill="#000000" fill-rule="nonzero" fill-opacity="1" /><path clip-path="url(#clip010)" d="M1215.5 1548.76 L1215.5 1551.62 L1188.57 1551.62 Q1188.95 1557.67 1192.2 1560.85 Q1195.48 1564 1201.3 1564 Q1204.68 1564 1207.83 1563.17 Q1211.01 1562.35 1214.13 1560.69 L1214.13 1566.23 Q1210.98 1567.57 1207.67 1568.27 Q1204.36 1568.97 1200.95 1568.97 Q1192.42 1568.97 1187.43 1564 Q1182.46 1559.04 1182.46 1550.57 Q1182.46 1541.82 1187.17 1536.69 Q1191.91 1531.54 1199.93 1531.54 Q1207.13 1531.54 1211.3 1536.18 Q1215.5 1540.8 1215.5 1548.76 M1209.64 1547.04 Q1209.58 1542.23 1206.94 1539.37 Q1204.33 1536.5 1200 1536.5 Q1195.1 1536.5 1192.14 1539.27 Q1189.21 1542.04 1188.76 1547.07 L1209.64 1547.04 Z" fill="#000000" fill-rule="nonzero" fill-opacity="1" /><path clip-path="url(#clip010)" d="M1245.77 1537.87 Q1244.78 1537.3 1243.6 1537.04 Q1242.46 1536.76 1241.06 1536.76 Q1236.09 1536.76 1233.42 1540 Q1230.78 1543.22 1230.78 1549.27 L1230.78 1568.04 L1224.89 1568.04 L1224.89 1532.4 L1230.78 1532.4 L1230.78 1537.93 Q1232.62 1534.69 1235.58 1533.13 Q1238.54 1531.54 1242.78 1531.54 Q1243.38 1531.54 1244.11 1531.63 Q1244.84 1531.7 1245.74 1531.85 L1245.77 1537.87 Z" fill="#000000" fill-rule="nonzero" fill-opacity="1" /><path clip-path="url(#clip010)" d="M1247.71 1532.4 L1253.92 1532.4 L1265.06 1562.31 L1276.2 1532.4 L1282.4 1532.4 L1269.03 1568.04 L1261.08 1568.04 L1247.71 1532.4 Z" fill="#000000" fill-rule="nonzero" fill-opacity="1" /><path clip-path="url(#clip010)" d="M1290.49 1532.4 L1296.34 1532.4 L1296.34 1568.04 L1290.49 1568.04 L1290.49 1532.4 M1290.49 1518.52 L1296.34 1518.52 L1296.34 1525.93 L1290.49 1525.93 L1290.49 1518.52 Z" fill="#000000" fill-rule="nonzero" fill-opacity="1" /><path clip-path="url(#clip010)" d="M1334.25 1533.76 L1334.25 1539.24 Q1331.77 1537.87 1329.25 1537.2 Q1326.77 1536.5 1324.22 1536.5 Q1318.53 1536.5 1315.38 1540.13 Q1312.23 1543.73 1312.23 1550.25 Q1312.23 1556.78 1315.38 1560.4 Q1318.53 1564 1324.22 1564 Q1326.77 1564 1329.25 1563.33 Q1331.77 1562.63 1334.25 1561.26 L1334.25 1566.68 Q1331.8 1567.82 1329.16 1568.39 Q1326.55 1568.97 1323.59 1568.97 Q1315.54 1568.97 1310.79 1563.91 Q1306.05 1558.85 1306.05 1550.25 Q1306.05 1541.53 1310.82 1536.53 Q1315.63 1531.54 1323.97 1531.54 Q1326.68 1531.54 1329.25 1532.11 Q1331.83 1532.65 1334.25 1533.76 Z" fill="#000000" fill-rule="nonzero" fill-opacity="1" /><path clip-path="url(#clip010)" d="M1374.93 1548.76 L1374.93 1551.62 L1348 1551.62 Q1348.38 1557.67 1351.63 1560.85 Q1354.91 1564 1360.73 1564 Q1364.11 1564 1367.26 1563.17 Q1370.44 1562.35 1373.56 1560.69 L1373.56 1566.23 Q1370.41 1567.57 1367.1 1568.27 Q1363.79 1568.97 1360.38 1568.97 Q1351.85 1568.97 1346.85 1564 Q1341.89 1559.04 1341.89 1550.57 Q1341.89 1541.82 1346.6 1536.69 Q1351.34 1531.54 1359.36 1531.54 Q1366.56 1531.54 1370.73 1536.18 Q1374.93 1540.8 1374.93 1548.76 M1369.07 1547.04 Q1369.01 1542.23 1366.37 1539.37 Q1363.76 1536.5 1359.43 1536.5 Q1354.53 1536.5 1351.57 1539.27 Q1348.64 1542.04 1348.19 1547.07 L1369.07 1547.04 Z" fill="#000000" fill-rule="nonzero" fill-opacity="1" /><path clip-path="url(#clip010)" d="M1407.2 1562.63 L1417.71 1562.63 L1417.71 1526.38 L1406.28 1528.67 L1406.28 1522.82 L1417.64 1520.52 L1424.07 1520.52 L1424.07 1562.63 L1434.57 1562.63 L1434.57 1568.04 L1407.2 1568.04 L1407.2 1562.63 Z" fill="#000000" fill-rule="nonzero" fill-opacity="1" /><path clip-path="url(#clip010)" d="M1481.52 1518.58 Q1477.26 1525.9 1475.19 1533.06 Q1473.12 1540.23 1473.12 1547.58 Q1473.12 1554.93 1475.19 1562.16 Q1477.29 1569.35 1481.52 1576.64 L1476.43 1576.64 Q1471.65 1569.16 1469.27 1561.93 Q1466.91 1554.71 1466.91 1547.58 Q1466.91 1540.48 1469.27 1533.29 Q1471.62 1526.09 1476.43 1518.58 L1481.52 1518.58 Z" fill="#000000" fill-rule="nonzero" fill-opacity="1" /><path clip-path="url(#clip010)" d="M1492.28 1553.98 L1492.28 1532.4 L1498.14 1532.4 L1498.14 1553.75 Q1498.14 1558.81 1500.11 1561.36 Q1502.08 1563.87 1506.03 1563.87 Q1510.77 1563.87 1513.51 1560.85 Q1516.28 1557.83 1516.28 1552.61 L1516.28 1532.4 L1522.13 1532.4 L1522.13 1568.04 L1516.28 1568.04 L1516.28 1562.57 Q1514.15 1565.82 1511.31 1567.41 Q1508.51 1568.97 1504.79 1568.97 Q1498.65 1568.97 1495.46 1565.15 Q1492.28 1561.33 1492.28 1553.98 M1507.02 1531.54 L1507.02 1531.54 Z" fill="#000000" fill-rule="nonzero" fill-opacity="1" /><path clip-path="url(#clip010)" d="M1563.83 1546.53 L1563.83 1568.04 L1557.97 1568.04 L1557.97 1546.72 Q1557.97 1541.66 1556 1539.14 Q1554.03 1536.63 1550.08 1536.63 Q1545.34 1536.63 1542.6 1539.65 Q1539.86 1542.68 1539.86 1547.9 L1539.86 1568.04 L1533.97 1568.04 L1533.97 1532.4 L1539.86 1532.4 L1539.86 1537.93 Q1541.96 1534.72 1544.8 1533.13 Q1547.66 1531.54 1551.38 1531.54 Q1557.53 1531.54 1560.68 1535.36 Q1563.83 1539.14 1563.83 1546.53 Z" fill="#000000" fill-rule="nonzero" fill-opacity="1" /><path clip-path="url(#clip010)" d="M1575.51 1532.4 L1581.37 1532.4 L1581.37 1568.04 L1575.51 1568.04 L1575.51 1532.4 M1575.51 1518.52 L1581.37 1518.52 L1581.37 1525.93 L1575.51 1525.93 L1575.51 1518.52 Z" fill="#000000" fill-rule="nonzero" fill-opacity="1" /><path clip-path="url(#clip010)" d="M1599.41 1522.27 L1599.41 1532.4 L1611.48 1532.4 L1611.48 1536.95 L1599.41 1536.95 L1599.41 1556.3 Q1599.41 1560.66 1600.59 1561.9 Q1601.8 1563.14 1605.46 1563.14 L1611.48 1563.14 L1611.48 1568.04 L1605.46 1568.04 Q1598.68 1568.04 1596.1 1565.53 Q1593.53 1562.98 1593.53 1556.3 L1593.53 1536.95 L1589.23 1536.95 L1589.23 1532.4 L1593.53 1532.4 L1593.53 1522.27 L1599.41 1522.27 Z" fill="#000000" fill-rule="nonzero" fill-opacity="1" /><path clip-path="url(#clip010)" d="M1641.91 1533.45 L1641.91 1538.98 Q1639.42 1537.71 1636.75 1537.07 Q1634.08 1536.44 1631.21 1536.44 Q1626.85 1536.44 1624.65 1537.77 Q1622.49 1539.11 1622.49 1541.79 Q1622.49 1543.82 1624.05 1545 Q1625.61 1546.15 1630.32 1547.2 L1632.32 1547.64 Q1638.56 1548.98 1641.17 1551.43 Q1643.81 1553.85 1643.81 1558.21 Q1643.81 1563.17 1639.87 1566.07 Q1635.95 1568.97 1629.08 1568.97 Q1626.21 1568.97 1623.09 1568.39 Q1620.01 1567.85 1616.57 1566.74 L1616.57 1560.69 Q1619.82 1562.38 1622.97 1563.24 Q1626.12 1564.07 1629.21 1564.07 Q1633.34 1564.07 1635.57 1562.66 Q1637.8 1561.23 1637.8 1558.65 Q1637.8 1556.27 1636.18 1554.99 Q1634.58 1553.72 1629.14 1552.54 L1627.1 1552.07 Q1621.66 1550.92 1619.24 1548.56 Q1616.82 1546.18 1616.82 1542.04 Q1616.82 1537.01 1620.39 1534.27 Q1623.95 1531.54 1630.51 1531.54 Q1633.76 1531.54 1636.62 1532.01 Q1639.49 1532.49 1641.91 1533.45 Z" fill="#000000" fill-rule="nonzero" fill-opacity="1" /><path clip-path="url(#clip010)" d="M1652.22 1518.58 L1657.31 1518.58 Q1662.08 1526.09 1664.44 1533.29 Q1666.83 1540.48 1666.83 1547.58 Q1666.83 1554.71 1664.44 1561.93 Q1662.08 1569.16 1657.31 1576.64 L1652.22 1576.64 Q1656.45 1569.35 1658.52 1562.16 Q1660.62 1554.93 1660.62 1547.58 Q1660.62 1540.23 1658.52 1533.06 Q1656.45 1525.9 1652.22 1518.58 Z" fill="#000000" fill-rule="nonzero" fill-opacity="1" /><polyline clip-path="url(#clip012)" style="stroke:#000000; stroke-linecap:round; stroke-linejoin:round; stroke-width:2; stroke-opacity:0.1; fill:none" points="175.445,1384.24 2352.76,1384.24 "/>
<polyline clip-path="url(#clip012)" style="stroke:#000000; stroke-linecap:round; stroke-linejoin:round; stroke-width:2; stroke-opacity:0.1; fill:none" points="175.445,1139.76 2352.76,1139.76 "/>
<polyline clip-path="url(#clip012)" style="stroke:#000000; stroke-linecap:round; stroke-linejoin:round; stroke-width:2; stroke-opacity:0.1; fill:none" points="175.445,895.29 2352.76,895.29 "/>
<polyline clip-path="url(#clip012)" style="stroke:#000000; stroke-linecap:round; stroke-linejoin:round; stroke-width:2; stroke-opacity:0.1; fill:none" points="175.445,650.816 2352.76,650.816 "/>
<polyline clip-path="url(#clip012)" style="stroke:#000000; stroke-linecap:round; stroke-linejoin:round; stroke-width:2; stroke-opacity:0.1; fill:none" points="175.445,406.342 2352.76,406.342 "/>
<polyline clip-path="url(#clip012)" style="stroke:#000000; stroke-linecap:round; stroke-linejoin:round; stroke-width:2; stroke-opacity:0.1; fill:none" points="175.445,161.868 2352.76,161.868 "/>
<polyline clip-path="url(#clip010)" style="stroke:#000000; stroke-linecap:round; stroke-linejoin:round; stroke-width:4; stroke-opacity:1; fill:none" points="175.445,1423.18 175.445,47.2441 "/>
<polyline clip-path="url(#clip010)" style="stroke:#000000; stroke-linecap:round; stroke-linejoin:round; stroke-width:4; stroke-opacity:1; fill:none" points="2352.76,1423.18 2352.76,47.2441 "/>
<polyline clip-path="url(#clip010)" style="stroke:#000000; stroke-linecap:round; stroke-linejoin:round; stroke-width:4; stroke-opacity:1; fill:none" points="175.445,1384.24 194.343,1384.24 "/>
<polyline clip-path="url(#clip010)" style="stroke:#000000; stroke-linecap:round; stroke-linejoin:round; stroke-width:4; stroke-opacity:1; fill:none" points="175.445,1139.76 194.343,1139.76 "/>
<polyline clip-path="url(#clip010)" style="stroke:#000000; stroke-linecap:round; stroke-linejoin:round; stroke-width:4; stroke-opacity:1; fill:none" points="175.445,895.29 194.343,895.29 "/>
<polyline clip-path="url(#clip010)" style="stroke:#000000; stroke-linecap:round; stroke-linejoin:round; stroke-width:4; stroke-opacity:1; fill:none" points="175.445,650.816 194.343,650.816 "/>
<polyline clip-path="url(#clip010)" style="stroke:#000000; stroke-linecap:round; stroke-linejoin:round; stroke-width:4; stroke-opacity:1; fill:none" points="175.445,406.342 194.343,406.342 "/>
<polyline clip-path="url(#clip010)" style="stroke:#000000; stroke-linecap:round; stroke-linejoin:round; stroke-width:4; stroke-opacity:1; fill:none" points="175.445,161.868 194.343,161.868 "/>
<path clip-path="url(#clip010)" d="M119.538 1397.58 L127.177 1397.58 L127.177 1371.22 L118.867 1372.88 L118.867 1368.62 L127.13 1366.96 L131.806 1366.96 L131.806 1397.58 L139.445 1397.58 L139.445 1401.52 L119.538 1401.52 L119.538 1397.58 Z" fill="#000000" fill-rule="nonzero" fill-opacity="1" /><path clip-path="url(#clip010)" d="M123.126 1153.11 L139.445 1153.11 L139.445 1157.04 L117.501 1157.04 L117.501 1153.11 Q120.163 1150.35 124.746 1145.72 Q129.353 1141.07 130.533 1139.73 Q132.779 1137.21 133.658 1135.47 Q134.561 1133.71 134.561 1132.02 Q134.561 1129.27 132.617 1127.53 Q130.695 1125.79 127.593 1125.79 Q125.394 1125.79 122.941 1126.56 Q120.51 1127.32 117.732 1128.87 L117.732 1124.15 Q120.556 1123.02 123.01 1122.44 Q125.464 1121.86 127.501 1121.86 Q132.871 1121.86 136.066 1124.54 Q139.26 1127.23 139.26 1131.72 Q139.26 1133.85 138.45 1135.77 Q137.663 1137.67 135.556 1140.26 Q134.978 1140.93 131.876 1144.15 Q128.774 1147.35 123.126 1153.11 Z" fill="#000000" fill-rule="nonzero" fill-opacity="1" /><path clip-path="url(#clip010)" d="M132.316 893.936 Q135.672 894.654 137.547 896.922 Q139.445 899.191 139.445 902.524 Q139.445 907.64 135.927 910.441 Q132.408 913.242 125.927 913.242 Q123.751 913.242 121.436 912.802 Q119.144 912.385 116.691 911.529 L116.691 907.015 Q118.635 908.149 120.95 908.728 Q123.265 909.306 125.788 909.306 Q130.186 909.306 132.478 907.57 Q134.792 905.834 134.792 902.524 Q134.792 899.469 132.64 897.756 Q130.51 896.019 126.691 896.019 L122.663 896.019 L122.663 892.177 L126.876 892.177 Q130.325 892.177 132.154 890.811 Q133.982 889.422 133.982 886.83 Q133.982 884.168 132.084 882.756 Q130.209 881.32 126.691 881.32 Q124.769 881.32 122.57 881.737 Q120.371 882.154 117.732 883.033 L117.732 878.867 Q120.394 878.126 122.709 877.756 Q125.047 877.385 127.107 877.385 Q132.431 877.385 135.533 879.816 Q138.635 882.223 138.635 886.344 Q138.635 889.214 136.992 891.205 Q135.348 893.172 132.316 893.936 Z" fill="#000000" fill-rule="nonzero" fill-opacity="1" /><path clip-path="url(#clip010)" d="M129.862 637.61 L118.056 656.059 L129.862 656.059 L129.862 637.61 M128.635 633.536 L134.515 633.536 L134.515 656.059 L139.445 656.059 L139.445 659.948 L134.515 659.948 L134.515 668.096 L129.862 668.096 L129.862 659.948 L114.26 659.948 L114.26 655.434 L128.635 633.536 Z" fill="#000000" fill-rule="nonzero" fill-opacity="1" /><path clip-path="url(#clip010)" d="M118.543 389.062 L136.899 389.062 L136.899 392.997 L122.825 392.997 L122.825 401.47 Q123.843 401.122 124.862 400.96 Q125.88 400.775 126.899 400.775 Q132.686 400.775 136.066 403.946 Q139.445 407.118 139.445 412.534 Q139.445 418.113 135.973 421.215 Q132.501 424.294 126.181 424.294 Q124.005 424.294 121.737 423.923 Q119.492 423.553 117.084 422.812 L117.084 418.113 Q119.168 419.247 121.39 419.803 Q123.612 420.358 126.089 420.358 Q130.093 420.358 132.431 418.252 Q134.769 416.146 134.769 412.534 Q134.769 408.923 132.431 406.817 Q130.093 404.71 126.089 404.71 Q124.214 404.71 122.339 405.127 Q120.487 405.544 118.543 406.423 L118.543 389.062 Z" fill="#000000" fill-rule="nonzero" fill-opacity="1" /><path clip-path="url(#clip010)" d="M127.917 160.005 Q124.769 160.005 122.918 162.158 Q121.089 164.31 121.089 168.06 Q121.089 171.787 122.918 173.963 Q124.769 176.116 127.917 176.116 Q131.066 176.116 132.894 173.963 Q134.746 171.787 134.746 168.06 Q134.746 164.31 132.894 162.158 Q131.066 160.005 127.917 160.005 M137.2 145.352 L137.2 149.611 Q135.441 148.778 133.635 148.338 Q131.853 147.898 130.093 147.898 Q125.464 147.898 123.01 151.023 Q120.58 154.148 120.232 160.468 Q121.598 158.454 123.658 157.389 Q125.718 156.301 128.195 156.301 Q133.404 156.301 136.413 159.473 Q139.445 162.621 139.445 168.06 Q139.445 173.384 136.297 176.602 Q133.149 179.82 127.917 179.82 Q121.922 179.82 118.751 175.236 Q115.58 170.63 115.58 161.903 Q115.58 153.709 119.468 148.848 Q123.357 143.963 129.908 143.963 Q131.667 143.963 133.45 144.311 Q135.255 144.658 137.2 145.352 Z" fill="#000000" fill-rule="nonzero" fill-opacity="1" /><path clip-path="url(#clip010)" d="M16.4842 929.764 L16.4842 923.303 L45.3526 923.303 Q52.9915 923.303 56.3653 920.534 Q59.7073 917.765 59.7073 911.558 Q59.7073 905.383 56.3653 902.614 Q52.9915 899.845 45.3526 899.845 L16.4842 899.845 L16.4842 893.384 L46.1484 893.384 Q55.4423 893.384 60.1847 897.999 Q64.9272 902.582 64.9272 911.558 Q64.9272 920.565 60.1847 925.181 Q55.4423 929.764 46.1484 929.764 L16.4842 929.764 Z" fill="#000000" fill-rule="nonzero" fill-opacity="1" /><path clip-path="url(#clip010)" d="M18.2347 875.783 L28.3562 875.783 L28.3562 863.72 L32.9077 863.72 L32.9077 875.783 L52.2594 875.783 Q56.6199 875.783 57.8613 874.605 Q59.1026 873.396 59.1026 869.735 L59.1026 863.72 L64.0042 863.72 L64.0042 869.735 Q64.0042 876.515 61.4897 879.093 Q58.9434 881.671 52.2594 881.671 L32.9077 881.671 L32.9077 885.968 L28.3562 885.968 L28.3562 881.671 L18.2347 881.671 L18.2347 875.783 Z" fill="#000000" fill-rule="nonzero" fill-opacity="1" /><path clip-path="url(#clip010)" d="M28.3562 856.017 L28.3562 850.161 L64.0042 850.161 L64.0042 856.017 L28.3562 856.017 M14.479 856.017 L14.479 850.161 L21.895 850.161 L21.895 856.017 L14.479 856.017 Z" fill="#000000" fill-rule="nonzero" fill-opacity="1" /><path clip-path="url(#clip010)" d="M14.479 837.907 L14.479 832.05 L64.0042 832.05 L64.0042 837.907 L14.479 837.907 Z" fill="#000000" fill-rule="nonzero" fill-opacity="1" /><path clip-path="url(#clip010)" d="M28.3562 819.796 L28.3562 813.94 L64.0042 813.94 L64.0042 819.796 L28.3562 819.796 M14.479 819.796 L14.479 813.94 L21.895 813.94 L21.895 819.796 L14.479 819.796 Z" fill="#000000" fill-rule="nonzero" fill-opacity="1" /><path clip-path="url(#clip010)" d="M18.2347 795.893 L28.3562 795.893 L28.3562 783.83 L32.9077 783.83 L32.9077 795.893 L52.2594 795.893 Q56.6199 795.893 57.8613 794.715 Q59.1026 793.506 59.1026 789.846 L59.1026 783.83 L64.0042 783.83 L64.0042 789.846 Q64.0042 796.625 61.4897 799.203 Q58.9434 801.781 52.2594 801.781 L32.9077 801.781 L32.9077 806.078 L28.3562 806.078 L28.3562 801.781 L18.2347 801.781 L18.2347 795.893 Z" fill="#000000" fill-rule="nonzero" fill-opacity="1" /><path clip-path="url(#clip010)" d="M67.3143 761.295 Q73.68 763.778 75.6216 766.133 Q77.5631 768.489 77.5631 772.435 L77.5631 777.114 L72.6615 777.114 L72.6615 773.677 Q72.6615 771.258 71.5157 769.921 Q70.3699 768.584 66.1048 766.961 L63.4312 765.911 L28.3562 780.329 L28.3562 774.122 L56.238 762.982 L28.3562 751.842 L28.3562 745.636 L67.3143 761.295 Z" fill="#000000" fill-rule="nonzero" fill-opacity="1" /><path clip-path="url(#clip010)" d="M14.5426 702.763 Q21.8632 707.028 29.0246 709.097 Q36.186 711.166 43.5384 711.166 Q50.8908 711.166 58.1159 709.097 Q65.3091 706.996 72.5979 702.763 L72.5979 707.855 Q65.1182 712.63 57.8931 715.017 Q50.668 717.372 43.5384 717.372 Q36.4406 717.372 29.2474 715.017 Q22.0542 712.661 14.5426 707.855 L14.5426 702.763 Z" fill="#000000" fill-rule="nonzero" fill-opacity="1" /><path clip-path="url(#clip010)" d="M49.9359 692.005 L28.3562 692.005 L28.3562 686.148 L49.7131 686.148 Q54.7739 686.148 57.3202 684.175 Q59.8346 682.202 59.8346 678.255 Q59.8346 673.512 56.8109 670.775 Q53.7872 668.006 48.5673 668.006 L28.3562 668.006 L28.3562 662.15 L64.0042 662.15 L64.0042 668.006 L58.5296 668.006 Q61.7762 670.139 63.3676 672.971 Q64.9272 675.772 64.9272 679.496 Q64.9272 685.639 61.1078 688.822 Q57.2883 692.005 49.9359 692.005 M27.4968 677.268 L27.4968 677.268 Z" fill="#000000" fill-rule="nonzero" fill-opacity="1" /><path clip-path="url(#clip010)" d="M18.2347 644.294 L28.3562 644.294 L28.3562 632.231 L32.9077 632.231 L32.9077 644.294 L52.2594 644.294 Q56.6199 644.294 57.8613 643.116 Q59.1026 641.907 59.1026 638.246 L59.1026 632.231 L64.0042 632.231 L64.0042 638.246 Q64.0042 645.026 61.4897 647.604 Q58.9434 650.182 52.2594 650.182 L32.9077 650.182 L32.9077 654.479 L28.3562 654.479 L28.3562 650.182 L18.2347 650.182 L18.2347 644.294 Z" fill="#000000" fill-rule="nonzero" fill-opacity="1" /><path clip-path="url(#clip010)" d="M28.3562 624.528 L28.3562 618.672 L64.0042 618.672 L64.0042 624.528 L28.3562 624.528 M14.479 624.528 L14.479 618.672 L21.895 618.672 L21.895 624.528 L14.479 624.528 Z" fill="#000000" fill-rule="nonzero" fill-opacity="1" /><path clip-path="url(#clip010)" d="M14.479 606.418 L14.479 600.561 L64.0042 600.561 L64.0042 606.418 L14.479 606.418 Z" fill="#000000" fill-rule="nonzero" fill-opacity="1" /><path clip-path="url(#clip010)" d="M29.4065 565.582 L34.9447 565.582 Q33.6716 568.064 33.035 570.738 Q32.3984 573.412 32.3984 576.276 Q32.3984 580.637 33.7352 582.833 Q35.072 584.997 37.7456 584.997 Q39.7826 584.997 40.9603 583.438 Q42.1061 581.878 43.1565 577.167 L43.6021 575.162 Q44.9389 568.924 47.3897 566.314 Q49.8086 563.672 54.1691 563.672 Q59.1344 563.672 62.0308 567.619 Q64.9272 571.534 64.9272 578.409 Q64.9272 581.273 64.3543 584.392 Q63.8132 587.48 62.6992 590.917 L56.6518 590.917 Q58.3387 587.671 59.198 584.52 Q60.0256 581.369 60.0256 578.281 Q60.0256 574.144 58.6251 571.916 Q57.1929 569.688 54.6147 569.688 Q52.2276 569.688 50.9545 571.311 Q49.6813 572.902 48.5037 578.345 L48.0262 580.382 Q46.8804 585.825 44.5251 588.244 Q42.138 590.663 38.0002 590.663 Q32.9713 590.663 30.2341 587.098 Q27.4968 583.533 27.4968 576.976 Q27.4968 573.73 27.9743 570.865 Q28.4517 568.001 29.4065 565.582 Z" fill="#000000" fill-rule="nonzero" fill-opacity="1" /><path clip-path="url(#clip010)" d="M14.5426 555.269 L14.5426 550.177 Q22.0542 545.403 29.2474 543.047 Q36.4406 540.66 43.5384 540.66 Q50.668 540.66 57.8931 543.047 Q65.1182 545.403 72.5979 550.177 L72.5979 555.269 Q65.3091 551.036 58.1159 548.967 Q50.8908 546.867 43.5384 546.867 Q36.186 546.867 29.0246 548.967 Q21.8632 551.036 14.5426 555.269 Z" fill="#000000" fill-rule="nonzero" fill-opacity="1" /><polyline clip-path="url(#clip012)" style="stroke:#d81b60; stroke-linecap:round; stroke-linejoin:round; stroke-width:16; stroke-opacity:1; fill:none" points="237.067,1384.24 257.815,1366.69 278.564,1355.85 299.312,1347.89 320.06,1341.55 340.808,1336.26 361.556,1331.72 382.304,1327.73 403.052,1324.16 423.801,1320.94 444.549,1317.99 465.297,1315.27 486.045,1312.76 506.793,1310.41 527.541,1308.2 548.289,1306.13 569.038,1304.17 589.786,1302.3 610.534,1300.54 631.282,1298.85 652.03,1297.23 672.778,1295.69 693.526,1294.21 714.275,1292.78 735.023,1291.4 755.771,1290.08 776.519,1288.8 797.267,1287.56 818.015,1286.36 838.764,1285.2 859.512,1284.07 880.26,1282.97 901.008,1281.91 921.756,1280.87 942.504,1279.86 963.252,1278.88 984.001,1277.92 1004.75,1276.98 1025.5,1276.07 1046.24,1275.17 1066.99,1274.3 1087.74,1273.44 1108.49,1272.61 1129.24,1271.79 1149.99,1270.98 1170.73,1270.2 1191.48,1269.42 1212.23,1268.67 1232.98,1267.92 1253.73,1267.19 1274.47,1266.48 1295.22,1265.77 1315.97,1265.08 1336.72,1264.4 1357.47,1263.73 1378.22,1263.07 1398.96,1262.43 1419.71,1261.79 1440.46,1261.16 1461.21,1260.54 1481.96,1259.93 1502.7,1259.33 1523.45,1258.74 1544.2,1258.16 1564.95,1257.58 1585.7,1257.02 1606.45,1256.46 1627.19,1255.91 1647.94,1255.36 1668.69,1254.82 1689.44,1254.29 1710.19,1253.77 1730.93,1253.25 1751.68,1252.74 1772.43,1252.23 1793.18,1251.74 1813.93,1251.24 1834.67,1250.76 1855.42,1250.27 1876.17,1249.8 1896.92,1249.33 1917.67,1248.86 1938.42,1248.4 1959.16,1247.94 1979.91,1247.49 2000.66,1247.05 2021.41,1246.61 2042.16,1246.17 2062.9,1245.74 2083.65,1245.31 2104.4,1244.88 2125.15,1244.46 2145.9,1244.05 2166.65,1243.64 2187.39,1243.23 2208.14,1242.83 2228.89,1242.43 2249.64,1242.03 2270.39,1241.64 2291.13,1241.25 "/>
<polyline clip-path="url(#clip012)" style="stroke:#1e88e5; stroke-linecap:round; stroke-linejoin:round; stroke-width:16; stroke-opacity:1; fill:none" points="237.067,1384.24 257.815,1347.89 278.564,1324.16 299.312,1306.13 320.06,1291.4 340.808,1278.88 361.556,1267.92 382.304,1258.16 403.052,1249.33 423.801,1241.25 444.549,1233.79 465.297,1226.86 486.045,1220.37 506.793,1214.28 527.541,1208.52 548.289,1203.06 569.038,1197.87 589.786,1192.91 610.534,1188.17 631.282,1183.63 652.03,1179.27 672.778,1175.07 693.526,1171.02 714.275,1167.1 735.023,1163.32 755.771,1159.65 776.519,1156.1 797.267,1152.65 818.015,1149.3 838.764,1146.03 859.512,1142.86 880.26,1139.76 901.008,1136.75 921.756,1133.8 942.504,1130.92 963.252,1128.11 984.001,1125.36 1004.75,1122.67 1025.5,1120.03 1046.24,1117.45 1066.99,1114.92 1087.74,1112.44 1108.49,1110 1129.24,1107.61 1149.99,1105.26 1170.73,1102.96 1191.48,1100.69 1212.23,1098.46 1232.98,1096.27 1253.73,1094.12 1274.47,1091.99 1295.22,1089.91 1315.97,1087.85 1336.72,1085.82 1357.47,1083.83 1378.22,1081.86 1398.96,1079.92 1419.71,1078.01 1440.46,1076.12 1461.21,1074.26 1481.96,1072.43 1502.7,1070.61 1523.45,1068.82 1544.2,1067.06 1564.95,1065.31 1585.7,1063.59 1606.45,1061.89 1627.19,1060.21 1647.94,1058.54 1668.69,1056.9 1689.44,1055.28 1710.19,1053.67 1730.93,1052.08 1751.68,1050.51 1772.43,1048.96 1793.18,1047.42 1813.93,1045.9 1834.67,1044.39 1855.42,1042.9 1876.17,1041.42 1896.92,1039.96 1917.67,1038.52 1938.42,1037.08 1959.16,1035.67 1979.91,1034.26 2000.66,1032.87 2021.41,1031.49 2042.16,1030.12 2062.9,1028.77 2083.65,1027.43 2104.4,1026.1 2125.15,1024.78 2145.9,1023.47 2166.65,1022.17 2187.39,1020.89 2208.14,1019.61 2228.89,1018.35 2249.64,1017.1 2270.39,1015.85 2291.13,1014.62 "/>
<polyline clip-path="url(#clip012)" style="stroke:#ffc107; stroke-linecap:round; stroke-linejoin:round; stroke-width:16; stroke-opacity:1; fill:none" points="237.067,1384.24 257.815,1327.73 278.564,1288.8 299.312,1258.16 320.06,1232.5 340.808,1210.23 361.556,1190.42 382.304,1172.51 403.052,1156.1 423.801,1140.92 444.549,1126.77 465.297,1113.5 486.045,1100.98 506.793,1089.11 527.541,1077.83 548.289,1067.06 569.038,1056.75 589.786,1046.86 610.534,1037.34 631.282,1028.17 652.03,1019.32 672.778,1010.75 693.526,1002.46 714.275,994.41 735.023,986.595 755.771,978.995 776.519,971.597 797.267,964.388 818.015,957.358 838.764,950.495 859.512,943.79 880.26,937.235 901.008,930.822 921.756,924.544 942.504,918.394 963.252,912.365 984.001,906.453 1004.75,900.651 1025.5,894.956 1046.24,889.361 1066.99,883.864 1087.74,878.46 1108.49,873.145 1129.24,867.916 1149.99,862.769 1170.73,857.702 1191.48,852.712 1212.23,847.795 1232.98,842.949 1253.73,838.173 1274.47,833.462 1295.22,828.816 1315.97,824.232 1336.72,819.708 1357.47,815.242 1378.22,810.833 1398.96,806.479 1419.71,802.178 1440.46,797.928 1461.21,793.728 1481.96,789.578 1502.7,785.474 1523.45,781.417 1544.2,777.404 1564.95,773.436 1585.7,769.509 1606.45,765.624 1627.19,761.78 1647.94,757.974 1668.69,754.208 1689.44,750.478 1710.19,746.786 1730.93,743.129 1751.68,739.507 1772.43,735.919 1793.18,732.364 1813.93,728.842 1834.67,725.352 1855.42,721.893 1876.17,718.464 1896.92,715.066 1917.67,711.696 1938.42,708.356 1959.16,705.043 1979.91,701.758 2000.66,698.5 2021.41,695.268 2042.16,692.062 2062.9,688.881 2083.65,685.726 2104.4,682.595 2125.15,679.488 2145.9,676.404 2166.65,673.344 2187.39,670.306 2208.14,667.29 2228.89,664.297 2249.64,661.325 2270.39,658.374 2291.13,655.444 "/>
<polyline clip-path="url(#clip012)" style="stroke:#004d40; stroke-linecap:round; stroke-linejoin:round; stroke-width:16; stroke-opacity:1; fill:none" points="237.067,1384.24 257.815,1306.13 278.564,1249.33 299.312,1203.06 320.06,1163.32 340.808,1128.11 361.556,1096.27 382.304,1067.06 403.052,1039.96 423.801,1014.62 444.549,990.758 465.297,968.163 486.045,946.672 506.793,926.152 527.541,906.493 548.289,887.606 569.038,869.414 589.786,851.854 610.534,834.87 631.282,818.414 652.03,802.445 672.778,786.926 693.526,771.825 714.275,757.112 735.023,742.763 755.771,728.755 776.519,715.066 797.267,701.678 818.015,688.574 838.764,675.738 859.512,663.157 880.26,650.816 901.008,638.705 921.756,626.813 942.504,615.128 963.252,603.642 984.001,592.346 1004.75,581.231 1025.5,570.291 1046.24,559.518 1066.99,548.905 1087.74,538.446 1108.49,528.136 1129.24,517.969 1149.99,507.939 1170.73,498.042 1191.48,488.274 1212.23,478.629 1232.98,469.105 1253.73,459.696 1274.47,450.399 1295.22,441.211 1315.97,432.129 1336.72,423.149 1357.47,414.268 1378.22,405.483 1398.96,396.792 1419.71,388.192 1440.46,379.681 1461.21,371.255 1481.96,362.914 1502.7,354.654 1523.45,346.474 1544.2,338.371 1564.95,330.344 1585.7,322.39 1606.45,314.509 1627.19,306.698 1647.94,298.955 1668.69,291.28 1689.44,283.67 1710.19,276.124 1730.93,268.641 1751.68,261.219 1772.43,253.856 1793.18,246.553 1813.93,239.307 1834.67,232.117 1855.42,224.983 1876.17,217.902 1896.92,210.874 1917.67,203.898 1938.42,196.973 1959.16,190.098 1979.91,183.272 2000.66,176.494 2021.41,169.762 2042.16,163.078 2062.9,156.438 2083.65,149.843 2104.4,143.292 2125.15,136.785 2145.9,130.319 2166.65,123.895 2187.39,117.512 2208.14,111.169 2228.89,104.865 2249.64,98.6007 2270.39,92.3744 2291.13,86.1857 "/>
<path clip-path="url(#clip010)" d="M248.022 352.309 L636.979 352.309 L636.979 93.1086 L248.022 93.1086  Z" fill="#eee9e9" fill-rule="evenodd" fill-opacity="1"/>
<polyline clip-path="url(#clip010)" style="stroke:#000000; stroke-linecap:round; stroke-linejoin:round; stroke-width:4; stroke-opacity:0; fill:none" points="248.022,352.309 636.979,352.309 636.979,93.1086 248.022,93.1086 248.022,352.309 "/>
<polyline clip-path="url(#clip010)" style="stroke:#d81b60; stroke-linecap:round; stroke-linejoin:round; stroke-width:16; stroke-opacity:1; fill:none" points="272.215,144.949 417.369,144.949 "/>
<path clip-path="url(#clip010)" d="M458.528 150.168 L457.51 144.821 Q456.468 139.335 452.348 139.335 Q449.246 139.335 447.834 141.882 Q446.052 145.076 446.052 149.289 Q446.052 154.381 447.788 156.812 Q449.547 159.289 452.348 159.289 Q455.45 159.289 457.116 154.358 L458.528 150.168 M460.913 143.085 L463.204 136.303 L467.001 136.303 L462.255 150.354 L463.181 155.423 Q463.39 156.557 464.2 157.506 Q465.149 158.618 465.89 158.618 L467.927 158.618 L467.927 162.229 L465.38 162.229 Q463.204 162.229 461.26 160.284 Q460.311 159.312 459.917 157.275 Q458.853 159.844 456.677 161.858 Q455.658 162.807 452.348 162.807 Q446.908 162.807 444.269 159.289 Q441.561 155.655 441.561 149.289 Q441.561 142.483 444.501 139.289 Q447.765 135.724 452.348 135.724 Q459.547 135.724 460.913 143.085 Z" fill="#000000" fill-rule="nonzero" fill-opacity="1" /><path clip-path="url(#clip010)" d="M490.288 140.701 L519.963 140.701 L519.963 144.59 L490.288 144.59 L490.288 140.701 M490.288 150.145 L519.963 150.145 L519.963 154.081 L490.288 154.081 L490.288 150.145 Z" fill="#000000" fill-rule="nonzero" fill-opacity="1" /><path clip-path="url(#clip010)" d="M555.125 130.747 Q551.514 130.747 549.685 134.312 Q547.88 137.854 547.88 144.983 Q547.88 152.09 549.685 155.655 Q551.514 159.196 555.125 159.196 Q558.759 159.196 560.565 155.655 Q562.394 152.09 562.394 144.983 Q562.394 137.854 560.565 134.312 Q558.759 130.747 555.125 130.747 M555.125 127.044 Q560.935 127.044 563.991 131.65 Q567.07 136.233 567.07 144.983 Q567.07 153.71 563.991 158.317 Q560.935 162.9 555.125 162.9 Q549.315 162.9 546.236 158.317 Q543.181 153.71 543.181 144.983 Q543.181 136.233 546.236 131.65 Q549.315 127.044 555.125 127.044 Z" fill="#000000" fill-rule="nonzero" fill-opacity="1" /><path clip-path="url(#clip010)" d="M575.287 156.349 L580.171 156.349 L580.171 162.229 L575.287 162.229 L575.287 156.349 Z" fill="#000000" fill-rule="nonzero" fill-opacity="1" /><path clip-path="url(#clip010)" d="M591.167 158.293 L598.805 158.293 L598.805 131.928 L590.495 133.595 L590.495 129.335 L598.759 127.669 L603.435 127.669 L603.435 158.293 L611.074 158.293 L611.074 162.229 L591.167 162.229 L591.167 158.293 Z" fill="#000000" fill-rule="nonzero" fill-opacity="1" /><polyline clip-path="url(#clip010)" style="stroke:#1e88e5; stroke-linecap:round; stroke-linejoin:round; stroke-width:16; stroke-opacity:1; fill:none" points="272.215,196.789 417.369,196.789 "/>
<path clip-path="url(#clip010)" d="M458.528 202.008 L457.51 196.661 Q456.468 191.175 452.348 191.175 Q449.246 191.175 447.834 193.722 Q446.052 196.916 446.052 201.129 Q446.052 206.221 447.788 208.652 Q449.547 211.129 452.348 211.129 Q455.45 211.129 457.116 206.198 L458.528 202.008 M460.913 194.925 L463.204 188.143 L467.001 188.143 L462.255 202.194 L463.181 207.263 Q463.39 208.397 464.2 209.346 Q465.149 210.458 465.89 210.458 L467.927 210.458 L467.927 214.069 L465.38 214.069 Q463.204 214.069 461.26 212.124 Q460.311 211.152 459.917 209.115 Q458.853 211.684 456.677 213.698 Q455.658 214.647 452.348 214.647 Q446.908 214.647 444.269 211.129 Q441.561 207.495 441.561 201.129 Q441.561 194.323 444.501 191.129 Q447.765 187.564 452.348 187.564 Q459.547 187.564 460.913 194.925 Z" fill="#000000" fill-rule="nonzero" fill-opacity="1" /><path clip-path="url(#clip010)" d="M490.288 192.541 L519.963 192.541 L519.963 196.43 L490.288 196.43 L490.288 192.541 M490.288 201.985 L519.963 201.985 L519.963 205.921 L490.288 205.921 L490.288 201.985 Z" fill="#000000" fill-rule="nonzero" fill-opacity="1" /><path clip-path="url(#clip010)" d="M555.125 182.587 Q551.514 182.587 549.685 186.152 Q547.88 189.694 547.88 196.823 Q547.88 203.93 549.685 207.495 Q551.514 211.036 555.125 211.036 Q558.759 211.036 560.565 207.495 Q562.394 203.93 562.394 196.823 Q562.394 189.694 560.565 186.152 Q558.759 182.587 555.125 182.587 M555.125 178.884 Q560.935 178.884 563.991 183.49 Q567.07 188.073 567.07 196.823 Q567.07 205.55 563.991 210.157 Q560.935 214.74 555.125 214.74 Q549.315 214.74 546.236 210.157 Q543.181 205.55 543.181 196.823 Q543.181 188.073 546.236 183.49 Q549.315 178.884 555.125 178.884 Z" fill="#000000" fill-rule="nonzero" fill-opacity="1" /><path clip-path="url(#clip010)" d="M575.287 208.189 L580.171 208.189 L580.171 214.069 L575.287 214.069 L575.287 208.189 Z" fill="#000000" fill-rule="nonzero" fill-opacity="1" /><path clip-path="url(#clip010)" d="M594.384 210.133 L610.704 210.133 L610.704 214.069 L588.759 214.069 L588.759 210.133 Q591.421 207.379 596.005 202.749 Q600.611 198.096 601.792 196.754 Q604.037 194.231 604.917 192.495 Q605.819 190.735 605.819 189.046 Q605.819 186.291 603.875 184.555 Q601.954 182.819 598.852 182.819 Q596.653 182.819 594.199 183.583 Q591.768 184.347 588.991 185.897 L588.991 181.175 Q591.815 180.041 594.268 179.462 Q596.722 178.884 598.759 178.884 Q604.13 178.884 607.324 181.569 Q610.518 184.254 610.518 188.745 Q610.518 190.874 609.708 192.796 Q608.921 194.694 606.815 197.286 Q606.236 197.958 603.134 201.175 Q600.032 204.37 594.384 210.133 Z" fill="#000000" fill-rule="nonzero" fill-opacity="1" /><polyline clip-path="url(#clip010)" style="stroke:#ffc107; stroke-linecap:round; stroke-linejoin:round; stroke-width:16; stroke-opacity:1; fill:none" points="272.215,248.629 417.369,248.629 "/>
<path clip-path="url(#clip010)" d="M458.528 253.848 L457.51 248.501 Q456.468 243.015 452.348 243.015 Q449.246 243.015 447.834 245.562 Q446.052 248.756 446.052 252.969 Q446.052 258.061 447.788 260.492 Q449.547 262.969 452.348 262.969 Q455.45 262.969 457.116 258.038 L458.528 253.848 M460.913 246.765 L463.204 239.983 L467.001 239.983 L462.255 254.034 L463.181 259.103 Q463.39 260.237 464.2 261.186 Q465.149 262.298 465.89 262.298 L467.927 262.298 L467.927 265.909 L465.38 265.909 Q463.204 265.909 461.26 263.964 Q460.311 262.992 459.917 260.955 Q458.853 263.524 456.677 265.538 Q455.658 266.487 452.348 266.487 Q446.908 266.487 444.269 262.969 Q441.561 259.335 441.561 252.969 Q441.561 246.163 444.501 242.969 Q447.765 239.404 452.348 239.404 Q459.547 239.404 460.913 246.765 Z" fill="#000000" fill-rule="nonzero" fill-opacity="1" /><path clip-path="url(#clip010)" d="M490.288 244.381 L519.963 244.381 L519.963 248.27 L490.288 248.27 L490.288 244.381 M490.288 253.825 L519.963 253.825 L519.963 257.761 L490.288 257.761 L490.288 253.825 Z" fill="#000000" fill-rule="nonzero" fill-opacity="1" /><path clip-path="url(#clip010)" d="M555.125 234.427 Q551.514 234.427 549.685 237.992 Q547.88 241.534 547.88 248.663 Q547.88 255.77 549.685 259.335 Q551.514 262.876 555.125 262.876 Q558.759 262.876 560.565 259.335 Q562.394 255.77 562.394 248.663 Q562.394 241.534 560.565 237.992 Q558.759 234.427 555.125 234.427 M555.125 230.724 Q560.935 230.724 563.991 235.33 Q567.07 239.913 567.07 248.663 Q567.07 257.39 563.991 261.997 Q560.935 266.58 555.125 266.58 Q549.315 266.58 546.236 261.997 Q543.181 257.39 543.181 248.663 Q543.181 239.913 546.236 235.33 Q549.315 230.724 555.125 230.724 Z" fill="#000000" fill-rule="nonzero" fill-opacity="1" /><path clip-path="url(#clip010)" d="M575.287 260.029 L580.171 260.029 L580.171 265.909 L575.287 265.909 L575.287 260.029 Z" fill="#000000" fill-rule="nonzero" fill-opacity="1" /><path clip-path="url(#clip010)" d="M604.523 247.274 Q607.88 247.992 609.755 250.261 Q611.653 252.529 611.653 255.862 Q611.653 260.978 608.134 263.779 Q604.616 266.58 598.134 266.58 Q595.958 266.58 593.643 266.14 Q591.352 265.723 588.898 264.867 L588.898 260.353 Q590.843 261.487 593.157 262.066 Q595.472 262.645 597.995 262.645 Q602.393 262.645 604.685 260.909 Q607 259.173 607 255.862 Q607 252.807 604.847 251.094 Q602.718 249.358 598.898 249.358 L594.87 249.358 L594.87 245.515 L599.083 245.515 Q602.532 245.515 604.361 244.149 Q606.19 242.761 606.19 240.168 Q606.19 237.506 604.292 236.094 Q602.417 234.659 598.898 234.659 Q596.977 234.659 594.778 235.075 Q592.579 235.492 589.94 236.372 L589.94 232.205 Q592.602 231.464 594.917 231.094 Q597.255 230.724 599.315 230.724 Q604.639 230.724 607.741 233.154 Q610.842 235.562 610.842 239.682 Q610.842 242.552 609.199 244.543 Q607.555 246.511 604.523 247.274 Z" fill="#000000" fill-rule="nonzero" fill-opacity="1" /><polyline clip-path="url(#clip010)" style="stroke:#004d40; stroke-linecap:round; stroke-linejoin:round; stroke-width:16; stroke-opacity:1; fill:none" points="272.215,300.469 417.369,300.469 "/>
<path clip-path="url(#clip010)" d="M458.528 305.688 L457.51 300.341 Q456.468 294.855 452.348 294.855 Q449.246 294.855 447.834 297.402 Q446.052 300.596 446.052 304.809 Q446.052 309.901 447.788 312.332 Q449.547 314.809 452.348 314.809 Q455.45 314.809 457.116 309.878 L458.528 305.688 M460.913 298.605 L463.204 291.823 L467.001 291.823 L462.255 305.874 L463.181 310.943 Q463.39 312.077 464.2 313.026 Q465.149 314.138 465.89 314.138 L467.927 314.138 L467.927 317.749 L465.38 317.749 Q463.204 317.749 461.26 315.804 Q460.311 314.832 459.917 312.795 Q458.853 315.364 456.677 317.378 Q455.658 318.327 452.348 318.327 Q446.908 318.327 444.269 314.809 Q441.561 311.175 441.561 304.809 Q441.561 298.003 444.501 294.809 Q447.765 291.244 452.348 291.244 Q459.547 291.244 460.913 298.605 Z" fill="#000000" fill-rule="nonzero" fill-opacity="1" /><path clip-path="url(#clip010)" d="M490.288 296.221 L519.963 296.221 L519.963 300.11 L490.288 300.11 L490.288 296.221 M490.288 305.665 L519.963 305.665 L519.963 309.601 L490.288 309.601 L490.288 305.665 Z" fill="#000000" fill-rule="nonzero" fill-opacity="1" /><path clip-path="url(#clip010)" d="M555.125 286.267 Q551.514 286.267 549.685 289.832 Q547.88 293.374 547.88 300.503 Q547.88 307.61 549.685 311.175 Q551.514 314.716 555.125 314.716 Q558.759 314.716 560.565 311.175 Q562.394 307.61 562.394 300.503 Q562.394 293.374 560.565 289.832 Q558.759 286.267 555.125 286.267 M555.125 282.564 Q560.935 282.564 563.991 287.17 Q567.07 291.753 567.07 300.503 Q567.07 309.23 563.991 313.837 Q560.935 318.42 555.125 318.42 Q549.315 318.42 546.236 313.837 Q543.181 309.23 543.181 300.503 Q543.181 291.753 546.236 287.17 Q549.315 282.564 555.125 282.564 Z" fill="#000000" fill-rule="nonzero" fill-opacity="1" /><path clip-path="url(#clip010)" d="M575.287 311.869 L580.171 311.869 L580.171 317.749 L575.287 317.749 L575.287 311.869 Z" fill="#000000" fill-rule="nonzero" fill-opacity="1" /><path clip-path="url(#clip010)" d="M603.204 287.263 L591.398 305.712 L603.204 305.712 L603.204 287.263 M601.977 283.189 L607.856 283.189 L607.856 305.712 L612.787 305.712 L612.787 309.601 L607.856 309.601 L607.856 317.749 L603.204 317.749 L603.204 309.601 L587.602 309.601 L587.602 305.087 L601.977 283.189 Z" fill="#000000" fill-rule="nonzero" fill-opacity="1" /></svg>
