<?xml version="1.0" encoding="utf-8"?>
<svg xmlns="http://www.w3.org/2000/svg" xmlns:xlink="http://www.w3.org/1999/xlink" width="600" height="400" viewBox="0 0 2400 1600">
<defs>
  <clipPath id="clip830">
    <rect x="0" y="0" width="2400" height="1600"/>
  </clipPath>
</defs>
<path clip-path="url(#clip830)" d="M0 1600 L2400 1600 L2400 0 L0 0  Z" fill="#ffffff" fill-rule="evenodd" fill-opacity="1"/>
<defs>
  <clipPath id="clip831">
    <rect x="480" y="0" width="1681" height="1600"/>
  </clipPath>
</defs>
<path clip-path="url(#clip830)" d="M205.121 1423.18 L2352.76 1423.18 L2352.76 47.2441 L205.121 47.2441  Z" fill="#eee9e9" fill-rule="evenodd" fill-opacity="1"/>
<defs>
  <clipPath id="clip832">
    <rect x="205" y="47" width="2149" height="1377"/>
  </clipPath>
</defs>
<polyline clip-path="url(#clip832)" style="stroke:#000000; stroke-linecap:round; stroke-linejoin:round; stroke-width:2; stroke-opacity:0.1; fill:none" points="265.903,1423.18 265.903,47.2441 "/>
<polyline clip-path="url(#clip832)" style="stroke:#000000; stroke-linecap:round; stroke-linejoin:round; stroke-width:2; stroke-opacity:0.1; fill:none" points="772.421,1423.18 772.421,47.2441 "/>
<polyline clip-path="url(#clip832)" style="stroke:#000000; stroke-linecap:round; stroke-linejoin:round; stroke-width:2; stroke-opacity:0.1; fill:none" points="1278.94,1423.18 1278.94,47.2441 "/>
<polyline clip-path="url(#clip832)" style="stroke:#000000; stroke-linecap:round; stroke-linejoin:round; stroke-width:2; stroke-opacity:0.1; fill:none" points="1785.46,1423.18 1785.46,47.2441 "/>
<polyline clip-path="url(#clip832)" style="stroke:#000000; stroke-linecap:round; stroke-linejoin:round; stroke-width:2; stroke-opacity:0.1; fill:none" points="2291.97,1423.18 2291.97,47.2441 "/>
<polyline clip-path="url(#clip830)" style="stroke:#000000; stroke-linecap:round; stroke-linejoin:round; stroke-width:4; stroke-opacity:1; fill:none" points="205.121,1423.18 2352.76,1423.18 "/>
<polyline clip-path="url(#clip830)" style="stroke:#000000; stroke-linecap:round; stroke-linejoin:round; stroke-width:4; stroke-opacity:1; fill:none" points="205.121,47.2441 2352.76,47.2441 "/>
<polyline clip-path="url(#clip830)" style="stroke:#000000; stroke-linecap:round; stroke-linejoin:round; stroke-width:4; stroke-opacity:1; fill:none" points="265.903,1423.18 265.903,1404.28 "/>
<polyline clip-path="url(#clip830)" style="stroke:#000000; stroke-linecap:round; stroke-linejoin:round; stroke-width:4; stroke-opacity:1; fill:none" points="772.421,1423.18 772.421,1404.28 "/>
<polyline clip-path="url(#clip830)" style="stroke:#000000; stroke-linecap:round; stroke-linejoin:round; stroke-width:4; stroke-opacity:1; fill:none" points="1278.94,1423.18 1278.94,1404.28 "/>
<polyline clip-path="url(#clip830)" style="stroke:#000000; stroke-linecap:round; stroke-linejoin:round; stroke-width:4; stroke-opacity:1; fill:none" points="1785.46,1423.18 1785.46,1404.28 "/>
<polyline clip-path="url(#clip830)" style="stroke:#000000; stroke-linecap:round; stroke-linejoin:round; stroke-width:4; stroke-opacity:1; fill:none" points="2291.97,1423.18 2291.97,1404.28 "/>
<path clip-path="url(#clip830)" d="M265.903 1454.1 Q262.292 1454.1 260.463 1457.66 Q258.658 1461.2 258.658 1468.33 Q258.658 1475.44 260.463 1479.01 Q262.292 1482.55 265.903 1482.55 Q269.537 1482.55 271.343 1479.01 Q273.172 1475.44 273.172 1468.33 Q273.172 1461.2 271.343 1457.66 Q269.537 1454.1 265.903 1454.1 M265.903 1450.39 Q271.713 1450.39 274.769 1455 Q277.847 1459.58 277.847 1468.33 Q277.847 1477.06 274.769 1481.67 Q271.713 1486.25 265.903 1486.25 Q260.093 1486.25 257.014 1481.67 Q253.959 1477.06 253.959 1468.33 Q253.959 1459.58 257.014 1455 Q260.093 1450.39 265.903 1450.39 Z" fill="#000000" fill-rule="nonzero" fill-opacity="1" /><path clip-path="url(#clip830)" d="M751.692 1481.64 L768.011 1481.64 L768.011 1485.58 L746.067 1485.58 L746.067 1481.64 Q748.729 1478.89 753.312 1474.26 Q757.919 1469.61 759.099 1468.27 Q761.344 1465.74 762.224 1464.01 Q763.127 1462.25 763.127 1460.56 Q763.127 1457.8 761.182 1456.07 Q759.261 1454.33 756.159 1454.33 Q753.96 1454.33 751.507 1455.09 Q749.076 1455.86 746.298 1457.41 L746.298 1452.69 Q749.122 1451.55 751.576 1450.97 Q754.03 1450.39 756.067 1450.39 Q761.437 1450.39 764.631 1453.08 Q767.826 1455.77 767.826 1460.26 Q767.826 1462.39 767.016 1464.31 Q766.229 1466.2 764.122 1468.8 Q763.544 1469.47 760.442 1472.69 Q757.34 1475.88 751.692 1481.64 Z" fill="#000000" fill-rule="nonzero" fill-opacity="1" /><path clip-path="url(#clip830)" d="M777.872 1451.02 L796.229 1451.02 L796.229 1454.96 L782.155 1454.96 L782.155 1463.43 Q783.173 1463.08 784.192 1462.92 Q785.21 1462.73 786.229 1462.73 Q792.016 1462.73 795.395 1465.9 Q798.775 1469.08 798.775 1474.49 Q798.775 1480.07 795.303 1483.17 Q791.83 1486.25 785.511 1486.25 Q783.335 1486.25 781.067 1485.88 Q778.821 1485.51 776.414 1484.77 L776.414 1480.07 Q778.497 1481.2 780.719 1481.76 Q782.942 1482.32 785.418 1482.32 Q789.423 1482.32 791.761 1480.21 Q794.099 1478.1 794.099 1474.49 Q794.099 1470.88 791.761 1468.77 Q789.423 1466.67 785.418 1466.67 Q783.543 1466.67 781.668 1467.08 Q779.817 1467.5 777.872 1468.38 L777.872 1451.02 Z" fill="#000000" fill-rule="nonzero" fill-opacity="1" /><path clip-path="url(#clip830)" d="M1253.64 1451.02 L1271.99 1451.02 L1271.99 1454.96 L1257.92 1454.96 L1257.92 1463.43 Q1258.94 1463.08 1259.96 1462.92 Q1260.98 1462.73 1261.99 1462.73 Q1267.78 1462.73 1271.16 1465.9 Q1274.54 1469.08 1274.54 1474.49 Q1274.54 1480.07 1271.07 1483.17 Q1267.6 1486.25 1261.28 1486.25 Q1259.1 1486.25 1256.83 1485.88 Q1254.59 1485.51 1252.18 1484.77 L1252.18 1480.07 Q1254.26 1481.2 1256.48 1481.76 Q1258.71 1482.32 1261.18 1482.32 Q1265.19 1482.32 1267.53 1480.21 Q1269.86 1478.1 1269.86 1474.49 Q1269.86 1470.88 1267.53 1468.77 Q1265.19 1466.67 1261.18 1466.67 Q1259.31 1466.67 1257.43 1467.08 Q1255.58 1467.5 1253.64 1468.38 L1253.64 1451.02 Z" fill="#000000" fill-rule="nonzero" fill-opacity="1" /><path clip-path="url(#clip830)" d="M1293.75 1454.1 Q1290.14 1454.1 1288.31 1457.66 Q1286.51 1461.2 1286.51 1468.33 Q1286.51 1475.44 1288.31 1479.01 Q1290.14 1482.55 1293.75 1482.55 Q1297.39 1482.55 1299.19 1479.01 Q1301.02 1475.44 1301.02 1468.33 Q1301.02 1461.2 1299.19 1457.66 Q1297.39 1454.1 1293.75 1454.1 M1293.75 1450.39 Q1299.56 1450.39 1302.62 1455 Q1305.7 1459.58 1305.7 1468.33 Q1305.7 1477.06 1302.62 1481.67 Q1299.56 1486.25 1293.75 1486.25 Q1287.94 1486.25 1284.86 1481.67 Q1281.81 1477.06 1281.81 1468.33 Q1281.81 1459.58 1284.86 1455 Q1287.94 1450.39 1293.75 1450.39 Z" fill="#000000" fill-rule="nonzero" fill-opacity="1" /><path clip-path="url(#clip830)" d="M1759.31 1451.02 L1781.53 1451.02 L1781.53 1453.01 L1768.99 1485.58 L1764.1 1485.58 L1775.91 1454.96 L1759.31 1454.96 L1759.31 1451.02 Z" fill="#000000" fill-rule="nonzero" fill-opacity="1" /><path clip-path="url(#clip830)" d="M1790.7 1451.02 L1809.06 1451.02 L1809.06 1454.96 L1794.98 1454.96 L1794.98 1463.43 Q1796 1463.08 1797.02 1462.92 Q1798.04 1462.73 1799.06 1462.73 Q1804.84 1462.73 1808.22 1465.9 Q1811.6 1469.08 1811.6 1474.49 Q1811.6 1480.07 1808.13 1483.17 Q1804.66 1486.25 1798.34 1486.25 Q1796.16 1486.25 1793.89 1485.88 Q1791.65 1485.51 1789.24 1484.77 L1789.24 1480.07 Q1791.32 1481.2 1793.55 1481.76 Q1795.77 1482.32 1798.25 1482.32 Q1802.25 1482.32 1804.59 1480.21 Q1806.93 1478.1 1806.93 1474.49 Q1806.93 1470.88 1804.59 1468.77 Q1802.25 1466.67 1798.25 1466.67 Q1796.37 1466.67 1794.5 1467.08 Q1792.64 1467.5 1790.7 1468.38 L1790.7 1451.02 Z" fill="#000000" fill-rule="nonzero" fill-opacity="1" /><path clip-path="url(#clip830)" d="M2251.58 1481.64 L2259.22 1481.64 L2259.22 1455.28 L2250.91 1456.95 L2250.91 1452.69 L2259.17 1451.02 L2263.85 1451.02 L2263.85 1481.64 L2271.49 1481.64 L2271.49 1485.58 L2251.58 1485.58 L2251.58 1481.64 Z" fill="#000000" fill-rule="nonzero" fill-opacity="1" /><path clip-path="url(#clip830)" d="M2290.93 1454.1 Q2287.32 1454.1 2285.49 1457.66 Q2283.69 1461.2 2283.69 1468.33 Q2283.69 1475.44 2285.49 1479.01 Q2287.32 1482.55 2290.93 1482.55 Q2294.57 1482.55 2296.37 1479.01 Q2298.2 1475.44 2298.2 1468.33 Q2298.2 1461.2 2296.37 1457.66 Q2294.57 1454.1 2290.93 1454.1 M2290.93 1450.39 Q2296.74 1450.39 2299.8 1455 Q2302.88 1459.58 2302.88 1468.33 Q2302.88 1477.06 2299.8 1481.67 Q2296.74 1486.25 2290.93 1486.25 Q2285.12 1486.25 2282.04 1481.67 Q2278.99 1477.06 2278.99 1468.33 Q2278.99 1459.58 2282.04 1455 Q2285.12 1450.39 2290.93 1450.39 Z" fill="#000000" fill-rule="nonzero" fill-opacity="1" /><path clip-path="url(#clip830)" d="M2321.09 1454.1 Q2317.48 1454.1 2315.65 1457.66 Q2313.85 1461.2 2313.85 1468.33 Q2313.85 1475.44 2315.65 1479.01 Q2317.48 1482.55 2321.09 1482.55 Q2324.73 1482.55 2326.53 1479.01 Q2328.36 1475.44 2328.36 1468.33 Q2328.36 1461.2 2326.53 1457.66 Q2324.73 1454.1 2321.09 1454.1 M2321.09 1450.39 Q2326.9 1450.39 2329.96 1455 Q2333.04 1459.58 2333.04 1468.33 Q2333.04 1477.06 2329.96 1481.67 Q2326.9 1486.25 2321.09 1486.25 Q2315.28 1486.25 2312.21 1481.67 Q2309.15 1477.06 2309.15 1468.33 Q2309.15 1459.58 2312.21 1455 Q2315.28 1450.39 2321.09 1450.39 Z" fill="#000000" fill-rule="nonzero" fill-opacity="1" /><path clip-path="url(#clip830)" d="M911.351 1561.26 L911.351 1548.5 L900.847 1548.5 L900.847 1543.22 L917.716 1543.22 L917.716 1563.62 Q913.992 1566.26 909.505 1567.63 Q905.017 1568.97 899.924 1568.97 Q888.784 1568.97 882.482 1562.47 Q876.212 1555.95 876.212 1544.33 Q876.212 1532.68 882.482 1526.19 Q888.784 1519.66 899.924 1519.66 Q904.571 1519.66 908.741 1520.81 Q912.942 1521.96 916.475 1524.18 L916.475 1531.03 Q912.91 1528 908.9 1526.48 Q904.89 1524.95 900.465 1524.95 Q891.744 1524.95 887.352 1529.82 Q882.991 1534.69 882.991 1544.33 Q882.991 1553.94 887.352 1558.81 Q891.744 1563.68 900.465 1563.68 Q903.871 1563.68 906.545 1563.11 Q909.218 1562.51 911.351 1561.26 Z" fill="#000000" fill-rule="nonzero" fill-opacity="1" /><path clip-path="url(#clip830)" d="M943.02 1536.5 Q938.309 1536.5 935.572 1540.19 Q932.835 1543.85 932.835 1550.25 Q932.835 1556.65 935.54 1560.34 Q938.278 1564 943.02 1564 Q947.699 1564 950.436 1560.31 Q953.173 1556.62 953.173 1550.25 Q953.173 1543.92 950.436 1540.23 Q947.699 1536.5 943.02 1536.5 M943.02 1531.54 Q950.659 1531.54 955.019 1536.5 Q959.38 1541.47 959.38 1550.25 Q959.38 1559 955.019 1564 Q950.659 1568.97 943.02 1568.97 Q935.349 1568.97 930.989 1564 Q926.66 1559 926.66 1550.25 Q926.66 1541.47 930.989 1536.5 Q935.349 1531.54 943.02 1531.54 Z" fill="#000000" fill-rule="nonzero" fill-opacity="1" /><path clip-path="url(#clip830)" d="M982.901 1536.5 Q978.191 1536.5 975.453 1540.19 Q972.716 1543.85 972.716 1550.25 Q972.716 1556.65 975.422 1560.34 Q978.159 1564 982.901 1564 Q987.58 1564 990.317 1560.31 Q993.055 1556.62 993.055 1550.25 Q993.055 1543.92 990.317 1540.23 Q987.58 1536.5 982.901 1536.5 M982.901 1531.54 Q990.54 1531.54 994.901 1536.5 Q999.261 1541.47 999.261 1550.25 Q999.261 1559 994.901 1564 Q990.54 1568.97 982.901 1568.97 Q975.231 1568.97 970.87 1564 Q966.541 1559 966.541 1550.25 Q966.541 1541.47 970.87 1536.5 Q975.231 1531.54 982.901 1531.54 Z" fill="#000000" fill-rule="nonzero" fill-opacity="1" /><path clip-path="url(#clip830)" d="M1032.43 1537.81 L1032.43 1518.52 L1038.28 1518.52 L1038.28 1568.04 L1032.43 1568.04 L1032.43 1562.7 Q1030.58 1565.88 1027.75 1567.44 Q1024.95 1568.97 1021 1568.97 Q1014.54 1568.97 1010.46 1563.81 Q1006.42 1558.65 1006.42 1550.25 Q1006.42 1541.85 1010.46 1536.69 Q1014.54 1531.54 1021 1531.54 Q1024.95 1531.54 1027.75 1533.1 Q1030.58 1534.62 1032.43 1537.81 M1012.47 1550.25 Q1012.47 1556.71 1015.11 1560.4 Q1017.79 1564.07 1022.43 1564.07 Q1027.08 1564.07 1029.75 1560.4 Q1032.43 1556.71 1032.43 1550.25 Q1032.43 1543.79 1029.75 1540.13 Q1027.08 1536.44 1022.43 1536.44 Q1017.79 1536.44 1015.11 1540.13 Q1012.47 1543.79 1012.47 1550.25 Z" fill="#000000" fill-rule="nonzero" fill-opacity="1" /><path clip-path="url(#clip830)" d="M1084.88 1536.5 Q1080.17 1536.5 1077.43 1540.19 Q1074.69 1543.85 1074.69 1550.25 Q1074.69 1556.65 1077.4 1560.34 Q1080.14 1564 1084.88 1564 Q1089.56 1564 1092.3 1560.31 Q1095.03 1556.62 1095.03 1550.25 Q1095.03 1543.92 1092.3 1540.23 Q1089.56 1536.5 1084.88 1536.5 M1084.88 1531.54 Q1092.52 1531.54 1096.88 1536.5 Q1101.24 1541.47 1101.24 1550.25 Q1101.24 1559 1096.88 1564 Q1092.52 1568.97 1084.88 1568.97 Q1077.21 1568.97 1072.85 1564 Q1068.52 1559 1068.52 1550.25 Q1068.52 1541.47 1072.85 1536.5 Q1077.21 1531.54 1084.88 1531.54 Z" fill="#000000" fill-rule="nonzero" fill-opacity="1" /><path clip-path="url(#clip830)" d="M1131.6 1537.87 Q1130.62 1537.3 1129.44 1537.04 Q1128.29 1536.76 1126.89 1536.76 Q1121.93 1536.76 1119.25 1540 Q1116.61 1543.22 1116.61 1549.27 L1116.61 1568.04 L1110.72 1568.04 L1110.72 1532.4 L1116.61 1532.4 L1116.61 1537.93 Q1118.46 1534.69 1121.42 1533.13 Q1124.38 1531.54 1128.61 1531.54 Q1129.22 1531.54 1129.95 1531.63 Q1130.68 1531.7 1131.57 1531.85 L1131.6 1537.87 Z" fill="#000000" fill-rule="nonzero" fill-opacity="1" /><path clip-path="url(#clip830)" d="M1187.21 1522.08 L1187.21 1528.35 Q1183.55 1526.6 1180.3 1525.74 Q1177.06 1524.88 1174.03 1524.88 Q1168.78 1524.88 1165.92 1526.92 Q1163.08 1528.96 1163.08 1532.71 Q1163.08 1535.87 1164.96 1537.49 Q1166.87 1539.08 1172.15 1540.07 L1176.04 1540.86 Q1183.23 1542.23 1186.64 1545.7 Q1190.07 1549.14 1190.07 1554.93 Q1190.07 1561.84 1185.43 1565.4 Q1180.81 1568.97 1171.87 1568.97 Q1168.49 1568.97 1164.67 1568.2 Q1160.89 1567.44 1156.81 1565.94 L1156.81 1559.32 Q1160.73 1561.52 1164.48 1562.63 Q1168.24 1563.75 1171.87 1563.75 Q1177.37 1563.75 1180.37 1561.58 Q1183.36 1559.42 1183.36 1555.41 Q1183.36 1551.91 1181.19 1549.93 Q1179.06 1547.96 1174.16 1546.97 L1170.24 1546.21 Q1163.05 1544.78 1159.84 1541.72 Q1156.62 1538.67 1156.62 1533.22 Q1156.62 1526.92 1161.05 1523.29 Q1165.5 1519.66 1173.3 1519.66 Q1176.64 1519.66 1180.11 1520.27 Q1183.58 1520.87 1187.21 1522.08 Z" fill="#000000" fill-rule="nonzero" fill-opacity="1" /><path clip-path="url(#clip830)" d="M1230.34 1548.76 L1230.34 1551.62 L1203.41 1551.62 Q1203.79 1557.67 1207.04 1560.85 Q1210.32 1564 1216.14 1564 Q1219.51 1564 1222.67 1563.17 Q1225.85 1562.35 1228.97 1560.69 L1228.97 1566.23 Q1225.82 1567.57 1222.51 1568.27 Q1219.2 1568.97 1215.79 1568.97 Q1207.26 1568.97 1202.26 1564 Q1197.3 1559.04 1197.3 1550.57 Q1197.3 1541.82 1202.01 1536.69 Q1206.75 1531.54 1214.77 1531.54 Q1221.97 1531.54 1226.13 1536.18 Q1230.34 1540.8 1230.34 1548.76 M1224.48 1547.04 Q1224.42 1542.23 1221.77 1539.37 Q1219.16 1536.5 1214.84 1536.5 Q1209.93 1536.5 1206.97 1539.27 Q1204.05 1542.04 1203.6 1547.07 L1224.48 1547.04 Z" fill="#000000" fill-rule="nonzero" fill-opacity="1" /><path clip-path="url(#clip830)" d="M1260.61 1537.87 Q1259.62 1537.3 1258.44 1537.04 Q1257.3 1536.76 1255.89 1536.76 Q1250.93 1536.76 1248.26 1540 Q1245.61 1543.22 1245.61 1549.27 L1245.61 1568.04 L1239.73 1568.04 L1239.73 1532.4 L1245.61 1532.4 L1245.61 1537.93 Q1247.46 1534.69 1250.42 1533.13 Q1253.38 1531.54 1257.61 1531.54 Q1258.22 1531.54 1258.95 1531.63 Q1259.68 1531.7 1260.57 1531.85 L1260.61 1537.87 Z" fill="#000000" fill-rule="nonzero" fill-opacity="1" /><path clip-path="url(#clip830)" d="M1262.55 1532.4 L1268.75 1532.4 L1279.89 1562.31 L1291.03 1532.4 L1297.24 1532.4 L1283.87 1568.04 L1275.91 1568.04 L1262.55 1532.4 Z" fill="#000000" fill-rule="nonzero" fill-opacity="1" /><path clip-path="url(#clip830)" d="M1305.32 1532.4 L1311.18 1532.4 L1311.18 1568.04 L1305.32 1568.04 L1305.32 1532.4 M1305.32 1518.52 L1311.18 1518.52 L1311.18 1525.93 L1305.32 1525.93 L1305.32 1518.52 Z" fill="#000000" fill-rule="nonzero" fill-opacity="1" /><path clip-path="url(#clip830)" d="M1349.09 1533.76 L1349.09 1539.24 Q1346.61 1537.87 1344.09 1537.2 Q1341.61 1536.5 1339.06 1536.5 Q1333.37 1536.5 1330.21 1540.13 Q1327.06 1543.73 1327.06 1550.25 Q1327.06 1556.78 1330.21 1560.4 Q1333.37 1564 1339.06 1564 Q1341.61 1564 1344.09 1563.33 Q1346.61 1562.63 1349.09 1561.26 L1349.09 1566.68 Q1346.64 1567.82 1344 1568.39 Q1341.39 1568.97 1338.43 1568.97 Q1330.37 1568.97 1325.63 1563.91 Q1320.89 1558.85 1320.89 1550.25 Q1320.89 1541.53 1325.66 1536.53 Q1330.47 1531.54 1338.81 1531.54 Q1341.51 1531.54 1344.09 1532.11 Q1346.67 1532.65 1349.09 1533.76 Z" fill="#000000" fill-rule="nonzero" fill-opacity="1" /><path clip-path="url(#clip830)" d="M1389.77 1548.76 L1389.77 1551.62 L1362.84 1551.62 Q1363.22 1557.67 1366.47 1560.85 Q1369.75 1564 1375.57 1564 Q1378.94 1564 1382.09 1563.17 Q1385.28 1562.35 1388.4 1560.69 L1388.4 1566.23 Q1385.25 1567.57 1381.94 1568.27 Q1378.63 1568.97 1375.22 1568.97 Q1366.69 1568.97 1361.69 1564 Q1356.73 1559.04 1356.73 1550.57 Q1356.73 1541.82 1361.44 1536.69 Q1366.18 1531.54 1374.2 1531.54 Q1381.39 1531.54 1385.56 1536.18 Q1389.77 1540.8 1389.77 1548.76 M1383.91 1547.04 Q1383.85 1542.23 1381.2 1539.37 Q1378.59 1536.5 1374.26 1536.5 Q1369.36 1536.5 1366.4 1539.27 Q1363.48 1542.04 1363.03 1547.07 L1383.91 1547.04 Z" fill="#000000" fill-rule="nonzero" fill-opacity="1" /><path clip-path="url(#clip830)" d="M1422.04 1562.63 L1432.54 1562.63 L1432.54 1526.38 L1421.12 1528.67 L1421.12 1522.82 L1432.48 1520.52 L1438.91 1520.52 L1438.91 1562.63 L1449.41 1562.63 L1449.41 1568.04 L1422.04 1568.04 L1422.04 1562.63 Z" fill="#000000" fill-rule="nonzero" fill-opacity="1" /><path clip-path="url(#clip830)" d="M1496.36 1518.58 Q1492.09 1525.9 1490.03 1533.06 Q1487.96 1540.23 1487.96 1547.58 Q1487.96 1554.93 1490.03 1562.16 Q1492.13 1569.35 1496.36 1576.64 L1491.27 1576.64 Q1486.49 1569.16 1484.11 1561.93 Q1481.75 1554.71 1481.75 1547.58 Q1481.75 1540.48 1484.11 1533.29 Q1486.46 1526.09 1491.27 1518.58 L1496.36 1518.58 Z" fill="#000000" fill-rule="nonzero" fill-opacity="1" /><path clip-path="url(#clip830)" d="M1507.12 1553.98 L1507.12 1532.4 L1512.97 1532.4 L1512.97 1553.75 Q1512.97 1558.81 1514.95 1561.36 Q1516.92 1563.87 1520.87 1563.87 Q1525.61 1563.87 1528.35 1560.85 Q1531.12 1557.83 1531.12 1552.61 L1531.12 1532.4 L1536.97 1532.4 L1536.97 1568.04 L1531.12 1568.04 L1531.12 1562.57 Q1528.98 1565.82 1526.15 1567.41 Q1523.35 1568.97 1519.63 1568.97 Q1513.48 1568.97 1510.3 1565.15 Q1507.12 1561.33 1507.12 1553.98 M1521.85 1531.54 L1521.85 1531.54 Z" fill="#000000" fill-rule="nonzero" fill-opacity="1" /><path clip-path="url(#clip830)" d="M1578.67 1546.53 L1578.67 1568.04 L1572.81 1568.04 L1572.81 1546.72 Q1572.81 1541.66 1570.84 1539.14 Q1568.86 1536.63 1564.92 1536.63 Q1560.18 1536.63 1557.44 1539.65 Q1554.7 1542.68 1554.7 1547.9 L1554.7 1568.04 L1548.81 1568.04 L1548.81 1532.4 L1554.7 1532.4 L1554.7 1537.93 Q1556.8 1534.72 1559.63 1533.13 Q1562.5 1531.54 1566.22 1531.54 Q1572.37 1531.54 1575.52 1535.36 Q1578.67 1539.14 1578.67 1546.53 Z" fill="#000000" fill-rule="nonzero" fill-opacity="1" /><path clip-path="url(#clip830)" d="M1590.35 1532.4 L1596.21 1532.4 L1596.21 1568.04 L1590.35 1568.04 L1590.35 1532.4 M1590.35 1518.52 L1596.21 1518.52 L1596.21 1525.93 L1590.35 1525.93 L1590.35 1518.52 Z" fill="#000000" fill-rule="nonzero" fill-opacity="1" /><path clip-path="url(#clip830)" d="M1614.25 1522.27 L1614.25 1532.4 L1626.32 1532.4 L1626.32 1536.95 L1614.25 1536.95 L1614.25 1556.3 Q1614.25 1560.66 1615.43 1561.9 Q1616.64 1563.14 1620.3 1563.14 L1626.32 1563.14 L1626.32 1568.04 L1620.3 1568.04 Q1613.52 1568.04 1610.94 1565.53 Q1608.36 1562.98 1608.36 1556.3 L1608.36 1536.95 L1604.07 1536.95 L1604.07 1532.4 L1608.36 1532.4 L1608.36 1522.27 L1614.25 1522.27 Z" fill="#000000" fill-rule="nonzero" fill-opacity="1" /><path clip-path="url(#clip830)" d="M1656.74 1533.45 L1656.74 1538.98 Q1654.26 1537.71 1651.59 1537.07 Q1648.91 1536.44 1646.05 1536.44 Q1641.69 1536.44 1639.49 1537.77 Q1637.33 1539.11 1637.33 1541.79 Q1637.33 1543.82 1638.89 1545 Q1640.45 1546.15 1645.16 1547.2 L1647.16 1547.64 Q1653.4 1548.98 1656.01 1551.43 Q1658.65 1553.85 1658.65 1558.21 Q1658.65 1563.17 1654.71 1566.07 Q1650.79 1568.97 1643.92 1568.97 Q1641.05 1568.97 1637.93 1568.39 Q1634.85 1567.85 1631.41 1566.74 L1631.41 1560.69 Q1634.65 1562.38 1637.81 1563.24 Q1640.96 1564.07 1644.04 1564.07 Q1648.18 1564.07 1650.41 1562.66 Q1652.64 1561.23 1652.64 1558.65 Q1652.64 1556.27 1651.01 1554.99 Q1649.42 1553.72 1643.98 1552.54 L1641.94 1552.07 Q1636.5 1550.92 1634.08 1548.56 Q1631.66 1546.18 1631.66 1542.04 Q1631.66 1537.01 1635.23 1534.27 Q1638.79 1531.54 1645.35 1531.54 Q1648.6 1531.54 1651.46 1532.01 Q1654.32 1532.49 1656.74 1533.45 Z" fill="#000000" fill-rule="nonzero" fill-opacity="1" /><path clip-path="url(#clip830)" d="M1667.06 1518.58 L1672.15 1518.58 Q1676.92 1526.09 1679.28 1533.29 Q1681.66 1540.48 1681.66 1547.58 Q1681.66 1554.71 1679.28 1561.93 Q1676.92 1569.16 1672.15 1576.64 L1667.06 1576.64 Q1671.29 1569.35 1673.36 1562.16 Q1675.46 1554.93 1675.46 1547.58 Q1675.46 1540.23 1673.36 1533.06 Q1671.29 1525.9 1667.06 1518.58 Z" fill="#000000" fill-rule="nonzero" fill-opacity="1" /><polyline clip-path="url(#clip832)" style="stroke:#000000; stroke-linecap:round; stroke-linejoin:round; stroke-width:2; stroke-opacity:0.1; fill:none" points="205.121,1384.24 2352.76,1384.24 "/>
<polyline clip-path="url(#clip832)" style="stroke:#000000; stroke-linecap:round; stroke-linejoin:round; stroke-width:2; stroke-opacity:0.1; fill:none" points="205.121,1059.73 2352.76,1059.73 "/>
<polyline clip-path="url(#clip832)" style="stroke:#000000; stroke-linecap:round; stroke-linejoin:round; stroke-width:2; stroke-opacity:0.1; fill:none" points="205.121,735.212 2352.76,735.212 "/>
<polyline clip-path="url(#clip832)" style="stroke:#000000; stroke-linecap:round; stroke-linejoin:round; stroke-width:2; stroke-opacity:0.1; fill:none" points="205.121,410.699 2352.76,410.699 "/>
<polyline clip-path="url(#clip832)" style="stroke:#000000; stroke-linecap:round; stroke-linejoin:round; stroke-width:2; stroke-opacity:0.1; fill:none" points="205.121,86.1857 2352.76,86.1857 "/>
<polyline clip-path="url(#clip830)" style="stroke:#000000; stroke-linecap:round; stroke-linejoin:round; stroke-width:4; stroke-opacity:1; fill:none" points="205.121,1423.18 205.121,47.2441 "/>
<polyline clip-path="url(#clip830)" style="stroke:#000000; stroke-linecap:round; stroke-linejoin:round; stroke-width:4; stroke-opacity:1; fill:none" points="2352.76,1423.18 2352.76,47.2441 "/>
<polyline clip-path="url(#clip830)" style="stroke:#000000; stroke-linecap:round; stroke-linejoin:round; stroke-width:4; stroke-opacity:1; fill:none" points="205.121,1384.24 224.019,1384.24 "/>
<polyline clip-path="url(#clip830)" style="stroke:#000000; stroke-linecap:round; stroke-linejoin:round; stroke-width:4; stroke-opacity:1; fill:none" points="205.121,1059.73 224.019,1059.73 "/>
<polyline clip-path="url(#clip830)" style="stroke:#000000; stroke-linecap:round; stroke-linejoin:round; stroke-width:4; stroke-opacity:1; fill:none" points="205.121,735.212 224.019,735.212 "/>
<polyline clip-path="url(#clip830)" style="stroke:#000000; stroke-linecap:round; stroke-linejoin:round; stroke-width:4; stroke-opacity:1; fill:none" points="205.121,410.699 224.019,410.699 "/>
<polyline clip-path="url(#clip830)" style="stroke:#000000; stroke-linecap:round; stroke-linejoin:round; stroke-width:4; stroke-opacity:1; fill:none" points="205.121,86.1857 224.019,86.1857 "/>
<path clip-path="url(#clip830)" d="M157.177 1370.04 Q153.566 1370.04 151.737 1373.6 Q149.931 1377.14 149.931 1384.27 Q149.931 1391.38 151.737 1394.94 Q153.566 1398.49 157.177 1398.49 Q160.811 1398.49 162.616 1394.94 Q164.445 1391.38 164.445 1384.27 Q164.445 1377.14 162.616 1373.6 Q160.811 1370.04 157.177 1370.04 M157.177 1366.33 Q162.987 1366.33 166.042 1370.94 Q169.121 1375.52 169.121 1384.27 Q169.121 1393 166.042 1397.61 Q162.987 1402.19 157.177 1402.19 Q151.366 1402.19 148.288 1397.61 Q145.232 1393 145.232 1384.27 Q145.232 1375.52 148.288 1370.94 Q151.366 1366.33 157.177 1366.33 Z" fill="#000000" fill-rule="nonzero" fill-opacity="1" /><path clip-path="url(#clip830)" d="M117.825 1073.07 L125.464 1073.07 L125.464 1046.7 L117.154 1048.37 L117.154 1044.11 L125.418 1042.45 L130.093 1042.45 L130.093 1073.07 L137.732 1073.07 L137.732 1077.01 L117.825 1077.01 L117.825 1073.07 Z" fill="#000000" fill-rule="nonzero" fill-opacity="1" /><path clip-path="url(#clip830)" d="M157.177 1045.52 Q153.566 1045.52 151.737 1049.09 Q149.931 1052.63 149.931 1059.76 Q149.931 1066.87 151.737 1070.43 Q153.566 1073.97 157.177 1073.97 Q160.811 1073.97 162.616 1070.43 Q164.445 1066.87 164.445 1059.76 Q164.445 1052.63 162.616 1049.09 Q160.811 1045.52 157.177 1045.52 M157.177 1041.82 Q162.987 1041.82 166.042 1046.43 Q169.121 1051.01 169.121 1059.76 Q169.121 1068.49 166.042 1073.09 Q162.987 1077.68 157.177 1077.68 Q151.366 1077.68 148.288 1073.09 Q145.232 1068.49 145.232 1059.76 Q145.232 1051.01 148.288 1046.43 Q151.366 1041.82 157.177 1041.82 Z" fill="#000000" fill-rule="nonzero" fill-opacity="1" /><path clip-path="url(#clip830)" d="M121.043 748.557 L137.362 748.557 L137.362 752.492 L115.418 752.492 L115.418 748.557 Q118.08 745.802 122.663 741.173 Q127.269 736.52 128.45 735.177 Q130.695 732.654 131.575 730.918 Q132.478 729.159 132.478 727.469 Q132.478 724.714 130.533 722.978 Q128.612 721.242 125.51 721.242 Q123.311 721.242 120.857 722.006 Q118.427 722.77 115.649 724.321 L115.649 719.599 Q118.473 718.464 120.927 717.886 Q123.38 717.307 125.418 717.307 Q130.788 717.307 133.982 719.992 Q137.177 722.677 137.177 727.168 Q137.177 729.298 136.367 731.219 Q135.579 733.117 133.473 735.71 Q132.894 736.381 129.792 739.599 Q126.691 742.793 121.043 748.557 Z" fill="#000000" fill-rule="nonzero" fill-opacity="1" /><path clip-path="url(#clip830)" d="M157.177 721.011 Q153.566 721.011 151.737 724.575 Q149.931 728.117 149.931 735.247 Q149.931 742.353 151.737 745.918 Q153.566 749.46 157.177 749.46 Q160.811 749.46 162.616 745.918 Q164.445 742.353 164.445 735.247 Q164.445 728.117 162.616 724.575 Q160.811 721.011 157.177 721.011 M157.177 717.307 Q162.987 717.307 166.042 721.913 Q169.121 726.497 169.121 735.247 Q169.121 743.973 166.042 748.58 Q162.987 753.163 157.177 753.163 Q151.366 753.163 148.288 748.58 Q145.232 743.973 145.232 735.247 Q145.232 726.497 148.288 721.913 Q151.366 717.307 157.177 717.307 Z" fill="#000000" fill-rule="nonzero" fill-opacity="1" /><path clip-path="url(#clip830)" d="M131.181 409.345 Q134.538 410.062 136.413 412.331 Q138.311 414.599 138.311 417.933 Q138.311 423.048 134.792 425.849 Q131.274 428.65 124.793 428.65 Q122.617 428.65 120.302 428.21 Q118.01 427.794 115.556 426.937 L115.556 422.423 Q117.501 423.558 119.816 424.136 Q122.13 424.715 124.654 424.715 Q129.052 424.715 131.343 422.979 Q133.658 421.243 133.658 417.933 Q133.658 414.877 131.505 413.164 Q129.376 411.428 125.556 411.428 L121.529 411.428 L121.529 407.585 L125.742 407.585 Q129.191 407.585 131.019 406.22 Q132.848 404.831 132.848 402.238 Q132.848 399.576 130.95 398.164 Q129.075 396.729 125.556 396.729 Q123.635 396.729 121.436 397.146 Q119.237 397.562 116.598 398.442 L116.598 394.275 Q119.26 393.535 121.575 393.164 Q123.913 392.794 125.973 392.794 Q131.297 392.794 134.399 395.224 Q137.501 397.632 137.501 401.752 Q137.501 404.622 135.857 406.613 Q134.214 408.581 131.181 409.345 Z" fill="#000000" fill-rule="nonzero" fill-opacity="1" /><path clip-path="url(#clip830)" d="M157.177 396.498 Q153.566 396.498 151.737 400.062 Q149.931 403.604 149.931 410.734 Q149.931 417.84 151.737 421.405 Q153.566 424.946 157.177 424.946 Q160.811 424.946 162.616 421.405 Q164.445 417.84 164.445 410.734 Q164.445 403.604 162.616 400.062 Q160.811 396.498 157.177 396.498 M157.177 392.794 Q162.987 392.794 166.042 397.4 Q169.121 401.984 169.121 410.734 Q169.121 419.46 166.042 424.067 Q162.987 428.65 157.177 428.65 Q151.366 428.65 148.288 424.067 Q145.232 419.46 145.232 410.734 Q145.232 401.984 148.288 397.4 Q151.366 392.794 157.177 392.794 Z" fill="#000000" fill-rule="nonzero" fill-opacity="1" /><path clip-path="url(#clip830)" d="M129.862 72.9797 L118.056 91.4287 L129.862 91.4287 L129.862 72.9797 M128.635 68.9057 L134.515 68.9057 L134.515 91.4287 L139.445 91.4287 L139.445 95.3176 L134.515 95.3176 L134.515 103.466 L129.862 103.466 L129.862 95.3176 L114.26 95.3176 L114.26 90.8037 L128.635 68.9057 Z" fill="#000000" fill-rule="nonzero" fill-opacity="1" /><path clip-path="url(#clip830)" d="M157.177 71.9844 Q153.566 71.9844 151.737 75.5492 Q149.931 79.0908 149.931 86.2204 Q149.931 93.3268 151.737 96.8916 Q153.566 100.433 157.177 100.433 Q160.811 100.433 162.616 96.8916 Q164.445 93.3268 164.445 86.2204 Q164.445 79.0908 162.616 75.5492 Q160.811 71.9844 157.177 71.9844 M157.177 68.2807 Q162.987 68.2807 166.042 72.8871 Q169.121 77.4704 169.121 86.2204 Q169.121 94.9472 166.042 99.5537 Q162.987 104.137 157.177 104.137 Q151.366 104.137 148.288 99.5537 Q145.232 94.9472 145.232 86.2204 Q145.232 77.4704 148.288 72.8871 Q151.366 68.2807 157.177 68.2807 Z" fill="#000000" fill-rule="nonzero" fill-opacity="1" /><path clip-path="url(#clip830)" d="M16.4842 929.764 L16.4842 923.303 L45.3526 923.303 Q52.9915 923.303 56.3653 920.534 Q59.7073 917.765 59.7073 911.558 Q59.7073 905.383 56.3653 902.614 Q52.9915 899.845 45.3526 899.845 L16.4842 899.845 L16.4842 893.384 L46.1484 893.384 Q55.4423 893.384 60.1847 897.999 Q64.9272 902.582 64.9272 911.558 Q64.9272 920.565 60.1847 925.181 Q55.4423 929.764 46.1484 929.764 L16.4842 929.764 Z" fill="#000000" fill-rule="nonzero" fill-opacity="1" /><path clip-path="url(#clip830)" d="M18.2347 875.783 L28.3562 875.783 L28.3562 863.72 L32.9077 863.72 L32.9077 875.783 L52.2594 875.783 Q56.6199 875.783 57.8613 874.605 Q59.1026 873.396 59.1026 869.735 L59.1026 863.72 L64.0042 863.72 L64.0042 869.735 Q64.0042 876.515 61.4897 879.093 Q58.9434 881.671 52.2594 881.671 L32.9077 881.671 L32.9077 885.968 L28.3562 885.968 L28.3562 881.671 L18.2347 881.671 L18.2347 875.783 Z" fill="#000000" fill-rule="nonzero" fill-opacity="1" /><path clip-path="url(#clip830)" d="M28.3562 856.017 L28.3562 850.161 L64.0042 850.161 L64.0042 856.017 L28.3562 856.017 M14.479 856.017 L14.479 850.161 L21.895 850.161 L21.895 856.017 L14.479 856.017 Z" fill="#000000" fill-rule="nonzero" fill-opacity="1" /><path clip-path="url(#clip830)" d="M14.479 837.907 L14.479 832.05 L64.0042 832.05 L64.0042 837.907 L14.479 837.907 Z" fill="#000000" fill-rule="nonzero" fill-opacity="1" /><path clip-path="url(#clip830)" d="M28.3562 819.796 L28.3562 813.94 L64.0042 813.94 L64.0042 819.796 L28.3562 819.796 M14.479 819.796 L14.479 813.94 L21.895 813.94 L21.895 819.796 L14.479 819.796 Z" fill="#000000" fill-rule="nonzero" fill-opacity="1" /><path clip-path="url(#clip830)" d="M18.2347 795.893 L28.3562 795.893 L28.3562 783.83 L32.9077 783.83 L32.9077 795.893 L52.2594 795.893 Q56.6199 795.893 57.8613 794.715 Q59.1026 793.506 59.1026 789.846 L59.1026 783.83 L64.0042 783.83 L64.0042 789.846 Q64.0042 796.625 61.4897 799.203 Q58.9434 801.781 52.2594 801.781 L32.9077 801.781 L32.9077 806.078 L28.3562 806.078 L28.3562 801.781 L18.2347 801.781 L18.2347 795.893 Z" fill="#000000" fill-rule="nonzero" fill-opacity="1" /><path clip-path="url(#clip830)" d="M67.3143 761.295 Q73.68 763.778 75.6216 766.133 Q77.5631 768.489 77.5631 772.435 L77.5631 777.114 L72.6615 777.114 L72.6615 773.677 Q72.6615 771.258 71.5157 769.921 Q70.3699 768.584 66.1048 766.961 L63.4312 765.911 L28.3562 780.329 L28.3562 774.122 L56.238 762.982 L28.3562 751.842 L28.3562 745.636 L67.3143 761.295 Z" fill="#000000" fill-rule="nonzero" fill-opacity="1" /><path clip-path="url(#clip830)" d="M14.5426 702.763 Q21.8632 707.028 29.0246 709.097 Q36.186 711.166 43.5384 711.166 Q50.8908 711.166 58.1159 709.097 Q65.3091 706.996 72.5979 702.763 L72.5979 707.855 Q65.1182 712.63 57.8931 715.017 Q50.668 717.372 43.5384 717.372 Q36.4406 717.372 29.2474 715.017 Q22.0542 712.661 14.5426 707.855 L14.5426 702.763 Z" fill="#000000" fill-rule="nonzero" fill-opacity="1" /><path clip-path="url(#clip830)" d="M49.9359 692.005 L28.3562 692.005 L28.3562 686.148 L49.7131 686.148 Q54.7739 686.148 57.3202 684.175 Q59.8346 682.202 59.8346 678.255 Q59.8346 673.512 56.8109 670.775 Q53.7872 668.006 48.5673 668.006 L28.3562 668.006 L28.3562 662.15 L64.0042 662.15 L64.0042 668.006 L58.5296 668.006 Q61.7762 670.139 63.3676 672.971 Q64.9272 675.772 64.9272 679.496 Q64.9272 685.639 61.1078 688.822 Q57.2883 692.005 49.9359 692.005 M27.4968 677.268 L27.4968 677.268 Z" fill="#000000" fill-rule="nonzero" fill-opacity="1" /><path clip-path="url(#clip830)" d="M18.2347 644.294 L28.3562 644.294 L28.3562 632.231 L32.9077 632.231 L32.9077 644.294 L52.2594 644.294 Q56.6199 644.294 57.8613 643.116 Q59.1026 641.907 59.1026 638.246 L59.1026 632.231 L64.0042 632.231 L64.0042 638.246 Q64.0042 645.026 61.4897 647.604 Q58.9434 650.182 52.2594 650.182 L32.9077 650.182 L32.9077 654.479 L28.3562 654.479 L28.3562 650.182 L18.2347 650.182 L18.2347 644.294 Z" fill="#000000" fill-rule="nonzero" fill-opacity="1" /><path clip-path="url(#clip830)" d="M28.3562 624.528 L28.3562 618.672 L64.0042 618.672 L64.0042 624.528 L28.3562 624.528 M14.479 624.528 L14.479 618.672 L21.895 618.672 L21.895 624.528 L14.479 624.528 Z" fill="#000000" fill-rule="nonzero" fill-opacity="1" /><path clip-path="url(#clip830)" d="M14.479 606.418 L14.479 600.561 L64.0042 600.561 L64.0042 606.418 L14.479 606.418 Z" fill="#000000" fill-rule="nonzero" fill-opacity="1" /><path clip-path="url(#clip830)" d="M29.4065 565.582 L34.9447 565.582 Q33.6716 568.064 33.035 570.738 Q32.3984 573.412 32.3984 576.276 Q32.3984 580.637 33.7352 582.833 Q35.072 584.997 37.7456 584.997 Q39.7826 584.997 40.9603 583.438 Q42.1061 581.878 43.1565 577.167 L43.6021 575.162 Q44.9389 568.924 47.3897 566.314 Q49.8086 563.672 54.1691 563.672 Q59.1344 563.672 62.0308 567.619 Q64.9272 571.534 64.9272 578.409 Q64.9272 581.273 64.3543 584.392 Q63.8132 587.48 62.6992 590.917 L56.6518 590.917 Q58.3387 587.671 59.198 584.52 Q60.0256 581.369 60.0256 578.281 Q60.0256 574.144 58.6251 571.916 Q57.1929 569.688 54.6147 569.688 Q52.2276 569.688 50.9545 571.311 Q49.6813 572.902 48.5037 578.345 L48.0262 580.382 Q46.8804 585.825 44.5251 588.244 Q42.138 590.663 38.0002 590.663 Q32.9713 590.663 30.2341 587.098 Q27.4968 583.533 27.4968 576.976 Q27.4968 573.73 27.9743 570.865 Q28.4517 568.001 29.4065 565.582 Z" fill="#000000" fill-rule="nonzero" fill-opacity="1" /><path clip-path="url(#clip830)" d="M14.5426 555.269 L14.5426 550.177 Q22.0542 545.403 29.2474 543.047 Q36.4406 540.66 43.5384 540.66 Q50.668 540.66 57.8931 543.047 Q65.1182 545.403 72.5979 550.177 L72.5979 555.269 Q65.3091 551.036 58.1159 548.967 Q50.8908 546.867 43.5384 546.867 Q36.186 546.867 29.0246 548.967 Q21.8632 551.036 14.5426 555.269 Z" fill="#000000" fill-rule="nonzero" fill-opacity="1" /><polyline clip-path="url(#clip832)" style="stroke:#d81b60; stroke-linecap:round; stroke-linejoin:round; stroke-width:16; stroke-opacity:1; fill:none" points="265.903,1384.24 286.164,1380.99 306.425,1377.75 326.685,1374.5 346.946,1371.26 367.207,1368.01 387.467,1364.77 407.728,1361.52 427.989,1358.28 448.249,1355.03 468.51,1351.79 488.771,1348.54 509.032,1345.3 529.292,1342.05 549.553,1338.81 569.814,1335.56 590.074,1332.32 610.335,1329.07 630.596,1325.83 650.857,1322.58 671.117,1319.34 691.378,1316.09 711.639,1312.85 731.899,1309.6 752.16,1306.36 772.421,1303.11 792.681,1299.86 812.942,1296.62 833.203,1293.37 853.464,1290.13 873.724,1286.88 893.985,1283.64 914.246,1280.39 934.506,1277.15 954.767,1273.9 975.028,1270.66 995.289,1267.41 1015.55,1264.17 1035.81,1260.92 1056.07,1257.68 1076.33,1254.43 1096.59,1251.19 1116.85,1247.94 1137.11,1244.7 1157.37,1241.45 1177.63,1238.21 1197.9,1234.96 1218.16,1231.72 1238.42,1228.47 1258.68,1225.23 1278.94,1221.98 1299.2,1218.74 1319.46,1215.49 1339.72,1212.25 1359.98,1209 1380.24,1205.76 1400.5,1202.51 1420.76,1199.27 1441.02,1196.02 1461.28,1192.78 1481.55,1189.53 1501.81,1186.29 1522.07,1183.04 1542.33,1179.79 1562.59,1176.55 1582.85,1173.3 1603.11,1170.06 1623.37,1166.81 1643.63,1163.57 1663.89,1160.32 1684.15,1157.08 1704.41,1153.83 1724.67,1150.59 1744.93,1147.34 1765.2,1144.1 1785.46,1140.85 1805.72,1137.61 1825.98,1134.36 1846.24,1131.12 1866.5,1127.87 1886.76,1124.63 1907.02,1121.38 1927.28,1118.14 1947.54,1114.89 1967.8,1111.65 1988.06,1108.4 2008.32,1105.16 2028.58,1101.91 2048.85,1098.67 2069.11,1095.42 2089.37,1092.18 2109.63,1088.93 2129.89,1085.69 2150.15,1082.44 2170.41,1079.2 2190.67,1075.95 2210.93,1072.71 2231.19,1069.46 2251.45,1066.22 2271.71,1062.97 2291.97,1059.73 "/>
<polyline clip-path="url(#clip832)" style="stroke:#1e88e5; stroke-linecap:round; stroke-linejoin:round; stroke-width:16; stroke-opacity:1; fill:none" points="265.903,1384.24 286.164,1377.75 306.425,1371.26 326.685,1364.77 346.946,1358.28 367.207,1351.79 387.467,1345.3 407.728,1338.81 427.989,1332.32 448.249,1325.83 468.51,1319.34 488.771,1312.85 509.032,1306.36 529.292,1299.86 549.553,1293.37 569.814,1286.88 590.074,1280.39 610.335,1273.9 630.596,1267.41 650.857,1260.92 671.117,1254.43 691.378,1247.94 711.639,1241.45 731.899,1234.96 752.16,1228.47 772.421,1221.98 792.681,1215.49 812.942,1209 833.203,1202.51 853.464,1196.02 873.724,1189.53 893.985,1183.04 914.246,1176.55 934.506,1170.06 954.767,1163.57 975.028,1157.08 995.289,1150.59 1015.55,1144.1 1035.81,1137.61 1056.07,1131.12 1076.33,1124.63 1096.59,1118.14 1116.85,1111.65 1137.11,1105.16 1157.37,1098.67 1177.63,1092.18 1197.9,1085.69 1218.16,1079.2 1238.42,1072.71 1258.68,1066.22 1278.94,1059.73 1299.2,1053.23 1319.46,1046.74 1339.72,1040.25 1359.98,1033.76 1380.24,1027.27 1400.5,1020.78 1420.76,1014.29 1441.02,1007.8 1461.28,1001.31 1481.55,994.822 1501.81,988.332 1522.07,981.842 1542.33,975.352 1562.59,968.861 1582.85,962.371 1603.11,955.881 1623.37,949.391 1643.63,942.9 1663.89,936.41 1684.15,929.92 1704.41,923.43 1724.67,916.939 1744.93,910.449 1765.2,903.959 1785.46,897.469 1805.72,890.978 1825.98,884.488 1846.24,877.998 1866.5,871.507 1886.76,865.017 1907.02,858.527 1927.28,852.037 1947.54,845.546 1967.8,839.056 1988.06,832.566 2008.32,826.076 2028.58,819.585 2048.85,813.095 2069.11,806.605 2089.37,800.115 2109.63,793.624 2129.89,787.134 2150.15,780.644 2170.41,774.154 2190.67,767.663 2210.93,761.173 2231.19,754.683 2251.45,748.192 2271.71,741.702 2291.97,735.212 "/>
<polyline clip-path="url(#clip832)" style="stroke:#ffc107; stroke-linecap:round; stroke-linejoin:round; stroke-width:16; stroke-opacity:1; fill:none" points="265.903,1384.24 286.164,1374.5 306.425,1364.77 326.685,1355.03 346.946,1345.3 367.207,1335.56 387.467,1325.83 407.728,1316.09 427.989,1306.36 448.249,1296.62 468.51,1286.88 488.771,1277.15 509.032,1267.41 529.292,1257.68 549.553,1247.94 569.814,1238.21 590.074,1228.47 610.335,1218.74 630.596,1209 650.857,1199.27 671.117,1189.53 691.378,1179.79 711.639,1170.06 731.899,1160.32 752.16,1150.59 772.421,1140.85 792.681,1131.12 812.942,1121.38 833.203,1111.65 853.464,1101.91 873.724,1092.18 893.985,1082.44 914.246,1072.71 934.506,1062.97 954.767,1053.23 975.028,1043.5 995.289,1033.76 1015.55,1024.03 1035.81,1014.29 1056.07,1004.56 1076.33,994.822 1096.59,985.087 1116.85,975.352 1137.11,965.616 1157.37,955.881 1177.63,946.146 1197.9,936.41 1218.16,926.675 1238.42,916.939 1258.68,907.204 1278.94,897.469 1299.2,887.733 1319.46,877.998 1339.72,868.262 1359.98,858.527 1380.24,848.792 1400.5,839.056 1420.76,829.321 1441.02,819.585 1461.28,809.85 1481.55,800.115 1501.81,790.379 1522.07,780.644 1542.33,770.908 1562.59,761.173 1582.85,751.438 1603.11,741.702 1623.37,731.967 1643.63,722.231 1663.89,712.496 1684.15,702.761 1704.41,693.025 1724.67,683.29 1744.93,673.554 1765.2,663.819 1785.46,654.084 1805.72,644.348 1825.98,634.613 1846.24,624.877 1866.5,615.142 1886.76,605.407 1907.02,595.671 1927.28,585.936 1947.54,576.201 1967.8,566.465 1988.06,556.73 2008.32,546.994 2028.58,537.259 2048.85,527.524 2069.11,517.788 2089.37,508.053 2109.63,498.317 2129.89,488.582 2150.15,478.847 2170.41,469.111 2190.67,459.376 2210.93,449.64 2231.19,439.905 2251.45,430.17 2271.71,420.434 2291.97,410.699 "/>
<polyline clip-path="url(#clip832)" style="stroke:#004d40; stroke-linecap:round; stroke-linejoin:round; stroke-width:16; stroke-opacity:1; fill:none" points="265.903,1384.24 286.164,1371.26 306.425,1358.28 326.685,1345.3 346.946,1332.32 367.207,1319.34 387.467,1306.36 407.728,1293.37 427.989,1280.39 448.249,1267.41 468.51,1254.43 488.771,1241.45 509.032,1228.47 529.292,1215.49 549.553,1202.51 569.814,1189.53 590.074,1176.55 610.335,1163.57 630.596,1150.59 650.857,1137.61 671.117,1124.63 691.378,1111.65 711.639,1098.67 731.899,1085.69 752.16,1072.71 772.421,1059.73 792.681,1046.74 812.942,1033.76 833.203,1020.78 853.464,1007.8 873.724,994.822 893.985,981.842 914.246,968.861 934.506,955.881 954.767,942.9 975.028,929.92 995.289,916.939 1015.55,903.959 1035.81,890.978 1056.07,877.998 1076.33,865.017 1096.59,852.037 1116.85,839.056 1137.11,826.076 1157.37,813.095 1177.63,800.115 1197.9,787.134 1218.16,774.154 1238.42,761.173 1258.68,748.192 1278.94,735.212 1299.2,722.231 1319.46,709.251 1339.72,696.27 1359.98,683.29 1380.24,670.309 1400.5,657.329 1420.76,644.348 1441.02,631.368 1461.28,618.387 1481.55,605.407 1501.81,592.426 1522.07,579.446 1542.33,566.465 1562.59,553.485 1582.85,540.504 1603.11,527.524 1623.37,514.543 1643.63,501.563 1663.89,488.582 1684.15,475.601 1704.41,462.621 1724.67,449.64 1744.93,436.66 1765.2,423.679 1785.46,410.699 1805.72,397.718 1825.98,384.738 1846.24,371.757 1866.5,358.777 1886.76,345.796 1907.02,332.816 1927.28,319.835 1947.54,306.855 1967.8,293.874 1988.06,280.894 2008.32,267.913 2028.58,254.933 2048.85,241.952 2069.11,228.971 2089.37,215.991 2109.63,203.01 2129.89,190.03 2150.15,177.049 2170.41,164.069 2190.67,151.088 2210.93,138.108 2231.19,125.127 2251.45,112.147 2271.71,99.1662 2291.97,86.1857 "/>
<path clip-path="url(#clip830)" d="M276.709 352.309 L662.698 352.309 L662.698 93.1086 L276.709 93.1086  Z" fill="#eee9e9" fill-rule="evenodd" fill-opacity="1"/>
<polyline clip-path="url(#clip830)" style="stroke:#000000; stroke-linecap:round; stroke-linejoin:round; stroke-width:4; stroke-opacity:0; fill:none" points="276.709,352.309 662.698,352.309 662.698,93.1086 276.709,93.1086 276.709,352.309 "/>
<polyline clip-path="url(#clip830)" style="stroke:#d81b60; stroke-linecap:round; stroke-linejoin:round; stroke-width:16; stroke-opacity:1; fill:none" points="300.571,144.949 443.747,144.949 "/>
<path clip-path="url(#clip830)" d="M484.577 150.168 L483.559 144.821 Q482.517 139.335 478.397 139.335 Q475.295 139.335 473.883 141.882 Q472.1 145.076 472.1 149.289 Q472.1 154.381 473.837 156.812 Q475.596 159.289 478.397 159.289 Q481.499 159.289 483.165 154.358 L484.577 150.168 M486.961 143.085 L489.253 136.303 L493.049 136.303 L488.304 150.354 L489.23 155.423 Q489.438 156.557 490.248 157.506 Q491.198 158.618 491.938 158.618 L493.975 158.618 L493.975 162.229 L491.429 162.229 Q489.253 162.229 487.309 160.284 Q486.36 159.312 485.966 157.275 Q484.901 159.844 482.725 161.858 Q481.707 162.807 478.397 162.807 Q472.957 162.807 470.318 159.289 Q467.61 155.655 467.61 149.289 Q467.61 142.483 470.549 139.289 Q473.813 135.724 478.397 135.724 Q485.596 135.724 486.961 143.085 Z" fill="#000000" fill-rule="nonzero" fill-opacity="1" /><path clip-path="url(#clip830)" d="M516.336 140.701 L546.012 140.701 L546.012 144.59 L516.336 144.59 L516.336 140.701 M516.336 150.145 L546.012 150.145 L546.012 154.081 L516.336 154.081 L516.336 150.145 Z" fill="#000000" fill-rule="nonzero" fill-opacity="1" /><path clip-path="url(#clip830)" d="M581.174 130.747 Q577.563 130.747 575.734 134.312 Q573.929 137.854 573.929 144.983 Q573.929 152.09 575.734 155.655 Q577.563 159.196 581.174 159.196 Q584.808 159.196 586.614 155.655 Q588.442 152.09 588.442 144.983 Q588.442 137.854 586.614 134.312 Q584.808 130.747 581.174 130.747 M581.174 127.044 Q586.984 127.044 590.04 131.65 Q593.118 136.233 593.118 144.983 Q593.118 153.71 590.04 158.317 Q586.984 162.9 581.174 162.9 Q575.364 162.9 572.285 158.317 Q569.23 153.71 569.23 144.983 Q569.23 136.233 572.285 131.65 Q575.364 127.044 581.174 127.044 Z" fill="#000000" fill-rule="nonzero" fill-opacity="1" /><path clip-path="url(#clip830)" d="M601.336 156.349 L606.22 156.349 L606.22 162.229 L601.336 162.229 L601.336 156.349 Z" fill="#000000" fill-rule="nonzero" fill-opacity="1" /><path clip-path="url(#clip830)" d="M617.215 158.293 L624.854 158.293 L624.854 131.928 L616.544 133.595 L616.544 129.335 L624.808 127.669 L629.484 127.669 L629.484 158.293 L637.123 158.293 L637.123 162.229 L617.215 162.229 L617.215 158.293 Z" fill="#000000" fill-rule="nonzero" fill-opacity="1" /><polyline clip-path="url(#clip830)" style="stroke:#1e88e5; stroke-linecap:round; stroke-linejoin:round; stroke-width:16; stroke-opacity:1; fill:none" points="300.571,196.789 443.747,196.789 "/>
<path clip-path="url(#clip830)" d="M484.577 202.008 L483.559 196.661 Q482.517 191.175 478.397 191.175 Q475.295 191.175 473.883 193.722 Q472.1 196.916 472.1 201.129 Q472.1 206.221 473.837 208.652 Q475.596 211.129 478.397 211.129 Q481.499 211.129 483.165 206.198 L484.577 202.008 M486.961 194.925 L489.253 188.143 L493.049 188.143 L488.304 202.194 L489.23 207.263 Q489.438 208.397 490.248 209.346 Q491.198 210.458 491.938 210.458 L493.975 210.458 L493.975 214.069 L491.429 214.069 Q489.253 214.069 487.309 212.124 Q486.36 211.152 485.966 209.115 Q484.901 211.684 482.725 213.698 Q481.707 214.647 478.397 214.647 Q472.957 214.647 470.318 211.129 Q467.61 207.495 467.61 201.129 Q467.61 194.323 470.549 191.129 Q473.813 187.564 478.397 187.564 Q485.596 187.564 486.961 194.925 Z" fill="#000000" fill-rule="nonzero" fill-opacity="1" /><path clip-path="url(#clip830)" d="M516.336 192.541 L546.012 192.541 L546.012 196.43 L516.336 196.43 L516.336 192.541 M516.336 201.985 L546.012 201.985 L546.012 205.921 L516.336 205.921 L516.336 201.985 Z" fill="#000000" fill-rule="nonzero" fill-opacity="1" /><path clip-path="url(#clip830)" d="M581.174 182.587 Q577.563 182.587 575.734 186.152 Q573.929 189.694 573.929 196.823 Q573.929 203.93 575.734 207.495 Q577.563 211.036 581.174 211.036 Q584.808 211.036 586.614 207.495 Q588.442 203.93 588.442 196.823 Q588.442 189.694 586.614 186.152 Q584.808 182.587 581.174 182.587 M581.174 178.884 Q586.984 178.884 590.04 183.49 Q593.118 188.073 593.118 196.823 Q593.118 205.55 590.04 210.157 Q586.984 214.74 581.174 214.74 Q575.364 214.74 572.285 210.157 Q569.23 205.55 569.23 196.823 Q569.23 188.073 572.285 183.49 Q575.364 178.884 581.174 178.884 Z" fill="#000000" fill-rule="nonzero" fill-opacity="1" /><path clip-path="url(#clip830)" d="M601.336 208.189 L606.22 208.189 L606.22 214.069 L601.336 214.069 L601.336 208.189 Z" fill="#000000" fill-rule="nonzero" fill-opacity="1" /><path clip-path="url(#clip830)" d="M620.433 210.133 L636.752 210.133 L636.752 214.069 L614.808 214.069 L614.808 210.133 Q617.47 207.379 622.053 202.749 Q626.66 198.096 627.84 196.754 Q630.086 194.231 630.965 192.495 Q631.868 190.735 631.868 189.046 Q631.868 186.291 629.924 184.555 Q628.002 182.819 624.901 182.819 Q622.701 182.819 620.248 183.583 Q617.817 184.347 615.039 185.897 L615.039 181.175 Q617.864 180.041 620.317 179.462 Q622.771 178.884 624.808 178.884 Q630.178 178.884 633.373 181.569 Q636.567 184.254 636.567 188.745 Q636.567 190.874 635.757 192.796 Q634.97 194.694 632.863 197.286 Q632.285 197.958 629.183 201.175 Q626.081 204.37 620.433 210.133 Z" fill="#000000" fill-rule="nonzero" fill-opacity="1" /><polyline clip-path="url(#clip830)" style="stroke:#ffc107; stroke-linecap:round; stroke-linejoin:round; stroke-width:16; stroke-opacity:1; fill:none" points="300.571,248.629 443.747,248.629 "/>
<path clip-path="url(#clip830)" d="M484.577 253.848 L483.559 248.501 Q482.517 243.015 478.397 243.015 Q475.295 243.015 473.883 245.562 Q472.1 248.756 472.1 252.969 Q472.1 258.061 473.837 260.492 Q475.596 262.969 478.397 262.969 Q481.499 262.969 483.165 258.038 L484.577 253.848 M486.961 246.765 L489.253 239.983 L493.049 239.983 L488.304 254.034 L489.23 259.103 Q489.438 260.237 490.248 261.186 Q491.198 262.298 491.938 262.298 L493.975 262.298 L493.975 265.909 L491.429 265.909 Q489.253 265.909 487.309 263.964 Q486.36 262.992 485.966 260.955 Q484.901 263.524 482.725 265.538 Q481.707 266.487 478.397 266.487 Q472.957 266.487 470.318 262.969 Q467.61 259.335 467.61 252.969 Q467.61 246.163 470.549 242.969 Q473.813 239.404 478.397 239.404 Q485.596 239.404 486.961 246.765 Z" fill="#000000" fill-rule="nonzero" fill-opacity="1" /><path clip-path="url(#clip830)" d="M516.336 244.381 L546.012 244.381 L546.012 248.27 L516.336 248.27 L516.336 244.381 M516.336 253.825 L546.012 253.825 L546.012 257.761 L516.336 257.761 L516.336 253.825 Z" fill="#000000" fill-rule="nonzero" fill-opacity="1" /><path clip-path="url(#clip830)" d="M581.174 234.427 Q577.563 234.427 575.734 237.992 Q573.929 241.534 573.929 248.663 Q573.929 255.77 575.734 259.335 Q577.563 262.876 581.174 262.876 Q584.808 262.876 586.614 259.335 Q588.442 255.77 588.442 248.663 Q588.442 241.534 586.614 237.992 Q584.808 234.427 581.174 234.427 M581.174 230.724 Q586.984 230.724 590.04 235.33 Q593.118 239.913 593.118 248.663 Q593.118 257.39 590.04 261.997 Q586.984 266.58 581.174 266.58 Q575.364 266.58 572.285 261.997 Q569.23 257.39 569.23 248.663 Q569.23 239.913 572.285 235.33 Q575.364 230.724 581.174 230.724 Z" fill="#000000" fill-rule="nonzero" fill-opacity="1" /><path clip-path="url(#clip830)" d="M601.336 260.029 L606.22 260.029 L606.22 265.909 L601.336 265.909 L601.336 260.029 Z" fill="#000000" fill-rule="nonzero" fill-opacity="1" /><path clip-path="url(#clip830)" d="M630.572 247.274 Q633.928 247.992 635.803 250.261 Q637.701 252.529 637.701 255.862 Q637.701 260.978 634.183 263.779 Q630.664 266.58 624.183 266.58 Q622.007 266.58 619.692 266.14 Q617.401 265.723 614.947 264.867 L614.947 260.353 Q616.891 261.487 619.206 262.066 Q621.521 262.645 624.044 262.645 Q628.442 262.645 630.734 260.909 Q633.049 259.173 633.049 255.862 Q633.049 252.807 630.896 251.094 Q628.766 249.358 624.947 249.358 L620.919 249.358 L620.919 245.515 L625.132 245.515 Q628.581 245.515 630.41 244.149 Q632.238 242.761 632.238 240.168 Q632.238 237.506 630.34 236.094 Q628.465 234.659 624.947 234.659 Q623.026 234.659 620.826 235.075 Q618.627 235.492 615.989 236.372 L615.989 232.205 Q618.651 231.464 620.965 231.094 Q623.303 230.724 625.363 230.724 Q630.688 230.724 633.789 233.154 Q636.891 235.562 636.891 239.682 Q636.891 242.552 635.248 244.543 Q633.604 246.511 630.572 247.274 Z" fill="#000000" fill-rule="nonzero" fill-opacity="1" /><polyline clip-path="url(#clip830)" style="stroke:#004d40; stroke-linecap:round; stroke-linejoin:round; stroke-width:16; stroke-opacity:1; fill:none" points="300.571,300.469 443.747,300.469 "/>
<path clip-path="url(#clip830)" d="M484.577 305.688 L483.559 300.341 Q482.517 294.855 478.397 294.855 Q475.295 294.855 473.883 297.402 Q472.1 300.596 472.1 304.809 Q472.1 309.901 473.837 312.332 Q475.596 314.809 478.397 314.809 Q481.499 314.809 483.165 309.878 L484.577 305.688 M486.961 298.605 L489.253 291.823 L493.049 291.823 L488.304 305.874 L489.23 310.943 Q489.438 312.077 490.248 313.026 Q491.198 314.138 491.938 314.138 L493.975 314.138 L493.975 317.749 L491.429 317.749 Q489.253 317.749 487.309 315.804 Q486.36 314.832 485.966 312.795 Q484.901 315.364 482.725 317.378 Q481.707 318.327 478.397 318.327 Q472.957 318.327 470.318 314.809 Q467.61 311.175 467.61 304.809 Q467.61 298.003 470.549 294.809 Q473.813 291.244 478.397 291.244 Q485.596 291.244 486.961 298.605 Z" fill="#000000" fill-rule="nonzero" fill-opacity="1" /><path clip-path="url(#clip830)" d="M516.336 296.221 L546.012 296.221 L546.012 300.11 L516.336 300.11 L516.336 296.221 M516.336 305.665 L546.012 305.665 L546.012 309.601 L516.336 309.601 L516.336 305.665 Z" fill="#000000" fill-rule="nonzero" fill-opacity="1" /><path clip-path="url(#clip830)" d="M581.174 286.267 Q577.563 286.267 575.734 289.832 Q573.929 293.374 573.929 300.503 Q573.929 307.61 575.734 311.175 Q577.563 314.716 581.174 314.716 Q584.808 314.716 586.614 311.175 Q588.442 307.61 588.442 300.503 Q588.442 293.374 586.614 289.832 Q584.808 286.267 581.174 286.267 M581.174 282.564 Q586.984 282.564 590.04 287.17 Q593.118 291.753 593.118 300.503 Q593.118 309.23 590.04 313.837 Q586.984 318.42 581.174 318.42 Q575.364 318.42 572.285 313.837 Q569.23 309.23 569.23 300.503 Q569.23 291.753 572.285 287.17 Q575.364 282.564 581.174 282.564 Z" fill="#000000" fill-rule="nonzero" fill-opacity="1" /><path clip-path="url(#clip830)" d="M601.336 311.869 L606.22 311.869 L606.22 317.749 L601.336 317.749 L601.336 311.869 Z" fill="#000000" fill-rule="nonzero" fill-opacity="1" /><path clip-path="url(#clip830)" d="M629.252 287.263 L617.447 305.712 L629.252 305.712 L629.252 287.263 M628.025 283.189 L633.905 283.189 L633.905 305.712 L638.836 305.712 L638.836 309.601 L633.905 309.601 L633.905 317.749 L629.252 317.749 L629.252 309.601 L613.651 309.601 L613.651 305.087 L628.025 283.189 Z" fill="#000000" fill-rule="nonzero" fill-opacity="1" /></svg>
